<svg
   xmlns="http://www.w3.org/2000/svg"
   viewBox="0 0 2829.3333 2829.3333"
   height="2829.3333"
   width="2829.3333"
   xmlSpace="preserve"
   id="svg2"
   version="1.1">
   <defs
     id="defs6" /><g
     transform="matrix(1.3333333,0,0,-1.3333333,0,2829.3333)"
     id="g10"><g
       transform="scale(0.1)"
       id="g12"><g
         transform="scale(1.23158)"
         id="g14"><path
           id="path16"
           style="fill:#286e39;fill-opacity:1;fill-rule:nonzero;stroke:none"
           d="m 10323,13713.9 c 27.2,362.9 166.2,1368.6 1328.1,973.2 47.4,81.6 117.7,147.8 202.3,190.3 -2.5,5.4 -4.7,10.7 -8,16.3 -502.4,837.3 -2093.82,1406.3 -3450.38,997.5 -1323.05,-398.7 -1546.35,-1784.3 -1583.97,-2176 1852.24,357.2 3511.95,-1.3 3511.95,-1.3" /></g><g
         transform="scale(1.12798)"
         id="g18"><path
           id="path20"
           style="fill:#ce2045;fill-opacity:1;fill-rule:nonzero;stroke:none"
           d="m 12721.1,16036 c -45.3,-78.1 -71.7,-168.5 -71.7,-265.3 0,-292.3 237,-529.2 529.3,-529.2 292.2,0 529.2,236.9 529.2,529.2 0,292.3 -237,529.3 -529.2,529.3 -85.2,0 -165.4,-20.6 -236.7,-56.3 -92.3,-46.3 -169.1,-118.7 -220.9,-207.7" /></g><g
         transform="scale(1.06327)"
         id="g22"><path
           id="path24"
           style="fill:#ce2045;fill-opacity:1;fill-rule:nonzero;stroke:none"
           d="m 12149.3,15147.6 c 78.5,48.3 141.9,141 142,321.1 0,202.1 -132.7,425.7 -334.3,416 0,0 -1922.3,415.3 -4067.8,1.5 -2.7,-0.5 -5.37,-1 -8.06,-1.5 -63.83,-12.3 -237.36,-111.8 -234.79,-419.7 1.07,-128.2 28.43,-271.6 140.13,-351 34.84,59 57.37,93.4 57.37,93.4 808.6,699.5 3496.25,547.5 4305.45,-59.8" /></g><path
         id="path26"
         style="fill:#329e49;fill-opacity:1;fill-rule:nonzero;stroke:none"
         d="m 8991.92,4798.5 c 14.62,-79.3 29.32,-157.9 44.02,-236.1 l 1076.36,-470.2 c 5.2,74 10.7,147.6 16.5,220.6 l -1102.57,481.7 c -11.42,1.3 -22.93,2.6 -34.31,4" /><path
         id="path28"
         style="fill:#329e49;fill-opacity:1;fill-rule:nonzero;stroke:none"
         d="M 9139.79,4020.1 10083.2,3608 c 3.7,74.3 7.7,148.6 12.1,222.6 L 9091.64,4269 c 16.34,-85.1 32.41,-168 48.15,-248.9" /><path
         id="path30"
         style="fill:#329e49;fill-opacity:1;fill-rule:nonzero;stroke:none"
         d="m 9197.6,3725.9 c 17.6,-88.9 34.22,-172.2 49.77,-249.6 l 561.07,-245.1 259.86,2.5 c 1.1,36.8 2.3,73.6 3.7,110.4 0,-0.1 -0.1,-0.1 -0.1,-0.2 l -874.3,382" /><path
         id="path32"
         style="fill:#329e49;fill-opacity:1;fill-rule:nonzero;stroke:none"
         d="m 10150.5,4572.3 c 3.8,43.5 7.7,86.7 11.7,129.6 -118.9,5.2 -236.95,11.9 -353.77,19.9 l 342.07,-149.5" /><path
         id="path34"
         style="fill:#1e4628;fill-opacity:1;fill-rule:nonzero;stroke:none"
         d="m 9026.23,4794.5 1102.57,-481.7 c 6.9,87.4 14.1,174 21.7,259.5 v 0 l -342.07,149.5 c -269.08,18.3 -531.42,43.5 -782.2,72.7" /><path
         id="path36"
         style="fill:#1e4628;fill-opacity:1;fill-rule:nonzero;stroke:none"
         d="m 9035.9,4562.4 c 9.23,-49 18.43,-97.8 27.62,-146.1 0.3,-1.6 0.6,-3.2 0.9,-4.7 9.11,-48 18.2,-95.6 27.22,-142.6 v 0 l 1003.66,-438.4 v 0 c 5.2,87.6 10.9,174.9 17,261.6 l -1076.36,470.2 h -0.04" /><path
         id="path38"
         style="fill:#1e4628;fill-opacity:1;fill-rule:nonzero;stroke:none"
         d="m 9139.78,4020.2 c 0.91,-4.7 1.78,-9.1 2.69,-13.8 6.8,-34.9 13.47,-68.9 20.11,-102.8 2.6,-13.2 5.26,-26.9 7.84,-40 9.12,-46.3 18.07,-91.7 26.79,-135.8 0.13,-0.6 0.27,-1.3 0.39,-1.9 v 0 l 874.3,-382 c 0,0.1 0.1,0.1 0.1,0.2 3.1,88 6.9,176 11.2,263.9 v 0 l -943.41,412.1 -0.01,0.1" /><path
         id="path40"
         style="fill:#1e4628;fill-opacity:1;fill-rule:nonzero;stroke:none"
         d="m 9808.44,3231.2 -561.07,245.1 h -0.01 c 5.49,-27.4 10.8,-53.8 15.97,-79.5 0.52,-2.5 1.01,-4.9 1.51,-7.4 12,-59.5 22.99,-113.7 33.06,-163.2 l 510.54,5" /><g
         transform="scale(1.03652)"
         id="g42"><path
           id="path44"
           style="fill:#ce2045;fill-opacity:1;fill-rule:nonzero;stroke:none"
           d="m 15658.9,7567.52 c -115.3,-180.89 -708.8,-600.47 -925.7,-646.49 -9.3,-224.11 2.6,-473.12 94.5,-531.1 175.4,-110.76 417.2,90.21 417.2,90.21 0,0 153.9,-563.91 345.4,-607.32 191.5,-43.42 631,244.47 671.7,559.08 38,293.58 -355.9,943.15 -603.1,1135.62" /></g><path
         id="path46"
         style="fill:#225e2d;fill-opacity:1;fill-rule:nonzero;stroke:none"
         d="m 14218.1,10774.3 c 1.3,-2.7 2.6,-5.3 3.9,-8 l -1000.8,632.1 c 153.2,-515 384.7,-1317.3 614.1,-2205.8 388.8,-348.6 815.6,-812.4 1195.7,-1409 202,174.3 646.1,493.4 822.4,579.3 -200.6,434.7 -748.5,1507.9 -1635.3,2411.4" /><path
         id="path48"
         style="fill:#dedec9;fill-opacity:1;fill-rule:nonzero;stroke:none"
         d="m 16230.8,7843.9 c 10.2,16.1 17.2,30.5 19.6,42.5 34.7,175 -234.1,491.3 -332.5,498.3 -11.9,0.8 -34.4,-7.2 -64.5,-21.8 -176.3,-85.9 -620.4,-405 -822.4,-579.3 -48.1,-41.4 -82.7,-74.8 -96.5,-94.7 -81.8,-118.2 262.2,-505.6 262.2,-505.6 12.3,-15 38.5,-17.1 74.6,-9.5 224.8,47.7 840,482.6 959.5,670.1" /><path
         id="path50"
         style="fill:#ce2045;fill-opacity:1;fill-rule:nonzero;stroke:none"
         d="m 4982.41,7843.9 c -256.16,-199.5 -664.51,-872.8 -625.15,-1177.1 42.21,-326.1 497.73,-624.5 696.22,-579.5 198.5,45 358.05,629.5 358.05,629.5 0,0 250.62,-208.3 432.44,-93.5 95.24,60.1 107.64,318.3 97.91,550.5 -224.76,47.7 -839.95,482.6 -959.47,670.1" /><path
         id="path52"
         style="fill:#225e2d;fill-opacity:1;fill-rule:nonzero;stroke:none"
         d="M 7060.62,10840.3 C 6135.2,9923.7 5565.28,8808.2 5359.77,8362.9 c 176.33,-85.9 620.39,-405 822.47,-579.3 432.28,678.6 925.09,1185.6 1353.61,1546.4 221.71,891.8 438.32,1688.6 572.91,2172.2 l -1048.14,-661.9" /><path
         id="path54"
         style="fill:#dedec9;fill-opacity:1;fill-rule:nonzero;stroke:none"
         d="m 5295.27,8384.7 c -98.39,-7 -367.22,-323.3 -332.47,-498.3 2.39,-12 9.35,-26.4 19.61,-42.5 119.52,-187.5 734.71,-622.4 959.47,-670.1 36.13,-7.6 62.34,-5.5 74.58,9.5 0,0 344.03,387.4 262.24,505.6 -13.79,19.9 -48.45,53.3 -96.46,94.7 -202.08,174.3 -646.14,493.4 -822.47,579.3 -30.11,14.6 -52.57,22.6 -64.5,21.8" /><path
         id="path56"
         style="fill:#df806b;fill-opacity:1;fill-rule:nonzero;stroke:none"
         d="m 13534,14499.6 c 11.3,-90.8 19.7,-183.5 25.5,-276.9 102.2,310.8 468.2,797.6 571.8,757.8 150.9,-58 -110.7,-833.4 -110.7,-833.4 -138.6,-394.1 -363.5,-365.8 -452,-197.6 0.4,-78.5 -1.1,-156.5 -4.3,-233.4 123.7,-60.3 337.5,-82.3 492.4,61.5 201.5,187.2 473.2,1385.3 214,1500.5 -210.3,93.4 -599.3,-508.6 -738.6,-739.2 1.5,-25.1 2,-39.3 2,-39.3 h -0.1" /><path
         id="path58"
         style="fill:#c8675a;fill-opacity:1;fill-rule:nonzero;stroke:none"
         d="m 14020.6,14147.1 c 0,0 261.6,775.4 110.7,833.4 -103.6,39.8 -469.6,-447 -571.8,-757.8 5.6,-90.8 8.6,-182.3 9.1,-273.2 88.5,-168.2 313.4,-196.5 452,197.6" /><path
         id="path60"
         style="fill:#df806b;fill-opacity:1;fill-rule:nonzero;stroke:none"
         d="m 7441.22,14216 c 0,0 -261.51,775.4 -110.68,833.4 109.84,42.3 514.6,-507.4 587.39,-811.8 3.35,96.1 8.76,191.4 16.24,284.7 -0.02,0 -0.17,-0.1 -0.17,-0.1 -30.21,55.2 -50.21,115.7 -62.3,179.5 -169.36,267.4 -494.71,727.9 -680.51,645.3 -259.19,-115.2 12.43,-1313.3 214.03,-1500.5 163.56,-151.9 393.45,-118.9 512.83,-51.1 -3.33,90 -4.75,181.3 -4,272.8 -67.27,-209.2 -321.45,-282.5 -472.83,147.8" /><path
         id="path62"
         style="fill:#c8675a;fill-opacity:1;fill-rule:nonzero;stroke:none"
         d="m 7330.54,15049.4 c -150.83,-58 110.68,-833.4 110.68,-833.4 151.38,-430.3 405.56,-357 472.83,-147.8 0.48,56.5 1.92,113.1 3.88,169.4 -72.79,304.4 -477.55,854.1 -587.39,811.8" /><path
         id="path64"
         style="fill:#329e49;fill-opacity:1;fill-rule:nonzero;stroke:none"
         d="m 11157.8,4015.2 1076.3,470.2 c 15.4,82.1 30.8,164.8 46.2,248 l -1139,-497.6 c 5.8,-73 11.3,-146.6 16.5,-220.6" /><path
         id="path66"
         style="fill:#329e49;fill-opacity:1;fill-rule:nonzero;stroke:none"
         d="m 11174.8,3753.9 c 4.4,-74.2 8.4,-148.6 12.1,-223.1 0,0.1 0,0.1 0,0.2 l 943.4,412.2 c 15.7,80.4 31.8,164.1 48.1,248.8 l -1003.6,-438.4 c 0,0.1 0,0.2 0,0.3" /><path
         id="path68"
         style="fill:#329e49;fill-opacity:1;fill-rule:nonzero;stroke:none"
         d="m 11638.8,4722.2 c -173.2,-12.4 -352.4,-21.6 -537.6,-27 6.3,-66 12.5,-132.9 18.4,-200.3 0,0.1 0,0.3 0,0.4 l 519.2,226.9" /><path
         id="path70"
         style="fill:#329e49;fill-opacity:1;fill-rule:nonzero;stroke:none"
         d="m 11201.8,3156.7 259.8,-2.5 561.1,245.1 c 15.5,77.2 32.2,161 49.8,249.6 l -874.4,-382 c 1.3,-36.8 2.6,-73.5 3.7,-110.2" /><path
         id="path72"
         style="fill:#1e4628;fill-opacity:1;fill-rule:nonzero;stroke:none"
         d="m 11638.8,4722.2 -519.2,-226.9 c 0,-0.1 0,-0.3 0,-0.4 7.6,-85.4 14.8,-171.8 21.7,-259.1 l 1139,497.6 v 0 c 1.1,5.9 2.2,11.9 3.3,17.8 2,11.3 4.1,22.6 6.1,33.9 -205.5,-25.3 -423.1,-46.7 -650.9,-62.9" /><path
         id="path74"
         style="fill:#1e4628;fill-opacity:1;fill-rule:nonzero;stroke:none"
         d="m 11174.8,3753.9 c 0,-0.1 0,-0.2 0,-0.3 l 1003.6,438.4 v 0 c 9.1,47 18.1,94.6 27.2,142.6 0.3,1.5 0.7,3.1 1,4.7 9.1,48.3 18.4,97.1 27.6,146.1 h -0.1 l -1076.3,-470.2 c 6.1,-86.6 11.8,-173.8 17,-261.3" /><path
         id="path76"
         style="fill:#1e4628;fill-opacity:1;fill-rule:nonzero;stroke:none"
         d="m 11186.9,3530.8 c 4.3,-87.8 8,-175.8 11.2,-263.7 0,-0.1 0,-0.1 0,-0.2 v 0 l 874.4,382 c 0.1,0.5 0.2,1.2 0.3,1.7 8.9,45 18.1,91.3 27.4,138.7 0.3,1.6 0.6,3.1 0.9,4.7 9.4,47.7 18.9,96.5 28.6,146.3 0.2,1 0.4,1.9 0.6,2.9 L 11186.9,3531 c 0,-0.1 0,-0.1 0,-0.2" /><path
         id="path78"
         style="fill:#1e4628;fill-opacity:1;fill-rule:nonzero;stroke:none"
         d="m 11972.2,3149.2 c 1.6,7.9 3.3,16.2 4.9,24.3 4.1,20 8.2,40.3 12.6,61.9 1.1,5.5 2.3,11.2 3.4,16.8 2.9,14.3 5.9,29.1 8.9,44 2.3,11.5 4.6,23.1 7,35 4.4,21.7 8.8,43.7 13.4,66.6 0.1,0.5 0.2,1 0.3,1.5 l -561.1,-245.1 510.6,-5" /><path
         id="path80"
         style="fill:#231917;fill-opacity:1;fill-rule:nonzero;stroke:none"
         d="m 11461.6,3154.2 -259.8,2.5 -103,1 c 0,0 40.2,-1465.8 95.7,-1572.6 55.4,-106.7 985.6,-111.3 1326.1,-78.4 340.6,33 386.3,488.5 243.1,406.3 -143.3,-82.1 -568.6,-83.5 -721.5,17.3 -153,100.9 97.3,1217.3 97.3,1217.3 l -167.3,1.6 v 0 l -510.6,5" /><path
         id="path82"
         style="fill:#286e39;fill-opacity:1;fill-rule:nonzero;stroke:none"
         d="m 11595.8,6579.4 c -17.8,-83.4 -42.7,-141.7 -77.1,-158 -181.5,-85.8 -1613.51,-161.3 -1769.05,62.5 -16.12,23.2 -29.47,61 -40.43,109.1 -929.4,58.7 -2319.51,185 -2694.9,429 -135.91,-692.6 -236.29,-1332.2 -265.35,-1817.5 0,0 966.9,-254.8 2242.95,-406 11.38,-1.4 22.89,-2.7 34.31,-4 250.78,-29.2 513.12,-54.4 782.2,-72.7 116.82,-8 234.87,-14.7 353.77,-19.9 185.3,-8.1 372.6,-12.6 560.5,-12.6 128.8,0 254.7,2.2 378.5,5.9 185.2,5.4 364.4,14.6 537.6,27 227.8,16.2 445.4,37.6 650.9,62.9 0.1,0 0.1,0 0.2,0 1423.2,175.6 2289.9,531.3 2289.9,531.3 -31.1,492 -123.3,1091.2 -248,1726.3 -1.8,-5.9 -3.6,-11.8 -5.6,-17.4 -70.2,-195.2 -1521.1,-376 -2730.4,-445.9" /><path
         id="path84"
         style="fill:#286e39;fill-opacity:1;fill-rule:nonzero;stroke:none"
         d="m 12762.9,11687.8 c 0,0 340.8,-1159.3 326.4,-1796.4 0,0 -1178,1206.1 -1294.6,1335.7 0,0 102.2,-1411.2 0,-1728 0,0 -500.1,902.4 -1211.9,1368 -711.94,-465.6 -1212.02,-1368 -1212.02,-1368 -102.19,316.8 0,1728 0,1728 -116.59,-129.6 -1294.56,-1335.7 -1294.56,-1335.7 -14.4,637.1 326.39,1796.4 326.39,1796.4 l -293.85,-185.6 c -134.59,-483.6 -351.2,-1280.4 -572.91,-2172.2 -109.83,-441.7 -220.87,-906.6 -323.73,-1368 123.47,-24.8 1115.95,-217.5 2486.34,-295.9 9.51,67.7 20.75,116.8 33.05,136.7 72.57,116.9 1714.59,199.4 1886.99,-46.4 0,0 2.6,-40.2 5.8,-105.9 795.7,35.3 1632.5,128.5 2450.7,314.2 0,0 23,19 53.3,30 -92.8,404.5 -192.7,809.4 -293,1197.9 -229.4,888.5 -460.9,1690.8 -614.1,2205.8 l -458.3,289.4" /><path
         id="path86"
         style="fill:#ce2045;fill-opacity:1;fill-rule:nonzero;stroke:none"
         d="m 8402.61,11687.8 c 0,0 -340.79,-1159.3 -326.39,-1796.4 0,0 1177.97,1206.1 1294.56,1335.7 0,0 -102.19,-1411.2 0,-1728 0,0 500.08,902.4 1212.02,1368 711.8,-465.6 1211.9,-1368 1211.9,-1368 102.2,316.8 0,1728 0,1728 116.6,-129.6 1294.6,-1335.7 1294.6,-1335.7 14.4,637.1 -326.4,1796.4 -326.4,1796.4 l 458.3,-289.4 1000.8,-632.1 c -1.3,2.7 -2.6,5.3 -3.9,8 -398.5,834 -822.6,1404.7 -1062.6,1694.1 -2178.1,-854.6 -4477.1,-273 -4923.39,115.7 -21.64,18.8 -41.67,42.7 -60.92,69 -142.91,-153.5 -707.78,-796.1 -1227.71,-1886.8 l 117.14,74 1048.14,661.9 293.85,185.6" /><path
         id="path88"
         style="fill:#231917;fill-opacity:1;fill-rule:nonzero;stroke:none"
         d="m 9297.9,3226.2 h -0.02 l -167.27,-1.6 c 0,0 250.24,-1116.4 97.29,-1217.3 -152.96,-100.8 -578.24,-99.4 -721.51,-17.3 -143.27,82.2 -97.55,-373.3 243.04,-406.3 340.58,-32.9 1270.77,-28.3 1326.17,78.4 55.5,106.8 95.6,1572.6 95.6,1572.6 l -102.9,-1 -259.86,-2.5 -510.54,-5" /><path
         id="path90"
         style="fill:#f7987b;fill-opacity:1;fill-rule:nonzero;stroke:none"
         d="m 13155.5,12468.4 c 0.4,0.2 0.8,0.4 1.2,0.5 239,93.8 381.4,634.6 407.6,1247.2 3.2,76.9 4.7,154.9 4.3,233.4 -0.5,90.9 -3.5,182.4 -9.1,273.2 -5.8,93.4 -14.2,186.1 -25.5,276.9 -2069.2,338 -2792.7,1295.6 -2792.7,1295.6 -822.97,-840.9 -2799.93,-1271.4 -2807.13,-1272.9 -7.48,-93.3 -12.89,-188.6 -16.24,-284.7 -1.96,-56.3 -3.4,-112.9 -3.88,-169.4 -0.75,-91.5 0.67,-182.8 4,-272.8 17.86,-484.9 96.63,-929.1 253.14,-1142.3 19.25,-26.3 39.28,-50.2 60.92,-69 446.29,-388.7 2745.29,-970.3 4923.39,-115.7" /><path
         id="path92"
         style="fill:#da6b52;fill-opacity:1;fill-rule:nonzero;stroke:none"
         d="m 11185.9,13253.7 c 122.4,347.6 -174.7,1504.7 -419.5,1526.3 0,0 -180.7,29.9 -309.6,-259.2 -108,-242.2 -352.8,-1101.5 -136.8,-1353.5 123,-143.5 743.5,-261.2 865.9,86.4" /><path
         id="path94"
         style="fill:#f1846c;fill-opacity:1;fill-rule:nonzero;stroke:none"
         d="m 9049.27,12598.5 c 435.4,0 788.36,353 788.36,788.4 0,435.4 -352.96,788.3 -788.36,788.3 -435.4,0 -788.36,-352.9 -788.36,-788.3 0,-435.4 352.96,-788.4 788.36,-788.4" /><path
         id="path96"
         style="fill:#f1846c;fill-opacity:1;fill-rule:nonzero;stroke:none"
         d="m 11702.3,13386.9 c 0,-435.4 353,-788.4 788.4,-788.4 435.4,0 788.4,353 788.4,788.4 0,435.4 -353,788.3 -788.4,788.3 -435.4,0 -788.4,-352.9 -788.4,-788.3" /><g
         transform="scale(1.03763)"
         id="g98"><path
           id="path100"
           style="fill:#231917;fill-opacity:1;fill-rule:nonzero;stroke:none"
           d="m 7646.47,13995.7 c 6.94,1.5 1912.22,416.4 2705.33,1226.7 0,0 697.3,-922.8 2691.4,-1248.6 h 0.1 c 0,0 -0.4,13.7 -1.9,37.9 -11.1,180.5 -81,968 -472.5,1403.1 -33.4,37.1 -73.6,72.7 -119.4,107.1 -829.2,622.3 -3583.24,778.1 -4411.82,61.3 0,0 -23.09,-35.3 -58.78,-95.8 -140.39,-237.9 -477.55,-869.7 -392.63,-1318.8 11.65,-61.5 30.92,-119.8 60.04,-173 0,0 0.14,0.1 0.16,0.1" /></g><path
         id="path102"
         style="fill:#231917;fill-opacity:1;fill-rule:nonzero;stroke:none"
         d="m 11721.3,14744.8 c 43,22.5 86.7,30.7 128.8,30.8 55.2,0 107.2,-14.7 145,-29.7 18.9,-7.5 34.2,-15 44.6,-20.6 5.2,-2.7 9.2,-5 11.7,-6.5 l 2.8,-1.6 0.6,-0.4 v 0 c 19,-12.1 44.2,-6.5 56.3,12.5 12.1,18.9 6.6,44.2 -12.4,56.3 v 0 c -3.4,1.7 -109.8,70.9 -248.6,71.6 -52.8,0 -110.5,-10.6 -166.7,-40.2 -20,-10.5 -27.7,-35.1 -17.2,-55.1 10.5,-19.9 35.2,-27.6 55.1,-17.1" /><path
         id="path104"
         style="fill:#231917;fill-opacity:1;fill-rule:nonzero;stroke:none"
         d="m 9505.71,14818.4 h -0.01 -0.01 c 2.75,2.1 97.73,59.3 204.69,58.7 42.08,0 85.76,-8.2 128.78,-30.8 19.95,-10.5 44.61,-2.8 55.09,17.2 10.47,19.9 2.78,44.6 -17.16,55 -56.22,29.6 -113.95,40.2 -166.71,40.2 -138.87,-0.6 -245.25,-69.9 -248.6,-71.6 -19,-12.1 -24.56,-37.3 -12.42,-56.3 12.13,-19 37.36,-24.6 56.35,-12.4" /><path
         id="path106"
         style="fill:#614c48;fill-opacity:1;fill-rule:nonzero;stroke:none"
         d="m 8098.66,14878.5 v 0 c 0.91,0.2 473.02,126.6 1032.81,345.3 279.91,109.3 581.74,241.7 857.94,393.4 276.19,151.7 526.79,322.4 704.69,510.7 15.4,16.4 14.7,42.2 -1.7,57.7 -16.4,15.4 -42.2,14.7 -57.7,-1.7 -168.3,-178.5 -412.8,-346 -684.57,-495.2 -407.69,-223.9 -876.43,-407.1 -1242.77,-534 -183.19,-63.4 -340.82,-112.8 -452.55,-146.3 -55.87,-16.8 -100.27,-29.6 -130.65,-38.2 -30.39,-8.5 -46.56,-12.9 -46.61,-12.9 -21.77,-5.8 -34.68,-28.2 -28.86,-50 5.84,-21.7 28.2,-34.6 49.97,-28.8" /><g
         transform="scale(1.01428)"
         id="g108"><path
           id="path110"
           style="fill:#614c48;fill-opacity:1;fill-rule:nonzero;stroke:none"
           d="m 8148,15400.3 h -0.01 c 3.87,0.4 1062.16,90.7 2184.31,820.1 18.7,12.2 24,37.1 11.8,55.7 -12.1,18.6 -37,23.9 -55.7,11.8 -552.46,-359.3 -1090.14,-561.3 -1489.37,-673.4 -199.6,-56.1 -364.56,-89.6 -479.38,-109.1 -57.41,-9.8 -102.29,-16.1 -132.68,-19.9 -15.19,-1.9 -26.78,-3.1 -34.49,-4 -7.71,-0.8 -11.31,-1.1 -11.33,-1.1 -22.14,-1.9 -38.54,-21.3 -36.65,-43.5 1.88,-22.1 21.36,-38.5 43.5,-36.6" /></g><g
         transform="scale(1.00633)"
         id="g112"><path
           id="path114"
           style="fill:#614c48;fill-opacity:1;fill-rule:nonzero;stroke:none"
           d="m 10740,16216.7 c 0.3,-0.2 397.8,-171.2 872.7,-353.3 237.5,-91.1 494.3,-184.9 730.7,-261.6 236.7,-76.7 452.3,-136.4 610.6,-159 22.2,-3.1 42.8,12.3 45.9,34.4 3.1,22.2 -12.3,42.7 -34.4,45.9 -149.2,21.1 -362.7,79.8 -597,155.8 -351.6,114.1 -751.1,267.2 -1062.3,391.8 -155.6,62.3 -289.3,117.4 -384,157 -47.3,19.8 -84.9,35.6 -110.6,46.6 -25.8,10.9 -39.6,16.8 -39.6,16.9 -20.6,8.8 -44.5,-0.7 -53.3,-21.3 -8.9,-20.5 0.7,-44.4 21.3,-53.2" /></g><path
         id="path116"
         style="fill:#614c48;fill-opacity:1;fill-rule:nonzero;stroke:none"
         d="m 11149.4,15807.3 c -75.6,41.9 -136.2,76.4 -177.9,100.5 -20.8,12 -36.9,21.5 -47.7,27.8 -10.9,6.4 -16.4,9.8 -16.5,9.8 -19.3,11.5 -44.3,5.2 -55.9,-14.1 -11.6,-19.3 -5.3,-44.4 14,-55.9 v 0 c 0.7,-0.4 367.5,-220 851.3,-454.4 484.1,-234.3 1083.6,-483.9 1557.3,-543.6 22.4,-2.8 42.8,13.1 45.6,35.4 2.8,22.4 -13.1,42.8 -35.4,45.6 -455.1,56.6 -1052,303.2 -1532,536 -240.1,116.4 -451.6,229.3 -602.8,312.9" /><path
         id="path118"
         style="fill:#231917;fill-opacity:1;fill-rule:nonzero;stroke:none"
         d="m 11624.3,7650.5 c 11.5,-233.1 31,-792.8 -28.5,-1071.1 1209.3,69.9 2660.2,250.7 2730.4,445.9 2,5.6 3.8,11.5 5.6,17.4 81.2,265 -41.4,839.3 -97.9,922 -30.2,44.3 -72.3,42 -105.6,30 -30.3,-11 -53.3,-30 -53.3,-30 -818.2,-185.7 -1655,-278.9 -2450.7,-314.2" /><path
         id="path120"
         style="fill:#231917;fill-opacity:1;fill-rule:nonzero;stroke:none"
         d="m 9698.46,7666.1 c -1370.39,78.4 -2362.87,271.1 -2486.34,295.9 -8.6,1.7 -13.44,2.7 -13.44,2.7 -155.5,29.6 -212.81,-402 -247.44,-646.3 -34.62,-244.3 57.71,-293.1 57.71,-293.1 1.69,-1.1 3.65,-2.2 5.37,-3.3 375.39,-244 1765.5,-370.3 2694.9,-429 -58.37,256 -47.9,808.9 -10.76,1073.1" /><path
         id="path122"
         style="fill:#efa631;fill-opacity:1;fill-rule:nonzero;stroke:none"
         d="m 9709.22,6593 c 10.96,-48.1 24.31,-85.9 40.43,-109.1 155.54,-223.8 1587.55,-148.3 1769.05,-62.5 34.4,16.3 59.3,74.6 77.1,158 59.5,278.3 40,838 28.5,1071.1 -3.2,65.7 -5.8,105.9 -5.8,105.9 -172.4,245.8 -1814.42,163.3 -1886.99,46.4 -12.3,-19.9 -23.54,-69 -33.05,-136.7 -37.14,-264.2 -47.61,-817.1 10.76,-1073.1" /><path
         id="path124"
         style="fill:#231917;fill-opacity:1;fill-rule:nonzero;stroke:none"
         d="m 10047.7,6633.2 c 117.9,-67.2 1134,-48 1197.5,0 63.5,48 136.1,892.8 36.3,979.2 -99.8,86.4 -1206.6,38.4 -1297.3,28.8 0,0 -54.44,-940.8 63.5,-1008" /><path
         id="path126"
         style="fill:#231917;fill-opacity:1;fill-rule:nonzero;stroke:none"
         d="m 9730.91,14499.6 c -102.84,0 -186.21,-83.4 -186.21,-186.2 0,-102.9 83.37,-186.2 186.21,-186.2 102.84,0 186.21,83.3 186.21,186.2 0,102.8 -83.37,186.2 -186.21,186.2" /><path
         id="path128"
         style="fill:#231917;fill-opacity:1;fill-rule:nonzero;stroke:none"
         d="m 11794.8,14127.2 c 102.9,0 186.2,83.3 186.2,186.2 0,102.8 -83.3,186.2 -186.2,186.2 -102.8,0 -186.2,-83.4 -186.2,-186.2 0,-102.9 83.4,-186.2 186.2,-186.2" /><path
         id="path130"
         style="fill:#da6b52;fill-opacity:1;fill-rule:nonzero;stroke:none"
         d="m 10073.4,12790.1 c 5.8,-3.9 242,-173.2 603.1,-173.6 180.4,-0.1 391.3,43.2 614.7,170.1 29.4,16.6 39.8,54 23.1,83.4 -16.7,29.4 -54,39.7 -83.4,23 -205.4,-116.3 -393.4,-154 -554.4,-154.1 -160.9,-0.1 -295,38.2 -388.5,76.5 -46.8,19.1 -83.3,38.1 -107.8,52.2 -12.3,7 -21.5,12.7 -27.5,16.6 l -6.5,4.3 -1.3,0.9 -0.3,0.2 v 0 c -27.4,19.6 -65.6,13.3 -85.2,-14.2 -19.7,-27.4 -13.4,-65.7 14.1,-85.3 h -0.1" /><path
         id="path132"
         style="fill:#231917;fill-opacity:1;fill-rule:nonzero;stroke:none"
         d="m 10590.1,10147.1 c -129.2,0 -233.9,-104.7 -233.9,-233.9 0,-129.2 104.7,-233.9 233.9,-233.9 129.2,0 233.9,104.7 233.9,233.9 0,129.2 -104.7,233.9 -233.9,233.9" /><path
         id="path134"
         style="fill:#231917;fill-opacity:1;fill-rule:nonzero;stroke:none"
         d="m 10590.1,8927.8 c -129.2,0 -233.9,-104.7 -233.9,-233.9 0,-129.2 104.7,-233.9 233.9,-233.9 129.2,0 233.9,104.7 233.9,233.9 0,129.2 -104.7,233.9 -233.9,233.9" /></g></g></svg>