<svg
   xmlns="http://www.w3.org/2000/svg"
   viewBox="0 0 2829.3333 2829.3333"
   height="2829.3333"
   width="2829.3333"
   xmlSpace="preserve"
   id="svg2"
   version="1.1">
   <defs
     id="defs6" /><g
     transform="matrix(1.3333333,0,0,-1.3333333,0,2829.3333)"
     id="g10"><g
       transform="scale(0.1)"
       id="g12"><g
         transform="scale(1.18481)"
         id="g14"><path
           id="path16"
           style="fill:#741519;fill-opacity:1;fill-rule:nonzero;stroke:none"
           d="m 15403,9464.56 c -373,553.64 -834.4,1047.04 -1359.5,1459.04 -364.2,285.9 -846.9,665.8 -1330.4,809.3 -1.8,-2 -3.5,-4.2 -5.3,-6.2 -107.4,-117.1 -260.7,-187.5 -424.4,-187.5 -40.5,0 -81.6,4.3 -122.8,13.3 -115.7,25.2 -215.6,83.7 -291.9,163.1 -2,2 -3.7,4.2 -5.6,6.3 -70.9,-20.2 -141.1,-43.6 -209.5,-70.6 -39.2,-15.4 -78.2,-31.9 -116.6,-49.3 -27.2,-12.2 -54,-24.8 -80.6,-37.9 -128.8,-63.6 -253.8,-137.1 -375,-218.8 0.5,-2.6 1.1,-5.2 1.5,-7.7 h 0.1 c 23.1,-124.7 45.3,-250.7 62,-377.2 l -0.5,-3 c -29.3,-59 -57,-118.8 -83.2,-179.2 207,-72.6 408.1,-266.4 592.6,-466.3 65.8,-71.3 128.7,-150.6 169.7,-237.6 11.6,6.7 23.4,13.5 35.2,20.1 195.7,110.3 399.5,206.1 609.4,285.8 48.8,18.5 97.8,36.1 143.5,59.9 l 5.4,3.4 4.6,0.4 C 14339.6,9834.28 14859.5,7588.14 14954,5891.83 v -0.08 c 1.6,-41.02 2.5,-82.13 2.5,-123.06 -0.1,-814.05 -327.7,-1609.12 -877.6,-2184.57 -0.4,-0.34 -0.9,-0.68 -1.3,-1.01 1232.5,415.42 2099.1,1526.23 2209.4,2853.28 8.7,105.17 13,210.33 13,315.41 0,962.18 -357.3,1911.53 -897,2712.76" /></g><g
         transform="scale(1.08715)"
         id="g18"><path
           id="path20"
           style="fill:#510e16;fill-opacity:1;fill-rule:nonzero;stroke:none"
           d="m 16300,6286.88 c 0,44.61 -1,89.4 -2.8,134.11 v 0.09 c -102.9,1848.68 -669.5,4296.62 -2541.7,4961.02 l -5,-0.5 -5.9,-3.6 c -49.8,-26 -103.2,-45.2 -156.4,-65.4 -228.8,-86.8 -450.9,-191.3 -664.2,-311.4 l 5.3,0.2 c 94.7,-44.4 189.2,-89.4 283.3,-135 62.3,-30.2 156,-62.5 242.2,-103.3 86.2,-40.9 165.3,-90.1 198.5,-156.6 18.1,-36.6 32.7,-75.7 44.8,-116.6 396.3,-192.7 770,-431.4 1075.2,-713.91 330.4,-305.94 589.9,-706.71 654,-1153.2 9.3,-65.12 13.9,-131.17 13.9,-197.3 0,-387.53 -159.5,-778.92 -468.6,-1009.98 -164.8,-123.07 -304.8,-249.45 -522.8,-272.36 -32.1,-3.4 -64.2,-4.97 -96.4,-4.97 -132,0 -263.8,26.13 -391.4,59.43 -226.9,59.23 -456,141.37 -681.9,240.44 3.2,-5.98 6.3,-11.96 9.6,-18.03 43.6,-83.61 86.3,-167.41 127.5,-251.76 44.3,-91.06 91.8,-150.11 92.2,-217.45 0,-33.66 -12.5,-68.62 -42.7,-108.91 -78.6,-104.58 -249.2,-174.76 -378.9,-230.69 -56.8,-229.77 -128.7,-456.88 -210.2,-675.8 v 0 0 c -182.3,-489.63 -519.1,-930.87 -871.3,-1314.9 -80.3,-87.57 -164.9,-171.55 -252.9,-251.76 56.3,-291.77 97.6,-531.85 124.1,-693.56 0.5,-2.76 0.9,-5.14 1.2,-7.81 334,-55.01 676.6,-71.29 1018.7,-71.29 165.4,0 330.8,3.77 495,8.83 284.3,8.74 568.8,20.42 851.8,51.14 198,21.53 399.7,46.36 592.3,98.79 56.2,15.36 162.8,32.1 265,55.38 101.4,23.18 198.2,51.97 240.7,94.74 0.4,0.37 1,0.74 1.4,1.1 599.3,627.15 956.3,1493.63 956.4,2380.81" /></g><path
         id="path22"
         style="fill:#bf1b2c;fill-opacity:1;fill-rule:nonzero;stroke:none"
         d="m 10673.2,4209.4 2083.7,611.8 4.9,-0.7 2.9,-4.1 c 4.3,-21.7 8.2,-42.4 12.3,-63.5 0.2,-1.2 0.4,-2.2 0.7,-3.4 95.7,87.2 187.7,178.5 275,273.7 382.9,417.5 749,897.2 947.2,1429.5 v 0 l -3.3,-3.5 c -114.3,-53.6 -234,-92.6 -358.9,-124.3 -50,-12.7 -100.8,-24.1 -152.4,-34.9 -25.8,-5.4 -51.8,-10.6 -78,-15.7 v 0 C 12115,5983.7 10899.2,5753.2 9651.49,5753.2 c -521.39,0 -1048.4,40.3 -1588.86,133.2 -686.38,117 -1404.62,241.1 -2073.41,473.1 -44.6,15.4 -88.94,31.4 -133.09,47.8 5.49,-1.5 19.43,-17.1 33.79,-39.4 44.32,-67.3 105.72,-195.3 123.93,-226.9 49.13,-85.3 90.06,-168.4 149.76,-250.9 140.36,-193.9 288.84,-381.9 445.21,-563.2 312.66,-362.6 656.3,-698.5 1026.13,-1002.5 44.38,-36.5 89.95,-71.8 135.88,-106.7 l 13.1,2.7 1813.3,379.2 7.74,1.6 c 0.36,12 0.82,24 1.12,36.2 344.94,-155 691.21,-309.8 1048.71,-433.5 l 18.4,5.5" /><path
         id="path24"
         style="fill:#921825;fill-opacity:1;fill-rule:nonzero;stroke:none"
         d="m 5989.22,6359.5 c 668.79,-232 1387.03,-356.1 2073.41,-473.1 540.46,-92.9 1067.47,-133.2 1588.86,-133.2 1247.71,0 2463.51,230.5 3755.81,521.1 v 0 c 26.2,5.1 52.2,10.3 78,15.7 51.6,10.8 102.4,22.2 152.4,34.9 124.9,31.7 244.6,70.7 358.9,124.3 l 3.3,3.5 v 0 c 88.6,238 166.8,484.9 228.5,734.7 -0.9,-0.4 -1.9,-0.8 -2.8,-1.2 -22,-9.5 -43.1,-18.7 -62.4,-27.5 -1280.9,-584.3 -2694.9,-806.1 -4105.2,-806.1 -625.84,0 -1251.03,43.7 -1863.54,118.8 -209.35,25.6 -418.17,55.9 -626.16,90.7 -121.7,19 -239.21,21.9 -361.85,47.2 -9.55,2 -20.5,4.2 -29.71,11.4 -14.43,11.7 -17.39,30.1 -19.89,45.4 -31.05,200.1 -52.86,401.6 -65.35,603.7 -3.3,54.1 -20.62,126.2 -33.84,198.8 l -132.43,22.8 C 6764.67,7273.6 6597,7061 6421.22,6855.1 c -24.86,-29.1 -52.5,-60.5 -91.46,-71.9 -11.29,-3.3 -22.77,-4.7 -34.18,-4.7 -26.26,0.1 -52.36,7 -76.96,13.9 -205.18,57.7 -407.43,125.9 -605.87,203.6 -0.87,0.3 -1.74,0.7 -2.62,1.1 72.27,-199.8 153.09,-395.6 242.53,-586.6 l 3.47,-3.2 c 44.15,-16.4 88.49,-32.4 133.09,-47.8" /><g
         transform="scale(1.162)"
         id="g26"><path
           id="path28"
           style="fill:#f9ae78;fill-opacity:1;fill-rule:nonzero;stroke:none"
           d="m 3533.84,15092.6 c 17.59,6.4 71.52,25.7 109.03,25.8 13.99,-0.1 26.53,-2.5 33.99,-11.8 3.43,-4.3 5.23,-9.2 5.19,-14.1 -0.39,-13.5 -11.61,-23.2 -22.99,-32.3 -11.57,-8.8 -24.59,-16.9 -30.33,-22.9 -58.9,-60.3 -100.93,-148 -129.35,-227.2 -30.87,-85.7 -46.88,-177.1 -46.88,-268.3 0,-88.2 14.97,-176.2 45.96,-258.9 l -0.85,-5.3 -4.97,-1.9 c -46.48,7.2 -73.53,52.1 -92.78,91.4 -53.38,109.6 -94.87,229.4 -94.89,351.3 0,16.1 0.73,32.3 2.25,48.4 13.08,138.6 94.97,277.3 226.62,325.8 z M 2923.55,14839 c 32.05,48.5 67.9,94.7 107.69,137.2 22.84,24.4 46.94,47.6 72.33,69.3 13.88,11.8 94.66,73 153.42,103.4 19.68,10.1 36.54,17 49.37,17.1 7.79,0.4 16.04,-4 17.73,-12.4 h 0.02 l 0.78,-6.9 c -0.21,-15.9 -11.51,-28.6 -20.85,-38.8 -177.11,-189.5 -310.9,-414.9 -409.21,-655.9 89.74,-145.9 201.75,-265.1 381.44,-289.5 v 0 c 26.93,-2.9 53.53,-4.3 79.78,-4.3 342.9,-0.1 628.74,239.7 864.7,507.2 l 3.25,1 c -32.25,177.9 -49.22,361.5 -29.94,537.7 12.12,110.7 26.04,218.4 60.23,325.1 8.72,27.2 133.65,277 134.03,276.5 -54.97,71 -144.72,104.9 -231.65,127.2 -66.21,16.9 -142.25,27.5 -198,-12 -7.6,-5.4 -14.52,-11.5 -20.87,-18.2 -21.35,-22.6 -36.12,-51.5 -48.58,-80.3 -49.4,-114.4 -55.43,-234.2 -85.05,-352.8 -14.82,-59.4 -49.34,-232.3 -117.29,-252.7 -90.63,-27.3 -175.31,119.2 -219.25,176.8 -68.94,90.3 -128.17,187.4 -184.06,286.2 -108.99,192.5 -205.83,393.4 -340.27,570.3 -11.15,14.6 -23.06,29.5 -39.47,37.9 -23.27,11.9 -51.22,8.5 -76.69,2.7 -103.92,-23.7 -199.11,-84 -265.01,-167.7 -11.31,-14.3 -22.01,-30 -25.45,-47.9 -3.82,-20 1.88,-40.6 9.58,-59.5 24.85,-61 69.73,-111.3 112.28,-161.6 130.61,-154.5 246.65,-321.2 346.02,-497.4 22.11,-39.3 80.85,-133.1 22.17,-165.7 -28.05,-15.7 -62.72,0.3 -89.93,17.5 -107.48,67.5 -201.22,154.5 -294.26,240.9 -104.06,96.7 -217.71,188.9 -314.13,293.2 -59.55,64.4 -121.43,191.9 -224.38,188.2 -42.3,-1.5 -79.51,-28 -110.55,-56.7 -55.1,-51.1 -99.95,-113.1 -131.18,-181.5 -46.96,-102.6 19.43,-165.8 94.44,-234.9 224.64,-206.9 503.35,-347.2 731.66,-550 25.52,-22.7 51.84,-48.8 57.1,-82.5 4.05,-25.9 -5.23,-40.5 -22.83,-47.4 27.95,-52.3 54.97,-107.6 82.8,-162.7 33.1,77.8 71.39,153.3 118.08,223.9" /></g><g
         transform="scale(1.08427)"
         id="g30"><path
           id="path32"
           style="fill:#f68272;fill-opacity:1;fill-rule:nonzero;stroke:none"
           d="m 3394.99,14588.2 c 88.12,97.6 177.83,193.9 270.79,287 81.47,81.6 164.9,161.2 249.87,239.2 67.65,62 136.19,123 205.98,182.7 33.51,28.6 301.29,264.4 418.42,345.7 2.55,1.8 4.74,3.2 7.16,4.8 -4.73,22.3 -9.84,44.1 -13.91,66.4 l -4.13,4.5 -2.35,-0.7 -3.49,-1 c -252.87,-286.8 -559.21,-543.7 -926.69,-543.6 -28.13,0 -56.64,1.5 -85.5,4.6 v 0 c -192.57,26.2 -312.62,153.9 -408.78,310.2 105.35,258.3 248.73,499.9 438.54,703 10.01,10.9 22.12,24.5 22.35,41.6 l -0.84,7.3 -0.02,0.1 c -1.81,9 -10.65,13.6 -19,13.2 -13.76,-0.1 -31.82,-7.5 -52.92,-18.3 -62.97,-32.6 -149.54,-98.1 -164.41,-110.8 -27.21,-23.3 -53.04,-48.2 -77.52,-74.3 -42.64,-45.5 -81.06,-95 -115.4,-147 -50.04,-75.7 -91.08,-156.6 -126.55,-240 -29.83,59.1 -58.78,118.3 -88.74,174.4 -0.08,0.2 -0.13,0.3 -0.2,0.4 l -6.6,2.8 c -6.9,-1.9 -15.14,-2.8 -24.5,-2.8 -56.18,-0.2 -149.91,34 -234.41,71.3 -84.68,37.2 -160.55,77.1 -183.65,88.5 -164.66,80.9 -319.92,179.9 -479.88,270.7 -27.56,15.6 -59.37,31.8 -91.63,31.9 -10.47,0 -20.97,-1.7 -31.14,-5.9 -42.52,-17.4 -58.82,-65.2 -70.9,-105.8 -20.7,-70.5 -41.84,-142.9 -41.87,-217.4 l 0.11,-8.8 v 0.1 c 2.63,-106.9 93.01,-180 200.87,-233 108.08,-53 235.24,-86.4 315.22,-112.3 173.04,-55.9 350.93,-99.6 488.3,-221.9 -17.64,-25.8 -56.1,-32.6 -91.6,-34.6 -135.76,-7.9 -271.78,-11.9 -407.76,-11.9 -78.01,0 -155.99,1.3 -233.91,3.9 -5.08,0.2 -10.3,0.3 -15.57,0.3 -29.27,-0.1 -61.41,-3.6 -81.37,-27.6 -16.13,-19.7 -17.69,-45.7 -18.93,-68.7 -1.1,-21.7 -2.19,-43.8 -2.19,-65.8 0,-33.5 2.49,-67 11.45,-99.6 14.9,-54.1 50.64,-106.2 104.62,-125.8 18.6,-6.7 37.86,-9.1 57.17,-9.1 29.13,0 58.5,5.5 86.63,10.3 122.83,21 232.76,39.1 351.04,39.1 28.07,0 56.59,-1.1 85.92,-3.3 60.98,-4.7 122.12,-9.4 179.61,-27.6 74.67,-23.6 140.9,-68.9 206.3,-114.1 133.85,-92.4 267.77,-184.8 401.67,-277.2 1.45,1.6 2.87,3.2 4.34,4.9" /></g><g
         transform="scale(1.07776)"
         id="g34"><path
           id="path36"
           style="fill:#f68272;fill-opacity:1;fill-rule:nonzero;stroke:none"
           d="m 3563.29,15868.8 c 0.02,-131.5 44.75,-260.6 102.3,-378.8 20.75,-42.4 49.92,-90.7 100.04,-98.5 l 5.36,2 0.91,5.7 c -33.41,89.2 -49.55,184.1 -49.55,279.2 0,98.3 17.26,196.8 50.54,289.3 30.65,85.3 75.95,179.9 139.46,244.9 6.19,6.5 20.22,15.2 32.7,24.7 12.27,9.8 24.37,20.2 24.79,34.9 0.04,5.2 -1.9,10.5 -5.6,15.2 -8.04,9.9 -21.56,12.5 -36.64,12.6 -40.44,-0.1 -98.59,-20.8 -117.56,-27.7 -141.94,-52.3 -230.23,-201.9 -244.33,-351.3 -1.63,-17.4 -2.42,-34.8 -2.42,-52.2" /></g><path
         id="path38"
         style="fill:#ed1c24;fill-opacity:1;fill-rule:nonzero;stroke:none"
         d="m 5988.83,15820.6 c -216.4,-221 -433.47,-441.3 -651.22,-661 -115.19,-116.2 -230.94,-231.7 -346.52,-347.5 388.16,-646.3 854.99,-1249.6 1359.56,-1832.5 -0.86,21.2 -1.66,42.4 -1.66,63.6 0,24.7 0.59,49.3 1.78,74 8.29,172.7 45.89,346 116.56,519.6 169.88,417 457.08,774.1 731.09,1124.8 19.92,25.5 38.53,48.6 56.02,69.8 1.46,1.8 2.71,3.2 4.14,4.9 -169.65,149.3 -340.83,296.8 -511.97,444.1 -235.15,202.3 -470.31,404.7 -705.45,607 -0.83,-1.5 -1.28,-3.3 -2.15,-4.8 -13.2,-23 -32.06,-43.5 -50.18,-62" /><path
         id="path40"
         style="fill:#bf1b2c;fill-opacity:1;fill-rule:nonzero;stroke:none"
         d="m 6427.38,12543.4 c -42.85,138.8 -68.95,278.3 -76.27,418.5 -0.3,5.9 -0.21,11.8 -0.46,17.7 -504.57,582.9 -971.4,1186.2 -1359.56,1832.5 -1.16,-1.1 -2.32,-2.3 -3.49,-3.5 l -0.81,-0.8 c -74.93,-75 -149.57,-150.4 -224.67,-225.3 -109.21,-108.9 -213.43,-225.5 -327.68,-331.3 -1.44,-1.4 -2.97,-2.6 -4.41,-3.9 165.46,-168.7 357.93,-321.4 529.84,-475 476.45,-425.7 968.74,-832.6 1468.12,-1230.7 l -0.58,1.8 h -0.03" /><g
         transform="scale(1.04244)"
         id="g42"><path
           id="path44"
           style="fill:#f5eae5;fill-opacity:1;fill-rule:nonzero;stroke:none"
           d="m 4722.2,16270.4 c -121.83,-84.6 -400.35,-329.8 -435.21,-359.6 -72.58,-62 -143.88,-125.5 -214.24,-190 l 5.53,1.3 4.18,-3.9 c 177.53,-532.9 417.59,-1031.6 702.17,-1506 l -0.88,-7.3 0.78,0.8 c 1.12,1.1 2.23,2.2 3.35,3.4 110.87,111 221.91,221.8 332.41,333.3 208.88,210.7 417.11,422 624.7,634 17.38,17.8 35.47,37.4 48.14,59.5 0.83,1.5 1.27,3.2 2.06,4.7 8.16,15.3 14.02,31.7 14.02,49.8 v 1.9 c -1.08,42.9 -31.13,76.9 -58.33,106.1 -300.64,321.9 -623.89,622.7 -966.57,899.4 l -0.05,0.1 -6.61,2.1 c -6.43,-0.2 -13.04,-3.3 -22.33,-8.4 -7.24,-4 -16.07,-9.7 -25.67,-16.2 -2.52,-1.7 -4.79,-3.1 -7.45,-5" /></g><g
         transform="scale(1.00549)"
         id="g46"><path
           id="path48"
           style="fill:#e3c6c7;fill-opacity:1;fill-rule:nonzero;stroke:none"
           d="m 4736.13,14502.9 c 74.69,74.5 148.92,149.5 223.44,224.1 l 0.92,7.6 c -295.04,491.8 -543.92,1008.8 -727.98,1561.4 l -4.33,4 -5.74,-1.4 c -91.63,-84.1 -181.59,-169.9 -269.44,-257.9 -100.25,-100.5 -196.99,-204.3 -292.01,-309.5 -1.58,-1.8 -3.11,-3.6 -4.68,-5.3 -52.99,-58.7 -106.09,-117.3 -157.4,-177.6 -37.12,-43.6 -111.16,-113.9 -175.91,-190.3 -64.67,-76.6 -120.8,-159.1 -121.07,-230.8 0,-8.9 0.87,-17.7 2.79,-26.2 14.14,-63.2 58.96,-113 101.47,-158.9 285.31,-308 581.96,-605.6 889.01,-891.9 7.88,-7.2 17.38,-16.3 30.94,-17.2 l 1.79,-0.1 c 12.68,0.1 22.59,7.4 30.84,13.4 51.65,38.2 100.11,79.9 147.09,123.2 1.43,1.3 2.95,2.6 4.38,3.9 113.63,105.3 217.28,221.2 325.89,329.5" /></g><path
         id="path50"
         style="fill:#bf1b2c;fill-opacity:1;fill-rule:nonzero;stroke:none"
         d="m 12259.9,9397.2 c 16,257.1 48.4,513.2 98.4,765.9 12.8,64.4 25.4,131.7 39,199.6 -14.4,5.6 -28.7,11.4 -43,17.3 -62.7,-264 -103.8,-533.2 -121.8,-803.9 -0.2,-3.5 -0.5,-7.2 -1,-11 -1.3,-11.3 -4.2,-23.3 -13.5,-32.3 -8.2,-7.8 -18.6,-10.5 -28.6,-10.4 -12.9,0 -25.9,4 -37.1,8 l -122.7,44.6 c -22.2,8.1 -45.1,15.9 -66.8,15.9 -6.2,0 -12.4,-0.7 -18.4,-2.1 -18.5,-4.2 -35.3,-15.8 -51.8,-28.2 -56.7,-42.7 -109.4,-90.6 -157.3,-143 l -8.1,-0.9 c -60.4,42 -120.7,84.1 -181.1,126.1 -31.3,21.7 -62.5,43.5 -93.8,65.2 v 0 c -5.2,4.2 -5.2,9.3 -5.4,15 0.1,28.5 22.5,97.9 46,165.6 23.6,67.3 48.5,131.7 53.6,145.8 72.2,196.4 169.5,367.2 283.2,532.3 -238.8,-86.1 -492.5,-124.3 -743.5,-160.8 -345.9,-50.1 -767.9,-64.1 -1148.37,-158.5 31.77,-132.5 47.07,-266 47.07,-399 0,-156.7 -21.2,-312.5 -60.45,-465.1 86.85,-1.2 174.55,-1.9 263.35,-1.9 644.6,0 1338.4,33.6 2072.1,115.8" /><path
         id="path52"
         style="fill:#ed1c24;fill-opacity:1;fill-rule:nonzero;stroke:none"
         d="m 8495.17,9406.9 -1948.05,336.5 -14.98,-86.7 c 508.73,-109.5 1170.49,-223.4 1954.95,-296.6 l 8.08,46.8" /><path
         id="path54"
         style="fill:#ed1c24;fill-opacity:1;fill-rule:nonzero;stroke:none"
         d="m 5521.52,9917.7 c 143.59,-45 388.48,-116.5 722.25,-195.7 l 59.11,342.2 7.19,5 2517.71,-434.9 4.05,-2.5 1.02,-4.7 -50.47,-292.1 c 356.09,-27.4 735.06,-45.8 1134.36,-51.6 2.55,0 5.17,0 7.71,-0.1 39.25,152.6 60.45,308.4 60.45,465.1 0,133 -15.3,266.5 -47.07,399 -1.92,-0.5 -3.92,-0.8 -5.85,-1.3 -291.54,-73 -558.04,-193.6 -747.03,-414.2 l -5.9,-2.1 -4.71,4.2 c -0.11,0.3 -84.94,250.2 -84.98,470.5 0,7.4 0.53,14.6 0.73,21.9 -2.29,-10.6 -4.64,-21.7 -7.01,-33.7 -12.87,-65.2 -25.68,-149.2 -25.68,-223.7 0,-23.5 1.26,-46 4.19,-66.6 l -3.07,-6.3 -6.97,0.5 c -5.99,4.7 -12.03,9.4 -18.07,14.1 -409.11,321.1 -814.76,646.6 -1218.27,974.6 -124.53,101.3 -266.28,187 -381.73,299.4 h -0.03 c -178.32,163.7 -363.22,315.6 -526.9,493.8 -46.16,50.3 -92.52,100.8 -134.25,155.3 -112.25,146.6 -187.33,317 -261.17,485.1 -31.18,71 -57.72,142.3 -80.26,213.7 l -0.81,2.5 c -30.18,-53.8 -59.96,-107.9 -88.83,-162.4 -190.16,-358.7 -352.79,-730.3 -486.04,-1111 -153.03,-437.3 -266.94,-886.6 -340.48,-1341.8 2.35,-0.8 4.4,-1.4 6.81,-2.2" /><path
         id="path56"
         style="fill:#bf1b2c;fill-opacity:1;fill-rule:nonzero;stroke:none"
         d="m 6228.14,7896.8 562.79,-97.3 c -205.67,53.8 -388.99,109.7 -551.02,165.4 l -11.77,-68.1" /><path
         id="path58"
         style="fill:#bf1b2c;fill-opacity:1;fill-rule:nonzero;stroke:none"
         d="m 6218.62,6792.4 c 24.6,-6.9 50.7,-13.8 76.96,-13.9 11.41,0 22.89,1.4 34.18,4.7 38.96,11.4 66.6,42.8 91.46,71.9 175.78,205.9 343.45,418.5 504.01,636.3 l -3.77,0.7 -1025.93,177.2 -5.07,7.2 67.82,392.7 c -440.42,176.1 -673.38,334.5 -755.65,396.7 -1.48,1.1 -2.47,1.9 -3.85,3 -22.93,-54.4 -43.44,-109.3 -68.62,-156.1 -5.69,-10.6 -11.41,-21.2 -17.08,-31.8 -66.1,-123 -134.09,-245 -202.04,-367 -23.72,-42.7 -79.33,-119.8 -128.92,-201 -49.53,-81.3 -93.58,-166.3 -93.79,-228.6 0,-14.5 2.41,-27.9 8.06,-39.6 20.61,-41.7 91.4,-80.5 166.94,-116 75.47,-35.2 155.81,-65.5 193.15,-84.4 123.88,-62.5 249.75,-121.1 377.4,-175.5 58.35,-24.9 117.17,-48.7 176.25,-71.8 0.88,-0.4 1.75,-0.8 2.62,-1.1 198.44,-77.7 400.69,-145.9 605.87,-203.6" /><path
         id="path60"
         style="fill:#bf1b2c;fill-opacity:1;fill-rule:nonzero;stroke:none"
         d="m 14421.4,8093.1 c -35.1,15.5 -70.1,31.1 -105,47.4 -66.5,-34.4 -152.2,-75.6 -258.6,-120.8 -43.2,-18.3 -89.7,-37.3 -139.6,-56.7 -74.9,-29.1 -157.6,-59.3 -248.3,-89.8 -664.8,-223.7 -1759.5,-466.5 -3379.2,-466.5 -205.6,0 -419.67,3.9 -642.42,12.3 -430.67,16.2 -823.77,45.4 -1182.31,84.1 l -45.54,-263.6 -2.54,-4 -4.68,-1.1 -1351.31,233.4 -4.24,0.8 c 13.22,-72.6 30.54,-144.7 33.84,-198.8 12.49,-202.1 34.3,-403.6 65.35,-603.7 2.5,-15.3 5.46,-33.7 19.89,-45.4 9.21,-7.2 20.16,-9.4 29.71,-11.4 122.64,-25.3 240.15,-28.2 361.85,-47.2 207.99,-34.8 416.81,-65.1 626.16,-90.7 612.51,-75.1 1237.7,-118.8 1863.54,-118.8 1410.3,0 2824.3,221.8 4105.2,806.1 19.3,8.8 40.4,18 62.4,27.5 0.9,0.4 1.9,0.8 2.8,1.2 141.1,60.8 326.5,137.1 412,250.8 32.8,43.8 46.4,81.8 46.4,118.4 -0.4,73.2 -52.1,137.4 -100.2,236.4 -44.8,91.7 -91.3,182.8 -138.7,273.7 -3.5,6.6 -6.9,13.1 -10.4,19.6 -5.3,2.3 -10.7,4.4 -16.1,6.8" /><path
         id="path62"
         style="fill:#361016;fill-opacity:1;fill-rule:nonzero;stroke:none"
         d="m 5218.16,8993.1 c 130.77,-65.1 263.31,-125 399.01,-176.4 l 0.09,-0.1 c 146.88,-58.7 294.45,-111.4 442.59,-159.4 l 0.81,4.7 h -0.02 l 182,1053.5 1.13,6.6 c -333.77,79.2 -578.66,150.7 -722.25,195.7 -2.41,0.8 -4.46,1.4 -6.81,2.2 -93.17,29.3 -142.22,46.8 -142.37,46.9 l -5.02,-0.4 -3.11,-3.9 c -71.33,-279.9 -122.46,-668 -155.03,-974.3 l 3.21,4.8 5.77,0.1" /><path
         id="path64"
         style="fill:#361016;fill-opacity:1;fill-rule:nonzero;stroke:none"
         d="m 8486.1,9354.4 0.99,5.7 c -784.46,73.2 -1446.22,187.1 -1954.95,296.6 l -1.03,-5.9 -123.06,-712.6 703.72,-122.8 4.02,-2.5 1.05,-4.7 -42.71,-244.7 -2.56,-4 -4.65,-1.1 -703.29,122.8 -18.45,-106.9 -0.53,-3.1 C 6976.6,8394 7619.82,8301.7 8274.46,8255 c 7.1,-0.6 14.33,-1 21.51,-1.5 l 22.73,131.7 167.4,969.2" /><path
         id="path66"
         style="fill:#361016;fill-opacity:1;fill-rule:nonzero;stroke:none"
         d="M 8781.2,9328.1 8632.41,8466.5 8592.39,8235 c 401.69,-23.1 809.41,-37 1219.01,-37 716,0 1437.7,42.4 2142.7,152.5 417.6,65.2 829.2,154.3 1230.3,272.1 -174.8,84.4 -349.8,168.9 -524.7,253.4 -73.4,35.5 -160.9,64.6 -235.9,107.6 -74.9,43 -137.8,100.6 -159.7,192.6 -7.9,33.2 -10.2,67 -10.2,100.8 0,22.6 1,45.1 2.2,67.5 0.8,16 2.4,31.7 3.4,47.4 0.1,1.8 0.3,3.5 0.4,5.3 -733.7,-82.2 -1427.5,-115.8 -2072.1,-115.8 -88.8,0 -176.5,0.7 -263.35,1.9 -2.54,0.1 -5.16,0.1 -7.71,0.1 -399.3,5.8 -778.27,24.2 -1134.36,51.6 l -1.18,-6.9" /><path
         id="path68"
         style="fill:#250d12;fill-opacity:1;fill-rule:nonzero;stroke:none"
         d="m 5958.28,8069.2 0.85,5 99.46,575.8 1.26,7.2 c -148.14,48 -295.71,100.7 -442.59,159.4 l -0.09,0.1 c -135.7,51.4 -268.24,111.3 -399.01,176.4 l -5.77,-0.1 -3.21,-4.8 c -29.6,-278.3 -43.88,-489 -43.88,-489.1 l 2.1,-5.1 c 0.12,-0.1 10.6,-9.2 31.38,-25.1 1.38,-1.1 2.37,-1.9 3.85,-3 82.27,-62.2 315.23,-220.6 755.65,-396.7" /><path
         id="path70"
         style="fill:#250d12;fill-opacity:1;fill-rule:nonzero;stroke:none"
         d="m 9811.4,8198 c -409.6,0 -817.32,13.9 -1219.01,37 l -1.2,-6.9 -124.24,-719.3 -0.98,-5.7 c 358.54,-38.7 751.64,-67.9 1182.31,-84.1 222.75,-8.4 436.82,-12.3 642.42,-12.3 1619.7,0 2714.4,242.8 3379.2,466.5 90.7,30.5 173.4,60.7 248.3,89.8 49.9,19.4 96.4,38.4 139.6,56.7 106.4,45.2 192.1,86.4 258.6,120.8 -1,0.4 -1.9,0.8 -2.8,1.2 -233.3,109.1 -461.6,235.3 -680.1,374.4 -15.4,-5.5 -30.8,-10.3 -46.1,-13.2 -17.1,-3.4 -34.3,-4.9 -51.6,-4.9 -114.4,0.1 -230.1,66.1 -324.6,111.7 l -12,5.8 c -4.9,2.3 -9.9,4.7 -14.8,7.1 -401.1,-117.8 -812.7,-206.9 -1230.3,-272.1 -705,-110.1 -1426.7,-152.5 -2142.7,-152.5" /><path
         id="path72"
         style="fill:#250d12;fill-opacity:1;fill-rule:nonzero;stroke:none"
         d="m 6344.65,8571.2 -0.99,-5.6 -102.51,-593.5 -1.24,-7.2 c 162.03,-55.7 345.35,-111.6 551.02,-165.4 l 160.79,-27.7 1224.47,-211.5 118.83,687.7 0.95,5.5 c -7.18,0.5 -14.41,0.9 -21.51,1.5 -654.64,46.7 -1297.86,139 -1929.81,316.2" /><path
         id="path74"
         style="fill:#f68623;fill-opacity:1;fill-rule:nonzero;stroke:none"
         d="m 6063.86,8666.3 5.46,0.2 c 52.32,-23.1 106.13,-43.1 162.31,-58.1 35.96,-8.9 72.34,-18 108.89,-27 l 4.66,-7.1 18.45,106.9 703.29,-122.8 4.65,1.1 2.56,4 42.71,244.7 -1.05,4.7 -4.02,2.5 -703.72,122.8 123.06,712.6 1.03,5.9 14.98,86.7 1948.05,-336.5 -8.08,-46.8 -0.99,-5.7 -167.4,-969.2 4.91,5 c 102.03,20 202.35,47.6 300.52,83.3 l 6.13,-1.1 2.15,-5.9 148.79,861.6 1.18,6.9 50.47,292.1 -1.02,4.7 -4.05,2.5 -2517.71,434.9 -7.19,-5 -59.11,-342.2 -1.13,-6.6 -182,-1053.5 h 0.02 v 0 l 3.2,4.4" /><path
         id="path76"
         style="fill:#de6321;fill-opacity:1;fill-rule:nonzero;stroke:none"
         d="m 8413.21,7234.4 4.68,1.1 2.54,4 45.54,263.6 0.98,5.7 124.24,719.3 1.2,6.9 40.02,231.5 -2.15,5.9 -6.13,1.1 c -98.17,-35.7 -198.49,-63.3 -300.52,-83.3 l -4.91,-5 -22.73,-131.7 -0.95,-5.5 -118.83,-687.7 -1224.47,211.5 -160.79,27.7 -562.79,97.3 11.77,68.1 1.24,7.2 102.51,593.5 0.99,5.6 0.53,3.1 -4.66,7.1 c -36.55,9 -72.93,18.1 -108.89,27 -56.18,15 -109.99,35 -162.31,58.1 l -5.46,-0.2 -3.2,-4.4 v 0 l -0.81,-4.7 -1.26,-7.2 -99.46,-575.8 -0.85,-5 -67.82,-392.7 5.07,-7.2 1025.93,-177.2 3.77,-0.7 132.43,-22.8 4.24,-0.8 1351.31,-233.4" /><path
         id="path78"
         style="fill:#b38f94;fill-opacity:1;fill-rule:nonzero;stroke:none"
         d="m 14212.2,14935.4 c 38.2,-108.1 86.7,-214.6 151.6,-319 40,-64.6 86.1,-139 86.2,-213.7 0,-21 -3.7,-42 -12.4,-62.6 -39.4,-92.8 -151.3,-116.9 -251.5,-116.9 -12.5,0 -24.9,0.3 -36.9,1 -89.7,5.1 -179,18 -267,37.4 -1.4,0.3 -2.7,0.7 -4.1,1 19.2,-141.2 81.8,-272 177.4,-374.4 2.3,-2.4 4.3,-5.1 6.6,-7.5 90.5,-94 208.8,-163.3 345.9,-193.2 48.8,-10.6 97.5,-15.8 145.5,-15.8 193.9,0 375.6,83.5 502.8,222.3 2.2,2.3 4.2,4.8 6.3,7.2 75.5,84.7 131.5,188.8 157.3,307.5 10.7,48.9 15.8,97.8 15.8,146 0,313.8 -217.8,596.3 -537,665.9 -48.7,10.6 -97.2,15.7 -145,15.7 -123.1,0 -241.3,-33.9 -343.8,-93.9 0.8,-2.3 1.5,-4.7 2.3,-7" /><g
         transform="scale(1.15485)"
         id="g80"><path
           id="path82"
           style="fill:#ed1c24;fill-opacity:1;fill-rule:nonzero;stroke:none"
           d="m 8763.48,15641.2 c 341.87,0 683.04,-45.8 1003.95,-131 692.77,-187.2 1258.87,-650.8 1691.17,-1220.3 2.2,46 3.6,92 3.6,138.1 0,286.8 -40.7,573.6 -103.8,832.6 l 2.9,6.2 6.7,-1.7 c 277.4,-383.7 539.7,-789.9 730.4,-1223 l 0.2,-0.9 c -86.1,357.6 -230.9,699.3 -431.8,1003.2 -118.9,179.9 -255.6,346.5 -400,504.9 -272.1,298.6 -566.8,507.3 -950.3,628.3 -259.4,82 -531.41,122.4 -803.83,122.4 -115.6,0 -231.2,-7.3 -345.93,-21.7 -628.17,-79.3 -1226.36,-368.6 -1716.67,-785.2 -81.2,-69 -159.93,-141.9 -233.33,-219.8 l 1.35,1 c 465.46,253 1006.26,366.9 1545.39,366.9" /></g><g
         transform="scale(1.10817)"
         id="g84"><path
           id="path86"
           style="fill:#bf1b2c;fill-opacity:1;fill-rule:nonzero;stroke:none"
           d="m 7253.63,15562.3 c 107.44,84.9 258.21,109.6 392.25,138.5 321.22,68.9 652.85,103.4 986.13,103.4 89.74,0 179.56,-2.5 269.38,-7.5 143.15,-8 286.09,-22.1 428.22,-42.7 118.12,-17.2 227.22,-10.2 344.89,-44.6 418.3,-122.5 832.2,-262.5 1224.5,-449.4 283.9,-135.2 560.7,-286.7 814,-467.8 18,-12.8 36.3,-25.8 54.6,-38.8 186.6,-133.3 381.9,-280.1 382.2,-495.9 0,-38.9 -6.4,-80 -20.4,-123.4 -23,-71.3 -65.1,-134.7 -90.3,-203.3 -3.1,-8.6 -6,-17.2 -8.6,-26 -30.5,-99.5 -29.9,-207.1 -44,-312.3 -13.3,-98.5 -61.5,-210.9 -139.3,-292.5 91.2,-124.3 208.7,-228.8 344.1,-302.5 16.7,-9 32.8,-18.6 49.5,-26.5 l 3.2,-5.7 -2.4,-2.7 c 90.7,-39.5 185.2,-70.7 281.8,-92.2 1.3,-0.3 2.5,-0.7 3.7,-0.9 79.4,-17.5 160,-29.2 241,-33.8 10.8,-0.6 22,-0.9 33.3,-0.9 90.4,0.1 191.4,21.8 226.9,105.5 7.9,18.6 11.2,37.6 11.2,56.5 -0.1,67.4 -41.7,134.6 -77.8,192.9 -58.5,94.2 -102.3,190.3 -136.8,287.8 -0.7,2.1 -1.3,4.3 -2.1,6.4 -128.6,367.8 -120.1,756.8 -214.5,1148.7 l -0.3,0.9 c -198.7,451.4 -472.1,874.8 -761.2,1274.6 l -6.9,1.8 -3.1,-6.5 c 65.8,-269.9 108.2,-568.8 108.2,-867.6 0,-48.1 -1.4,-96.1 -3.7,-144 -450.6,593.5 -1040.5,1076.6 -1762.5,1271.7 -334.38,88.8 -689.92,136.5 -1046.19,136.5 -561.84,0 -1125.42,-118.7 -1610.49,-382.3 l -1.4,-1.1 c -97.47,-103.5 -185.89,-215.6 -258.78,-338.6 -3.26,-5.5 -6.23,-11 -9.28,-16.4 l 0.97,0.7 v 0" /></g><path
         id="path88"
         style="fill:#f68272;fill-opacity:1;fill-rule:nonzero;stroke:none"
         d="m 12630.9,14438.8 c 5.3,-2.2 10.7,-4.6 15.9,-8.6 l -3.8,-4.9 3.8,4.9 c 26.4,-20.3 35.7,-52.9 35.6,-85.4 0,-16.1 -2.2,-32.3 -5.9,-47.4 -11.4,-47.1 -34.2,-90.4 -64.5,-127.8 -10.7,-104.6 -24.8,-208.8 -44.5,-312.2 -5.2,-27.1 -11.7,-52.5 -19.2,-76.8 l 1.9,0.1 3.5,-4.9 c 0,-0.1 1.9,-15 4.1,-40.2 194.4,193.2 311.6,464.6 311.6,739 0,7.8 -0.1,15.6 -0.3,23.4 -1,39.5 -5.6,80.3 -16.1,118.3 -24.6,0.2 -49.9,2.1 -76.5,7.8 -51.9,11.2 -100.3,29.3 -146.4,51.8 0.6,-13 1.4,-26 1.7,-39.3 0.6,-27.2 0.9,-54.4 0.9,-81.6 0,-38.7 -0.6,-77.5 -1.8,-116.2" /><path
         id="path90"
         style="fill:#f3666e;fill-opacity:1;fill-rule:nonzero;stroke:none"
         d="m 12682.4,14344.8 c 0.1,32.5 -9.2,65.1 -35.6,85.4 l -3.8,-4.9 3.8,4.9 c -5.2,4 -10.6,6.4 -15.9,8.6 -0.1,-1.4 0,-2.8 -0.1,-4.3 -2.7,-88 -9.6,-175.7 -18.6,-263.2 -0.1,-0.5 -0.1,-1.1 -0.2,-1.7 30.3,37.4 53.1,80.7 64.5,127.8 3.7,15.1 5.9,31.3 5.9,47.4" /><path
         id="path92"
         style="fill:#f68272;fill-opacity:1;fill-rule:nonzero;stroke:none"
         d="m 7847.91,14886.7 c 29.24,119.3 65.19,236.9 106.19,352.6 -0.93,10.4 -1.43,20.8 -1.43,31.2 0,18.7 1.5,37.5 5.1,56.1 8.14,41.5 29.45,86.5 69.5,103.5 3.09,7.6 5.99,15.5 9.39,23.4 l 0.02,0.1 c 43.01,101.1 90.89,199.9 142.69,296.7 -29.68,13.3 -61.44,21.3 -92.97,21.3 -17.01,0 -33.96,-2.3 -50.42,-7.1 -79.17,-23.1 -132.52,-99 -169.7,-175.4 -68.2,-139.9 -102.02,-295.5 -102.02,-451.1 0,-116.5 19.15,-232.9 56.73,-343 l 10.86,2.1 c 3.16,29.1 8.47,58.7 16.06,89.6" /><path
         id="path94"
         style="fill:#f3666e;fill-opacity:1;fill-rule:nonzero;stroke:none"
         d="m 7957.77,15326.6 c -3.6,-18.6 -5.1,-37.4 -5.1,-56.1 0,-10.4 0.5,-20.8 1.43,-31.2 0.13,0.4 0.23,0.8 0.36,1.1 22.37,63.1 46.19,125.7 71.97,187.5 0.27,0.7 0.56,1.5 0.84,2.2 -40.05,-17 -61.36,-62 -69.5,-103.5" /><path
         id="path96"
         style="fill:#f68272;fill-opacity:1;fill-rule:nonzero;stroke:none"
         d="m 11873.1,14049.4 c 20.7,-2.8 41.5,-5.8 62.4,-10.4 31.8,-6.9 62.3,-16.1 92.3,-26.6 51.5,180.5 83.6,367.3 101.8,568 12,131.5 20.2,263.8 20.2,395.7 0,30.2 -0.5,60.3 -1.4,90.4 -99.5,88.2 -204.9,170.5 -314.8,247.6 14.9,-21.8 29.9,-43.5 44,-65.8 2.5,-3.9 5,-7.9 7.4,-12 7.3,-12.4 13.8,-25.7 15.9,-40.8 v 0 l 0.6,-9.6 -0.2,-7.5 c -0.1,-0.5 -0.3,-1 -0.4,-1.5 6,-2.1 11.9,-4.2 17.9,-6.2 39.6,-369 44.9,-759.5 -45.7,-1121.3" /><path
         id="path98"
         style="fill:#f68272;fill-opacity:1;fill-rule:nonzero;stroke:none"
         d="m 10154.3,15782.8 c -4.3,-22.5 -10.3,-46.1 -24.9,-65.5 -4.4,-5.7 -9.2,-10.7 -14.4,-15.2 -13.3,-11.4 -29,-19.4 -44.7,-26.3 290.3,-45.7 579.8,-112.8 864.9,-191.9 -17.3,19 -34,40 -40,66.3 v 0 c -1.7,7.5 -2.3,15 -2.3,22.5 0,16.2 3.2,32.3 7,47.5 7.4,30.2 16.6,60.6 27.9,90.3 v 0 0 c 8.4,21.6 18.5,42.4 29.3,62.6 -211.7,79 -430.6,140.8 -652.8,184 -47.2,9.1 -94.6,17.1 -142,24.6 3.3,-23.3 5.4,-47 5.4,-70.8 l -0.2,-13.4 v 0 0 c -1.1,-38.7 -6.1,-77.4 -13.2,-114.7" /><path
         id="path100"
         style="fill:#f68272;fill-opacity:1;fill-rule:nonzero;stroke:none"
         d="m 8674.73,15688.4 c 125.07,21.6 251.15,36 377.91,44 0,0.1 -0.01,0.3 -0.01,0.4 l -0.1,9.2 v 0 l -0.05,5.7 c 0,22.1 2.1,45.8 14.81,65.8 10.96,17.1 27.68,28.1 43.22,38.3 109.06,71 224.67,131.6 344.26,182.8 -210.57,-1.3 -420.42,-17 -627.09,-47.5 -55.75,-92.5 -104.6,-189 -148.55,-288.1 -1.48,-3.3 -2.92,-7 -4.4,-10.6" /><path
         id="path102"
         style="fill:#f9ae78;fill-opacity:1;fill-rule:nonzero;stroke:none"
         d="m 9280.6,15268.6 c 28.3,0 58.45,-3.3 90.56,-10.5 121.94,-27.5 192.5,-103.9 231.71,-190.1 39.28,-86.3 48.05,-182.4 48.05,-251.8 0,-57.3 -6,-96.4 -6.05,-96.7 l -6.48,-5.3 -5.89,6.1 c 0,0 -0.15,4.7 -1.07,13.5 -0.88,8.8 -2.49,21.5 -5.31,37 -5.65,30.9 -16.28,72.9 -36,117 -39.52,88.2 -114.79,184.3 -260.42,218.8 -39.37,9.2 -75.37,13.3 -108.26,13.3 -184.8,0 -272.25,-126.8 -291.2,-158.2 l -3.89,-6.9 -7.85,-2.9 -3.71,7.5 c 0.15,0.4 22.95,77.2 79.91,154.3 56.85,77.1 148.74,154.9 285.9,154.9 z m 468.78,-542.5 c 40.1,118.2 73.57,230.4 93.2,353.2 3.12,19.4 7.51,33.1 13.49,42.7 5.85,9.6 14.38,15.1 23.64,15 12.91,-0.2 24.51,-8.8 36.2,-20.8 11.69,-12.1 23.28,-28.3 34.2,-45.7 21.82,-34.9 40.73,-74.7 49.5,-96.2 9.29,-23 17.39,-47.5 17.39,-73.3 v -2.3 c -1.1,-45.2 -26.75,-84.5 -53.06,-118.6 -40.58,-52.4 -90.42,-103.3 -155.76,-122.6 -7.69,-2.3 -16.22,-3.9 -24.74,-3.9 -11.2,0 -23,3 -31.38,12.2 -7.06,7.7 -9.5,17.6 -9.45,27 0,11.6 3.36,23.2 6.77,33.3 z m 1271.92,-95.8 c 63,95.6 163.1,192.3 308.8,192.3 23.5,0 48.1,-2.5 73.9,-7.9 130.6,-27.4 204.8,-100.9 245.3,-181 40.7,-80.2 48.5,-166.8 48.5,-222.2 0,-35.4 -3.2,-58.1 -3.2,-58.3 l -6.5,-5.4 -5.9,6 c 0,0 -0.2,3.6 -1,10.4 -0.9,6.8 -2.4,16.7 -5.2,28.8 -5.5,24.1 -16,56.9 -35.5,91.5 -39.3,69.2 -114.6,145.7 -261.8,175.2 -27.6,5.5 -53.7,8 -78.6,8 -209.6,0.2 -326.5,-178.6 -352.2,-223.3 -3.7,-6.4 -5.5,-9.9 -5.5,-9.9 l -7.8,-3 -3.7,7.5 c 0.1,0.4 27.1,95.6 90.4,191.3 z m -122.2,221.7 c -35.4,-119.2 -53.8,-234.9 -68.9,-358.7 -2.4,-19 -6.8,-43.9 -28.5,-53.2 l -13.1,-2.6 c -15.9,0.2 -30.2,9.7 -41.1,19.4 -50.5,45.7 -73.4,113.1 -87.3,178 -4.7,22 -8.6,45.2 -8.6,68.3 0,21 3.3,41.9 12.2,61.4 11,24.2 29.5,43.5 48.3,60.7 15.6,14.2 45.3,38.3 76.5,59.1 31.6,20.6 63.8,38.3 87.9,38.6 8.1,0 15.9,-2.3 21.4,-8.3 5.4,-5.9 7.9,-14.4 7.9,-25 0,-10.1 -2.2,-22.4 -6.7,-37.7 z m -2225.91,832.7 v 0 c -46.38,-105.8 -87.79,-214 -126.19,-322.9 -62.24,-176.7 -108,-347.6 -136.91,-519.8 42.41,-2.3 85.12,-7.8 127.95,-17.2 340.62,-74.2 582.74,-353.3 627.93,-679.6 86.87,2.2 177.91,12 273.45,32.3 31.55,6.7 63.78,14.9 96.33,23.8 -13.41,39.2 -21.01,79.2 -21.01,119.4 0,22.5 2.29,45.1 7.21,67.6 15.21,69.5 52.18,130.5 105.14,180.6 l 4.87,1.7 4.48,-2.5 c 88.87,-123.2 270.7,-242.1 412.76,-286.7 l 0.4,-0.1 c 132.4,-49.4 291.8,-85.2 448,-85.2 124.7,0 247.2,22.8 352.7,79.3 l 5.3,0.3 3.6,-3.9 c 11,-35.4 16.8,-71.4 16.8,-107.4 0,-23.3 -2.4,-46.6 -7.5,-69.8 -10.9,-50.5 -34,-96.1 -65.7,-136.6 42.4,-38.3 84.9,-74 127.5,-105.6 v 0 c 62.2,-46.2 124.5,-84.8 186.6,-118.2 l 2.2,2.7 v 0 c 8.3,10.9 16.6,22.1 25.6,32.8 7.9,9.3 16.2,17.9 24.2,26.7 9,9.7 17.9,19.5 27.5,28.9 9,8.8 18.3,17 27.4,25.1 9.4,8.5 18.9,17 28.9,25.1 10,8.2 20.3,15.8 30.6,23.4 9.8,7.2 19.7,14.4 29.9,21.3 11,7.4 22.3,14.3 33.6,21.1 10.1,6 20.2,12 30.7,17.7 12,6.5 24.1,12.6 36.5,18.6 10.2,4.8 20.5,9.6 31,14.1 12.9,5.5 26,10.7 39.2,15.6 10.3,3.8 20.7,7.4 31.3,10.8 13.7,4.4 27.6,8.6 41.6,12.3 10.4,2.7 20.8,5.1 31.2,7.4 14.5,3.2 29.1,6.2 43.9,8.7 8.4,1.4 16.8,2.3 24.9,3.4 l 6.1,0.8 c 15.2,1.9 30.4,3.6 45.8,4.7 10.4,0.7 20.7,0.8 30.9,1.1 10.1,0.3 20.4,0.6 30.7,0.6 5.5,0 11,-0.1 16.5,-0.3 10.3,-0.3 20.6,-1.2 30.7,-1.9 16,-1.1 32,-2.2 48.2,-4.3 2.4,-0.3 4.8,-0.9 7.1,-1.2 90.6,361.8 85.3,752.3 45.7,1121.3 -6,2 -11.9,4.1 -17.9,6.2 -1.7,-18.6 -8.6,-36.3 -16.3,-52.5 -8.2,-17.2 -19.1,-41.3 -32.1,-65.9 -20.4,-38.8 -45.3,-79 -74.4,-96.6 -16.4,-9.7 -34.9,-13.6 -54.1,-13.6 -57.8,0.2 -122.6,34.2 -162.8,55.6 -225.3,120.3 -431.3,276.4 -608.1,460.7 l -9.3,9.8 -0.1,0.1 -2,2.2 v 0.1 c -2.2,2.3 -4.3,4.7 -6.5,7.1 -285.1,79.1 -574.6,146.2 -864.9,191.9 -2.9,-1.3 -5.8,-2.6 -8.7,-3.8 l -7.9,-3.4 h -0.2 l -12.5,-5 c -237.4,-94 -489.71,-150.2 -744.53,-165.8 -15.87,-0.9 -35.07,-2 -55.64,-2 -57.77,0.2 -126.67,7.9 -159.12,54.2 -23.77,35 -27.38,99.4 -28.64,150.2 -0.25,11.9 -0.34,22.5 -0.43,32.2 -126.76,-8 -252.84,-22.4 -377.91,-44 -0.53,-1.3 -0.98,-2.4 -1.54,-3.7" /><path
         id="path104"
         style="fill:#f5eae5;fill-opacity:1;fill-rule:nonzero;stroke:none"
         d="m 11694,12125 c 49.5,101.7 169.8,138 272.2,175.4 103.9,37.7 203.8,86.3 297.7,144.6 7.3,4.5 14.5,9.1 21.6,13.7 18.6,11.9 64.9,54.3 113.6,95.9 163.5,316 217.5,691.4 253.1,1065.4 v 0 c 0.1,11 0.6,21.9 0.6,32.6 l -101,65.9 -2.7,4.6 1.8,5.1 c 2.4,2.3 4.5,5 6.9,7.4 -2.2,25.2 -4.1,40.1 -4.1,40.2 l -3.5,4.9 -1.9,-0.1 c 7.5,24.3 14,49.7 19.2,76.8 19.7,103.4 33.8,207.6 44.5,312.2 0.1,0.6 0.1,1.2 0.2,1.7 9,87.5 15.9,175.2 18.6,263.2 0.1,1.5 0,2.9 0.1,4.3 1.2,38.7 1.8,77.5 1.8,116.2 0,27.2 -0.3,54.4 -0.9,81.6 l -4.4,-6.1 -7,2.5 c -18.3,27.5 -38.2,54.2 -58.8,80.5 -133.1,82 -245,199 -353.2,299.6 -18.9,17.5 -38.5,34.5 -57.9,51.7 -0.7,0.6 -1.4,1.1 -2.1,1.7 0.9,-30.1 1.4,-60.2 1.4,-90.4 0,-131.9 -8.2,-264.2 -20.2,-395.7 -18.2,-200.7 -50.3,-387.5 -101.8,-568 2.1,-0.7 4.3,-1.3 6.4,-2.1 l 3.9,-7.6 c -43.1,-149.3 -100.4,-294.3 -174.2,-438.7 l -5.2,-3.4 c -30.4,-2 -61.4,-3 -93,-3 -200.2,0 -423.4,42.2 -650,163 l -3.2,4.2 1.2,5.2 3.2,4.2 c -62.1,33.4 -124.4,72 -186.6,118.2 l 1.7,-8.1 c -90.2,-157.4 -246.7,-279.9 -409.3,-321.4 v 0 c 0,0 -0.1,0 -0.2,-0.1 0,0 0,0 0,0 v 0 c -21.9,-6.5 -44.5,-13.3 -67.4,-19.8 42.5,-88 99.2,-172.8 170.4,-255.3 264.9,-274.3 632.3,-452.9 998.1,-452.9 180.2,0.1 360.2,43.4 527.6,139.9 l 0.1,0.1 c 140.2,77.3 271.1,180.2 377.1,303 l 7.4,1.6 3.5,-6.7 c -59.8,-365.4 -249.1,-796 -794.2,-868.1 -83.7,-11.1 -163.1,-16.4 -238.4,-16.4 -654.3,-0.1 -998.5,395.8 -1176.4,769.7 -41.6,-16.3 -86.5,-21.1 -130.3,-22.1 -6.7,-0.2 -13.4,-0.3 -20.1,-0.3 -128,0 -255.76,28.2 -371.81,82 -45.31,21.1 -90.63,49.3 -123.13,87.3 -214.6,-181 -502.72,-340.7 -851.91,-340.7 -227.09,0 -479.66,67.6 -753.91,240 -39.44,24.8 -75.49,50.8 -108.4,78 -230.25,190.2 -305.86,434.7 -305.72,671.7 0,128.6 22.06,255.2 53.49,370.3 l 5.99,4.6 6.04,-4.5 c 45.27,-155.8 121.46,-303.9 216.72,-432.6 l 0.04,-0.1 c 224.6,-315.7 584.12,-458 955.71,-458 189.75,0 382.58,37.2 561.77,107.3 99.12,45.3 185.93,98.9 261.25,161.2 -18.14,15.5 -36,31.1 -53.19,46.3 h 0.03 c -130.55,105.4 -221.91,281.9 -238.37,462.6 l 4.92,6.6 c -95.54,-20.3 -186.58,-30.1 -273.45,-32.3 0.25,-2 0.7,-3.8 0.95,-5.7 l -1.45,-4.9 -4.58,-2.2 c -10.43,-0.2 -20.81,-0.3 -31.1,-0.3 -314.1,0 -570.12,104.9 -763.39,230.4 l -2.83,5 c -0.58,21.7 -0.88,43.3 -0.88,64.7 0,138.3 11.84,272.2 33.86,405.2 l 6.44,5.3 c 2.36,-0.1 4.73,-0.5 7.1,-0.7 28.91,172.2 74.67,343.1 136.91,519.8 38.4,108.9 79.81,217.1 126.19,322.9 v 0 c 0.56,1.3 1.01,2.4 1.54,3.7 1.48,3.6 2.92,7.3 4.4,10.6 l -4.29,-3.5 c -218.06,-50.6 -442.18,-127.1 -629.02,-249.6 l -7.41,0.4 -1.75,7.2 c 0,0 0.01,0.1 0.02,0.1 l -0.02,-0.1 c -3.4,-7.9 -6.3,-15.8 -9.39,-23.4 -0.28,-0.7 -0.57,-1.5 -0.84,-2.2 -25.78,-61.8 -49.6,-124.4 -71.97,-187.5 -0.13,-0.3 -0.23,-0.7 -0.36,-1.1 -41,-115.7 -76.95,-233.3 -106.19,-352.6 -7.59,-30.9 -12.9,-60.5 -16.06,-89.6 l -10.86,-2.1 c 0.57,-1.7 0.94,-3.5 1.54,-5.2 l -0.49,-5.1 -4.19,-3 -41.98,-8.3 c -12.94,-21.9 -25.26,-44.1 -37.48,-66.4 -2.92,-5.3 -6,-10.4 -8.72,-15.5 -5.36,-9.9 -10.24,-20.1 -15.59,-30.3 -179.2,-344.9 -266.31,-720.3 -266.31,-1094.9 0,-35.8 0.78,-71.6 2.38,-107.3 23.77,-536 225.29,-1064.3 589.92,-1492.9 l 0.1,-0.1 c 378.88,-463.1 1018.02,-745.6 1230.54,-1289.5 51.62,164.1 52.13,340.3 70.2,513.5 l 4.14,5.2 6.52,-1.5 c 95.46,-98.9 191.75,-199.4 207.21,-337.8 35.43,51.3 73.44,99.1 113.77,143.5 23.53,26 47.89,50.8 72.98,74.6 7.12,6.7 14.18,14 21.77,20.9 l 0.16,0.1 10.86,9.4 h 0.01 c 16.6,14.8 33.34,29.4 50.61,43.5 11.65,9.4 23.58,18.2 35.28,27.1 9.49,7.3 18.94,15 28.84,22.3 36,26.2 73.28,50.6 111.14,74.1 7.9,4.9 15.8,10.2 24.1,15.1 325.6,194.3 717,296.9 1097.2,415 l 8.7,2.8 c 105.7,32.9 210.6,67 312.9,104.7 5.3,2 10.7,4.2 16.2,6.2 47,17.6 93.5,35.8 139.2,55.1 v 0 l 13,5.7 c 29,12.4 57.7,25.5 86.1,38.9 -18.8,36.1 -30,74.6 -30,114.2 0,31.7 7,64 22.4,95.9" /><g
         transform="scale(1.0293)"
         id="g106"><path
           id="path108"
           style="fill:#e3c6c7;fill-opacity:1;fill-rule:nonzero;stroke:none"
           d="m 6325.77,11968.2 c 71.74,-163.3 144.68,-328.9 253.74,-471.3 40.54,-53 85.58,-102 130.42,-150.9 159.02,-173.1 338.66,-320.6 511.9,-479.7 h 0.03 c 112.17,-109.2 249.88,-192.5 370.87,-290.9 392.02,-318.6 786.12,-634.88 1183.58,-946.84 5.87,-4.57 11.74,-9.13 17.56,-13.7 l 6.77,-0.48 2.98,6.12 c -2.84,20.01 -4.07,41.87 -4.07,64.7 0,72.38 12.45,153.99 24.95,217.33 2.3,11.66 4.59,22.45 6.81,32.75 -0.19,-7.1 -0.71,-14.1 -0.71,-21.28 0.04,-214.03 82.46,-456.82 82.56,-457.11 l 4.58,-4.08 5.73,2.04 c 183.61,214.32 442.53,331.49 725.77,402.41 1.87,0.49 3.81,0.77 5.68,1.26 369.68,91.72 779.58,105.32 1115.68,153.98 243.8,35.5 490.3,72.6 722.3,156.2 3.4,5 6.5,10 9.9,15 25.7,36.8 52.1,73.3 79.3,109.9 -69.4,44.4 -131.4,98.4 -166.7,172.9 -22.9,48.3 -32.1,99.7 -32.1,151.9 0.1,95.9 30.7,194.9 63.8,285.7 55.8,153.1 111.6,311.9 173.5,469.4 -103.8,35.8 -200.7,108.1 -249.3,196.3 -1.1,1.9 -1.8,3.9 -2.8,5.9 -27.6,-13 -55.5,-25.7 -83.7,-37.8 l -12.6,-5.5 v 0 c -44.4,-18.8 -89.6,-36.5 -135.2,-53.5 -5.4,-2 -10.6,-4.1 -15.8,-6 -99.4,-36.7 -201.3,-69.8 -304,-101.8 l -8.4,-2.7 c -369.4,-114.7 -749.7,-214.4 -1065.99,-403.2 -8.06,-4.8 -15.73,-10 -23.41,-14.7 -36.78,-22.8 -73,-46.5 -107.97,-72 -9.63,-7.1 -18.81,-14.5 -28.03,-21.6 -11.36,-8.7 -22.95,-17.2 -34.27,-26.4 -16.78,-13.7 -33.04,-27.8 -49.17,-42.2 h -0.01 l -10.55,-9.2 h -0.16 c -7.37,-6.8 -14.23,-13.8 -21.15,-20.4 -24.37,-23.1 -48.04,-47.2 -70.9,-72.4 -39.18,-43.2 -76.11,-89.6 -110.53,-139.4 -15.02,134.4 -108.57,232.1 -201.31,328.1 l -6.34,1.5 -4.02,-5.1 c -17.55,-168.2 -18.05,-339.4 -68.2,-498.8 -206.47,528.4 -827.41,802.9 -1195.51,1252.8 l -0.1,0.1 c -354.24,416.4 -550.03,929.6 -573.12,1450.3 -1.56,34.7 -2.31,69.5 -2.31,104.2 0,364 84.62,728.8 258.73,1063.8 5.19,10 9.94,19.9 15.14,29.5 2.64,4.9 5.63,9.8 8.47,15 11.87,21.7 23.84,43.2 36.42,64.5 l 40.78,8.1 4.07,2.9 0.48,5 c -0.59,1.6 -0.95,3.4 -1.5,5 -36.51,107 -55.11,220.1 -55.11,333.3 0,151.2 32.85,302.3 99.11,438.2 36.12,74.2 87.96,148 164.87,170.4 15.99,4.7 32.46,6.9 48.99,6.9 30.63,0 61.48,-7.7 90.32,-20.7 -50.33,-94 -96.84,-190.1 -138.63,-288.3 -0.01,0 -0.02,0 -0.02,0 l 1.7,-7 7.2,-0.4 c 181.52,119 399.26,193.3 611.11,242.5 l 4.17,3.4 c 42.7,96.2 90.16,190 144.32,279.9 200.79,29.6 404.66,44.9 609.24,46.1 -116.19,-49.7 -228.5,-108.6 -334.46,-177.6 -15.1,-9.8 -31.34,-20.6 -41.99,-37.2 -12.35,-19.4 -14.39,-42.4 -14.39,-63.9 l 0.05,-5.6 v 0 l 0.1,-8.9 c 0,-0.1 0.01,-0.3 0.01,-0.4 0.09,-9.4 0.17,-19.7 0.42,-31.2 l 3.59,5.6 c 271.41,121.3 565.06,209.6 856.41,209.7 72.89,0 145.56,-5.6 217.65,-17.5 l 5.05,-6.2 v 0.1 l 0.19,12.9 c 0,23.2 -2.03,46.2 -5.24,68.9 46.05,-7.3 92.1,-15.1 138,-24 215.8,-41.9 428.5,-102 634.2,-178.7 -10.5,-19.7 -20.3,-39.8 -28.5,-60.8 v 0 l 3.3,3.4 h 4.8 c 331.7,-140.3 617.4,-397.8 888.9,-629.5 l 1.4,-7.4 c 12.6,23.9 23.2,47.3 31.2,64 7.4,15.8 14.2,32.9 15.8,51 0.1,0.5 0.3,1 0.4,1.5 l 0.2,7.3 -0.6,9.3 v 0 c -2,14.6 -8.4,27.6 -15.4,39.6 -2.4,4 -4.8,7.9 -7.2,11.7 -13.7,21.7 -28.3,42.8 -42.8,63.9 106.8,-74.9 209.2,-154.8 305.9,-240.5 0.6,-0.6 1.3,-1.1 2,-1.6 18.8,-16.8 37.9,-33.3 56.2,-50.3 105.2,-97.8 213.9,-211.4 343.2,-291 20,-25.6 39.3,-51.5 57.1,-78.3 l 6.8,-2.4 4.3,5.9 c -0.3,12.9 -1.1,25.6 -1.7,38.2 44.8,-21.8 91.9,-39.5 142.3,-50.3 25.8,-5.6 50.4,-7.4 74.3,-7.6 10.2,-36.9 14.7,-76.6 15.6,-114.9 0.2,-7.6 0.3,-15.2 0.3,-22.7 0,-266.6 -113.8,-530.3 -302.7,-718 -2.3,-2.3 -4.4,-5 -6.7,-7.3 l -1.7,-4.9 2.6,-4.4 98.1,-64.1 c 0,-10.4 -0.5,-20.9 -0.6,-31.6 v 0 c -34.6,-363.4 -87,-728.1 -245.9,-1035.1 0.3,0.3 0.7,0.6 1,0.9 37.2,31.6 75.8,62.5 106,79.6 12.3,11.5 24.8,22.4 37.1,32.7 26.6,21.9 53.2,40.9 79.8,57.2 l 7.8,-1.3 v -1.4 c 150.1,90.3 300.9,94.3 449,43.8 1.8,-0.6 3.8,-1.5 5.6,-2.1 30.2,69.5 62.1,138.3 95.8,206.2 l 0.6,3.5 c -19.2,145.6 -44.8,290.6 -71.4,434.2 h -0.1 c -0.5,2.9 -1.1,5.9 -1.7,8.9 -0.3,1.8 -0.7,3.7 -0.9,5.6 -5.4,28.2 -11.9,60.2 -35.8,80.6 v 1.9 c 0,126 -8.9,252.1 -27.6,376.7 161.9,6.2 320.2,76.2 433.2,192.1 l 1.6,5.6 -4,4.4 c -172,57 -323.7,172.2 -426.7,321.3 102.8,-70.3 227.1,-108.3 351.6,-108.3 43.8,0 87.6,4.6 130.5,14.2 l 2.1,2.4 2.5,2.8 -3.4,6.2 c -17.9,8.5 -35.3,18.8 -53.2,28.5 -145.8,79.4 -272.3,191.8 -370.6,325.7 83.8,87.8 135.7,208.8 150.1,314.9 15.1,113.2 14.5,229.2 47.3,336.3 2.8,9.4 5.9,18.7 9.3,27.9 27.1,73.9 72.5,142.1 97.2,218.9 15.1,46.8 22,91 22,132.9 -0.4,232.3 -210.6,390.3 -411.5,533.8 l 2.2,-2.9 c 36,-102.9 49.8,-214.1 49.8,-328 0,-213.5 -48.4,-436.1 -90.7,-629.7 l -3.5,-4.2 -5.5,0.3 c -733.3,436.2 -1382.6,1069.8 -2222.6,1272.5 v 0 c -350.5,76.4 -707.4,108.2 -1067.7,108.2 -366.68,0 -736.98,-32.9 -1107.91,-85.2 -123.65,-17.4 -247.36,-37 -371.03,-58.2 -59.98,-10 -127.24,-25.3 -185.55,-60.6 l -6.82,0.4 -2.11,6.5 c -26.71,-92 -65.66,-182.4 -94.96,-274.8 -20.93,-66.1 -43.18,-153.9 -43.18,-238.8 0,-47.7 7.34,-94.4 25.77,-135.9 -162.19,-90 -345.68,-141.9 -531.28,-144.1 l -5.69,-4.1 2.13,-6.8 c 106.83,-80.9 240.75,-124.3 374.6,-124.3 35.13,0 70.12,4 104.75,10.1 -130.44,-78.1 -282.24,-120.3 -434.24,-120.3 -29.87,0 -59.74,1.6 -89.41,4.9 l -5.42,-2.3 -0.95,-5.8 c 54.51,-152.5 169.38,-282 313.92,-355 -38.84,-59.6 -75.06,-120.9 -108.77,-183.6 -5.72,-0.9 -11.25,-3.6 -17.87,-8.2 -21.74,-15.5 -54.55,-50.9 -95.34,-100 -1.39,-1.6 -2.6,-3 -4.02,-4.7 -16.99,-20.6 -35.07,-43.1 -54.42,-67.8 -266.22,-340.8 -545.24,-687.7 -710.28,-1092.9 -68.66,-168.5 -105.19,-337 -113.25,-504.7 -1.15,-24 -1.73,-47.9 -1.73,-71.9 0,-20.6 0.78,-41.2 1.62,-61.8 0.24,-5.7 0.15,-11.5 0.44,-17.2 7.12,-136.2 32.48,-271.8 74.1,-406.5 l 0.03,-0.1 0.57,-1.8 2.01,-6.2 0.79,-2.5 c 21.89,-69.4 47.68,-138.6 77.97,-207.6" /></g><path
         id="path110"
         style="fill:#772439;fill-opacity:1;fill-rule:nonzero;stroke:none"
         d="m 9935.35,13517.1 c -12.33,-14.7 -25.58,-29.8 -39.02,-45 96.9,-52.6 206.67,-81.1 316.87,-81.1 3.7,0 7.4,0.1 11.1,0.2 -7.1,22.9 -13.9,45.5 -19.9,67.2 -46.6,169.5 -59.8,294.9 -61.6,313.6 -7.1,1.3 -14.2,2.5 -21.3,3.9 -8.8,-15.2 -72.4,-123.3 -186.15,-258.8" /><path
         id="path112"
         style="fill:#f68272;fill-opacity:1;fill-rule:nonzero;stroke:none"
         d="m 10297.6,13190.1 c -28.4,66.8 -51.8,131.9 -71,193.1 -0.8,2.7 -1.5,5.3 -2.3,8 -3.7,-0.1 -7.4,-0.2 -11.1,-0.2 -110.2,0 -219.97,28.5 -316.87,81.1 -1.88,-2.1 -3.54,-4.1 -5.41,-6.2 -57.35,-64.3 -124.53,-132.1 -201.42,-197.4 -1.48,-1.2 -3.06,-2.5 -4.54,-3.7 32.5,-38 77.82,-66.2 123.13,-87.3 116.05,-53.8 243.81,-82 371.81,-82 6.7,0 13.4,0.1 20.1,0.3 43.8,1 88.7,5.8 130.3,22.1 -0.8,1.7 -1.8,3.4 -2.6,5 -10.6,22.6 -20.6,45 -30.1,67.2" /><path
         id="path114"
         style="fill:#f3666e;fill-opacity:1;fill-rule:nonzero;stroke:none"
         d="m 11873.1,14049.4 c -2.3,0.3 -4.7,0.9 -7.1,1.2 -16.2,2.1 -32.2,3.2 -48.2,4.3 -10.1,0.7 -20.4,1.6 -30.7,1.9 -5.5,0.2 -11,0.3 -16.5,0.3 -10.3,0 -20.6,-0.3 -30.7,-0.6 -10.2,-0.3 -20.5,-0.4 -30.9,-1.1 -15.4,-1.1 -30.6,-2.8 -45.8,-4.7 l -6.1,-0.8 c -8.1,-1.1 -16.5,-2 -24.9,-3.4 -14.8,-2.5 -29.4,-5.5 -43.9,-8.7 -10.4,-2.3 -20.8,-4.7 -31.2,-7.4 -14,-3.7 -27.9,-7.9 -41.6,-12.3 -10.6,-3.4 -21,-7 -31.3,-10.8 -13.2,-4.9 -26.3,-10.1 -39.2,-15.6 -10.5,-4.5 -20.8,-9.3 -31,-14.1 -12.4,-6 -24.5,-12.1 -36.5,-18.6 -10.5,-5.7 -20.6,-11.7 -30.7,-17.7 -11.3,-6.8 -22.6,-13.7 -33.6,-21.1 -10.2,-6.9 -20.1,-14.1 -29.9,-21.3 -10.3,-7.6 -20.6,-15.2 -30.6,-23.4 -10,-8.1 -19.5,-16.6 -28.9,-25.1 -9.1,-8.1 -18.4,-16.3 -27.4,-25.1 -9.6,-9.4 -18.5,-19.2 -27.5,-28.9 -8,-8.8 -16.3,-17.4 -24.2,-26.7 -9,-10.7 -17.3,-21.9 -25.6,-32.8 v 0 l -2.2,-2.7 -3.2,-4.2 -1.2,-5.2 3.2,-4.2 c 226.6,-120.8 449.8,-163 650,-163 31.6,0 62.6,1 93,3 l 5.2,3.4 c 73.8,144.4 131.1,289.4 174.2,438.7 l -3.9,7.6 c -2.1,0.8 -4.3,1.4 -6.4,2.1 -30,10.5 -60.5,19.7 -92.3,26.6 -20.9,4.6 -41.7,7.6 -62.4,10.4" /><path
         id="path116"
         style="fill:#f3666e;fill-opacity:1;fill-rule:nonzero;stroke:none"
         d="m 8538.04,14824.8 c -42.83,9.4 -85.54,14.9 -127.95,17.2 -2.37,0.2 -4.74,0.6 -7.1,0.7 l -6.44,-5.3 c -22.02,-133 -33.86,-266.9 -33.86,-405.2 0,-21.4 0.3,-43 0.88,-64.7 l 2.83,-5 c 193.27,-125.5 449.29,-230.4 763.39,-230.4 10.29,0 20.67,0.1 31.1,0.3 l 4.58,2.2 1.45,4.9 c -0.25,1.9 -0.7,3.7 -0.95,5.7 -45.19,326.3 -287.31,605.4 -627.93,679.6" /><path
         id="path118"
         style="fill:#310c14;fill-opacity:1;fill-rule:nonzero;stroke:none"
         d="m 8994.7,15113.7 c -56.96,-77.1 -79.76,-153.9 -79.91,-154.3 l 3.71,-7.5 7.85,2.9 3.89,6.9 c 18.95,31.4 106.4,158.2 291.2,158.2 32.89,0 68.89,-4.1 108.26,-13.3 145.63,-34.5 220.9,-130.6 260.42,-218.8 19.72,-44.1 30.35,-86.1 36,-117 2.82,-15.5 4.43,-28.2 5.31,-37 0.92,-8.8 1.07,-13.5 1.07,-13.5 l 5.89,-6.1 6.48,5.3 c 0.05,0.3 6.05,39.4 6.05,96.7 0,69.4 -8.77,165.5 -48.05,251.8 -39.21,86.2 -109.77,162.6 -231.71,190.1 -32.11,7.2 -62.26,10.5 -90.56,10.5 -137.16,0 -229.05,-77.8 -285.9,-154.9" /><path
         id="path120"
         style="fill:#310c14;fill-opacity:1;fill-rule:nonzero;stroke:none"
         d="m 10934.6,14431.5 7.8,3 c 0,0 1.8,3.5 5.5,9.9 25.7,44.7 142.6,223.5 352.2,223.3 24.9,0 51,-2.5 78.6,-8 147.2,-29.5 222.5,-106 261.8,-175.2 19.5,-34.6 30,-67.4 35.5,-91.5 2.8,-12.1 4.3,-22 5.2,-28.8 0.8,-6.8 1,-10.4 1,-10.4 l 5.9,-6 6.5,5.4 c 0,0.2 3.2,22.9 3.2,58.3 0,55.4 -7.8,142 -48.5,222.2 -40.5,80.1 -114.7,153.6 -245.3,181 -25.8,5.4 -50.4,7.9 -73.9,7.9 -145.7,0 -245.8,-96.7 -308.8,-192.3 -63.3,-95.7 -90.3,-190.9 -90.4,-191.3 l 3.7,-7.5" /><path
         id="path122"
         style="fill:#e3c6c7;fill-opacity:1;fill-rule:nonzero;stroke:none"
         d="m 10802.8,13958 c -1.3,-1.6 -2.3,-3.3 -3.6,-4.9 -24.9,-30.9 -55.1,-58.8 -90,-83 -103.7,-71.8 -246.6,-112.3 -404.9,-112.3 -21.4,0 -43,0.7 -64.7,2.2 -29,2 -58.3,5.7 -87.8,10.4 -3,0.5 -6,1.1 -9,1.6 1.8,-18.7 15,-144.1 61.6,-313.6 6,-21.7 12.8,-44.3 19.9,-67.2 0.8,-2.7 1.5,-5.3 2.3,-8 19.2,-61.2 42.6,-126.3 71,-193.1 9.5,-22.2 19.5,-44.6 30.1,-67.2 0.8,-1.6 1.8,-3.3 2.6,-5 177.9,-373.9 522.1,-769.8 1176.4,-769.7 75.3,0 154.7,5.3 238.4,16.4 545.1,72.1 734.4,502.7 794.2,868.1 l -3.5,6.7 -7.4,-1.6 c -106,-122.8 -236.9,-225.7 -377.1,-303 l -0.1,-0.1 c -167.4,-96.5 -347.4,-139.8 -527.6,-139.9 -365.8,0 -733.2,178.6 -998.1,452.9 -71.2,82.5 -127.9,167.3 -170.4,255.3 22.9,6.5 45.5,13.3 67.4,19.8 v 0 c 0,0 0,0 0,0 0.1,0.1 0.2,0.1 0.2,0.1 v 0 c 162.6,41.5 319.1,164 409.3,321.4 l -1.7,8.1 v 0 c -42.6,31.6 -85.1,67.3 -127.5,105.6" /><path
         id="path124"
         style="fill:#e3c6c7;fill-opacity:1;fill-rule:nonzero;stroke:none"
         d="m 9890.92,13465.9 c 1.87,2.1 3.53,4.1 5.41,6.2 13.44,15.2 26.69,30.3 39.02,45 113.75,135.5 177.35,243.6 186.15,258.8 -2,0.4 -4,0.7 -5.9,1 -6.7,1.3 -13.6,2.2 -20.8,3.8 -68.9,15 -133.78,36.6 -193.46,63.3 -20.62,9.3 -40.61,19.1 -59.93,29.6 -135.26,73 -237.6,173.9 -289.45,284.5 v 0.1 0 c -5.74,12.3 -9.79,24.6 -14.13,36.6 -0.78,2.1 -1.34,4.3 -2.08,6.5 -32.55,-8.9 -64.78,-17.1 -96.33,-23.8 l -4.92,-6.6 c 16.46,-180.7 107.82,-357.2 238.37,-462.6 h -0.03 c 17.19,-15.2 35.05,-30.8 53.19,-46.3 -75.32,-62.3 -162.13,-115.9 -261.25,-161.2 -179.19,-70.1 -372.02,-107.3 -561.77,-107.3 -371.59,0 -731.11,142.3 -955.71,458 l -0.04,0.1 c -95.26,128.7 -171.45,276.8 -216.72,432.6 l -6.04,4.5 -5.99,-4.6 c -31.43,-115.1 -53.49,-241.7 -53.49,-370.3 -0.14,-237 75.47,-481.5 305.72,-671.7 32.91,-27.2 68.96,-53.2 108.4,-78 274.25,-172.4 526.82,-240 753.91,-240 349.19,0 637.31,159.7 851.91,340.7 1.48,1.2 3.06,2.5 4.54,3.7 76.89,65.3 144.07,133.1 201.42,197.4" /><path
         id="path126"
         style="fill:#310c14;fill-opacity:1;fill-rule:nonzero;stroke:none"
         d="m 10587.4,13882.4 c -125,0 -241.7,-45.7 -343.7,-121.2 l -4.1,-1.2 c 21.7,-1.5 43.3,-2.2 64.7,-2.2 158.3,0 301.2,40.5 404.9,112.3 l -5,-1 c -39.6,9.1 -78.6,13.3 -116.8,13.3" /><path
         id="path128"
         style="fill:#310c14;fill-opacity:1;fill-rule:nonzero;stroke:none"
         d="m 9555.96,14154.8 -4,3.4 v -0.1 c 51.85,-110.6 154.19,-211.5 289.45,-284.5 19.32,-10.5 39.31,-20.3 59.93,-29.6 l -3.36,3.8 c -51.2,152.9 -183.63,263.8 -342.02,307" /><path
         id="path130"
         style="fill:#f68272;fill-opacity:1;fill-rule:nonzero;stroke:none"
         d="m 9537.83,14194.8 c 4.34,-12 8.39,-24.3 14.13,-36.6 v 0 l 4,-3.4 c 158.39,-43.2 290.82,-154.1 342.02,-307 l 3.36,-3.8 c 59.68,-26.7 124.56,-48.3 193.46,-63.3 7.2,-1.6 14.1,-2.5 20.8,-3.8 1.9,-0.3 3.9,-0.6 5.9,-1 7.1,-1.4 14.2,-2.6 21.3,-3.9 3,-0.5 6,-1.1 9,-1.6 29.5,-4.7 58.8,-8.4 87.8,-10.4 l 4.1,1.2 c 102,75.5 218.7,121.2 343.7,121.2 38.2,0 77.2,-4.2 116.8,-13.3 l 5,1 c 34.9,24.2 65.1,52.1 90,83 1.3,1.6 2.3,3.3 3.6,4.9 31.7,40.5 54.8,86.1 65.7,136.6 5.1,23.2 7.5,46.5 7.5,69.8 0,36 -5.8,72 -16.8,107.4 l -3.6,3.9 -5.3,-0.3 c -105.5,-56.5 -228,-79.3 -352.7,-79.3 -156.2,0 -315.6,35.8 -448,85.2 l -0.4,0.1 c -142.06,44.6 -323.89,163.5 -412.76,286.7 l -4.48,2.5 -4.87,-1.7 c -52.96,-50.1 -89.93,-111.1 -105.14,-180.6 -4.92,-22.5 -7.21,-45.1 -7.21,-67.6 0,-40.2 7.6,-80.2 21.01,-119.4 0.74,-2.2 1.3,-4.4 2.08,-6.5" /><path
         id="path132"
         style="fill:#f5eae5;fill-opacity:1;fill-rule:nonzero;stroke:none"
         d="m 9240.83,15495.8 c 20.57,0 39.77,1.1 55.64,2 254.82,15.6 507.13,71.8 744.53,165.8 l 12.5,5 h 0.2 l 7.9,3.4 c 2.9,1.2 5.8,2.5 8.7,3.8 15.7,6.9 31.4,14.9 44.7,26.3 5.2,4.5 10,9.5 14.4,15.2 14.6,19.4 20.6,43 24.9,65.5 7.1,37.3 12.1,76 13.2,114.7 v 0 l -5.2,6.4 c -74.2,12.2 -149,17.9 -224.03,17.9 -299.88,0 -602.14,-90.9 -881.5,-215.7 l -3.7,-5.9 c 1.26,-50.8 4.87,-115.2 28.64,-150.2 32.45,-46.3 101.35,-54 159.12,-54.2" /><path
         id="path134"
         style="fill:#f5eae5;fill-opacity:1;fill-rule:nonzero;stroke:none"
         d="m 10899.9,15620.2 c -3.8,-15.2 -7,-31.3 -7,-47.5 0,-7.5 0.6,-15 2.3,-22.5 v 0 c 6,-26.3 22.7,-47.3 40,-66.3 2.2,-2.4 4.3,-4.8 6.5,-7.1 v -0.1 l 2,-2.2 0.1,-0.1 9.3,-9.8 c 176.8,-184.3 382.8,-340.4 608.1,-460.7 40.2,-21.4 105,-55.4 162.8,-55.6 19.2,0 37.7,3.9 54.1,13.6 29.1,17.6 54,57.8 74.4,96.6 l -1.4,7.6 c -279.5,238.5 -573.6,503.6 -915,647.9 h -4.9 l -3.4,-3.5 v 0 c -11.3,-29.7 -20.5,-60.1 -27.9,-90.3" /><g
         transform="scale(1.07446)"
         id="g136"><path
           id="path138"
           style="fill:#f5eae5;fill-opacity:1;fill-rule:nonzero;stroke:none"
           d="m 7344.57,15419.5 c 55.86,33.8 120.3,48.5 177.76,58.1 118.47,20.3 236.98,39 355.43,55.7 355.34,50.1 710.08,81.6 1061.35,81.6 345.16,0 687.02,-30.4 1022.81,-103.6 v -0.1 c 804.68,-194.1 1426.78,-801.1 2129.18,-1218.9 l 5.3,-0.4 3.3,4.1 c 40.5,185.4 87,398.7 87,603.3 0,109 -13.3,215.6 -47.8,314.1 l -2.1,2.8 c -18.9,13.5 -37.7,26.9 -56.3,40.1 -261.3,186.8 -546.7,343 -839.5,482.5 -404.7,192.7 -831.5,337.1 -1262.98,463.4 -121.36,35.5 -233.88,28.3 -355.71,46 -146.59,21.3 -294.01,35.9 -441.65,44.1 -92.64,5.1 -185.28,7.7 -277.83,7.7 -343.74,0 -685.77,-35.5 -1017.07,-106.7 -138.25,-29.7 -293.74,-55.1 -404.55,-142.8 h -0.01 l -1,-0.7 -5.66,-4.1 -0.32,-0.2 c -96.95,-80.4 -111.73,-185.3 -111.64,-293 0,-47.4 2.81,-95.6 2.81,-143 v -1.4 c -0.04,-62.1 -12.06,-122.3 -29.37,-182 l 2.03,-6.2 6.52,-0.4" /></g><path
         id="path140"
         style="fill:#f68272;fill-opacity:1;fill-rule:nonzero;stroke:none"
         d="m 9783.44,14653.6 c 8.52,0 17.05,1.6 24.74,3.9 65.34,19.3 115.18,70.2 155.76,122.6 26.31,34.1 51.96,73.4 53.06,118.6 v 2.3 c 0,25.8 -8.1,50.3 -17.39,73.3 -8.77,21.5 -27.68,61.3 -49.5,96.2 -10.92,17.4 -22.51,33.6 -34.2,45.7 -11.69,12 -23.29,20.6 -36.2,20.8 -9.26,0.1 -17.79,-5.4 -23.64,-15 -5.98,-9.6 -10.37,-23.3 -13.49,-42.7 -19.63,-122.8 -53.1,-235 -93.2,-353.2 -3.41,-10.1 -6.77,-21.7 -6.77,-33.3 -0.05,-9.4 2.39,-19.3 9.45,-27 8.38,-9.2 20.18,-12.2 31.38,-12.2" /><path
         id="path142"
         style="fill:#f68272;fill-opacity:1;fill-rule:nonzero;stroke:none"
         d="m 10876.5,14923 c -24.1,-0.3 -56.3,-18 -87.9,-38.6 -31.2,-20.8 -60.9,-44.9 -76.5,-59.1 -18.8,-17.2 -37.3,-36.5 -48.3,-60.7 -8.9,-19.5 -12.2,-40.4 -12.2,-61.4 0,-23.1 3.9,-46.3 8.6,-68.3 13.9,-64.9 36.8,-132.3 87.3,-178 10.9,-9.7 25.2,-19.2 41.1,-19.4 l 13.1,2.6 c 21.7,9.3 26.1,34.2 28.5,53.2 15.1,123.8 33.5,239.5 68.9,358.7 4.5,15.3 6.7,27.6 6.7,37.7 0,10.6 -2.5,19.1 -7.9,25 -5.5,6 -13.3,8.3 -21.4,8.3" /><path
         id="path144"
         style="fill:#250d12;fill-opacity:1;fill-rule:nonzero;stroke:none"
         d="m 9597.23,4599.6 -1813.3,-379.2 -13.1,-2.7 -69.62,-14.6 -4.14,-3 -0.54,-5 297.69,-901.8 -944.98,134.4 -5.05,-1.5 -2.07,-4.9 30.38,-922.5 v -208 l 1.87,-4.5 4.51,-1.8 2537.59,56.8 4.39,2 1.7,4.4 -30.6,1151.4 50.58,8.2 5.2,6.2 c 0,0 0.11,13.2 0.11,38.4 0,119.5 -2.05,508.9 -25.29,1045.6 l -2.43,4.6 -5.07,1.2 -10.09,-2.1 -7.74,-1.6" /><path
         id="path146"
         style="fill:#250d12;fill-opacity:1;fill-rule:nonzero;stroke:none"
         d="m 12912.7,3995.5 c -28.8,175.8 -73.8,436.8 -135,754 -0.3,1.2 -0.5,2.2 -0.7,3.4 -4.1,21.1 -8,41.8 -12.3,63.5 l -2.9,4.1 -4.9,0.7 -2083.7,-611.8 -18.4,-5.5 -16.8,-4.9 -3.9,-3.5 0.1,-5.3 451.7,-892.5 7,-3.2 191.8,46.2 34.7,-961.3 6.2,-6 2668.4,-1.3 4.4,1.8 1.9,4.4 V 3502 l -2.3,4.7 -5.1,1.4 -898.2,-154 -169,382.2 21,5 4.7,7 c -0.1,0 -12.6,86.9 -37.4,238.7 -0.4,2.9 -0.8,5.5 -1.3,8.5" /><g
         transform="scale(1.02988)"
         id="g148"><path
           id="path150"
           style="fill:#921825;fill-opacity:1;fill-rule:nonzero;stroke:none"
           d="m 14506.3,10705.5 c 0,-238.6 -44.5,-487.1 -87.2,-678.8 -39.3,-176.6 -91.3,-351.18 -166.4,-516.15 -83.3,-182.93 -194,-351.4 -304,-518.8 -98.3,-149.53 -197.9,-300.91 -323.1,-430.73 -35.1,-36.51 -79.2,-80.2 -128,-123.12 -19.8,-17.38 -40.3,-34.67 -61.2,-51.17 -63.1,-49.72 -130.5,-93.32 -195.5,-116.71 -1,-0.39 -1.9,-0.68 -2.9,-0.98 212.1,-135.06 433.8,-257.6 660.4,-363.54 0.8,-0.38 1.7,-0.77 2.7,-1.16 33.9,-15.83 67.8,-30.97 101.9,-46.02 5.3,-2.34 10.5,-4.37 15.7,-6.61 238.4,-104.57 480.3,-191.28 719.8,-253.81 134.7,-35.16 273.8,-62.73 413.1,-62.73 34,0 67.9,1.65 101.8,5.24 230.1,24.18 377.9,157.59 551.9,287.51 326.3,243.92 494.7,657.07 494.7,1066.15 0,69.81 -4.9,139.53 -14.8,208.28 -67.6,471.31 -341.6,894.38 -690.3,1217.35 -322.2,298.2 -716.6,550.1 -1135,753.6 0.3,-0.8 0.6,-1.7 0.9,-2.5 32.7,-112.1 45.5,-237.3 45.5,-365.3" /></g><path
         id="path152"
         style="fill:#e3c6c7;fill-opacity:1;fill-rule:nonzero;stroke:none"
         d="m 14063.2,11734.2 c 10.3,-174.3 -75.7,-338.3 -163.7,-489.1 -140.7,-241.1 -299.9,-515 -506.9,-709.3 l 1.4,-6.9 c -169.9,-312.5 -360.2,-613.4 -591.6,-883.1 -41,-47.7 -86.2,-97.1 -147.2,-119 -15.6,-5.6 -30.3,-8.3 -44.2,-8.3 -16.4,0 -31.7,3.8 -45.5,11.1 -51.3,27.2 -82.3,97.7 -101.7,188.8 -19.3,91.2 -26.5,203.5 -26.5,315.3 0,110.7 7.1,220.5 16.4,308.5 -17.1,5.9 -34.4,12 -51.5,18.5 -1.6,0.6 -3.2,1.3 -4.9,2 -13.6,-67.9 -26.2,-135.2 -39,-199.6 -50,-252.7 -82.4,-508.8 -98.4,-765.9 -0.1,-1.8 -0.3,-3.5 -0.4,-5.3 -1,-15.7 -2.6,-31.4 -3.4,-47.4 -1.2,-22.4 -2.2,-44.9 -2.2,-67.5 0,-33.8 2.3,-67.6 10.2,-100.8 21.9,-92 84.8,-149.6 159.7,-192.6 75,-43 162.5,-72.1 235.9,-107.6 174.9,-84.5 349.9,-169 524.7,-253.4 4.9,-2.4 9.9,-4.8 14.8,-7.1 l 12,-5.8 c 94.5,-45.6 210.2,-111.6 324.6,-111.7 17.3,0 34.5,1.5 51.6,4.9 15.3,2.9 30.7,7.7 46.1,13.2 1,0.3 2,0.6 3,1 66.9,24.1 136.4,69 201.3,120.2 21.6,17 42.7,34.8 63.1,52.7 50.2,44.2 95.6,89.2 131.8,126.8 128.9,133.7 231.5,289.6 332.7,443.6 113.3,172.4 227.3,345.9 313.1,534.3 77.4,169.9 130.9,349.7 171.4,531.6 44,197.4 89.8,453.3 89.8,699.1 0,131.8 -13.2,260.7 -46.9,376.1 -0.3,0.9 -0.6,1.8 -0.9,2.7 -13.1,44.4 -29,86.9 -48.7,126.7 -36.1,72.3 -122.1,125.8 -215.8,170.3 -93.7,44.3 -195.5,79.4 -263.3,112.2 -102.3,49.7 -205,98.5 -308,146.8 l -5.7,-0.2 c -14,-7.9 -27.9,-15.9 -41.7,-23.9 0.8,-1.8 2,-3.6 2.9,-5.5 28.6,-62.1 47.5,-127.5 51.6,-196.4" /><path
         id="path154"
         style="fill:#510e16;fill-opacity:1;fill-rule:nonzero;stroke:none"
         d="m 13160.8,10361.2 c -106.6,-54.5 -224.4,-86.6 -355.7,-86.6 -56.2,0 -114.9,5.9 -176.2,18.4 -58.2,11.8 -114.8,28.3 -170.6,47.5 -1.5,0.6 -3,1.2 -4.6,1.7 -9.3,-88 -16.4,-197.8 -16.4,-308.5 0,-111.8 7.2,-224.1 26.5,-315.3 19.4,-91.1 50.4,-161.6 101.7,-188.8 13.8,-7.3 29.1,-11.1 45.5,-11.1 13.9,0 28.6,2.7 44.2,8.3 61,21.9 106.2,71.3 147.2,119 231.4,269.7 421.7,570.6 591.6,883.1 l -1.4,6.9 c -1.4,-1.2 -2.7,-2.7 -4,-4 -69.5,-64.5 -144.4,-120 -225.7,-162.3 l 1.3,-3.6 -3.4,-4.7" /><path
         id="path156"
         style="fill:#f9ae78;fill-opacity:1;fill-rule:nonzero;stroke:none"
         d="m 12851.7,11649 c -146.9,26.4 -293.8,81.5 -437,121.3 l -4.5,6.1 c 0.1,13.3 7.6,23.9 16.9,31.5 9.5,7.7 21.1,13.1 31.7,17 89.2,33 186.4,50 283.6,50 229.6,0 459.7,-94.9 581.4,-300.3 l 0.7,-4.7 -2.9,-3.8 -4.7,-0.7 -3.7,2.8 h -0.1 c 0,0.1 0,0.1 -0.1,0.1 -0.6,2.5 -14,9 -32.6,13 -18.9,4.3 -43.3,8.1 -68.4,11.2 -50.2,6.3 -102.3,10.2 -119.5,13.2 -80.3,14.5 -160.5,28.9 -240.8,43.3 z m 138.7,-531.2 -5.3,-1.6 c -60,10.8 -119.7,34.2 -177.3,51.7 -84.5,25.8 -168.9,51.5 -255.5,66.7 -115.3,20.2 -235,30 -352.3,48.8 -6.1,1.2 -15,2.3 -20.5,10.4 v 0 l -3,9.9 c 0.2,8.9 5.3,16.2 10.3,21.7 35.2,37.6 89.2,46.5 138.1,50.5 27.8,2.3 55.5,3.4 82.9,3.4 144.5,0 282.6,-31.6 413.6,-100.1 36.7,-19.3 98.5,-52.3 137.2,-93.2 17.9,-19.1 31.1,-40.1 33.8,-62.9 z m -450.7,1227.6 c 73.2,104 216.4,150.5 351.2,150.6 60.7,0 119.8,-9.5 170.5,-27.7 189.4,-68.3 338.5,-228.6 453.7,-386 l 1.2,-4.6 -2.5,-4.1 -4.7,-1.2 -4,2.5 c -4,6 -17.8,13.5 -36.3,19.6 -18.6,6.2 -41.9,11.8 -65.9,16.7 -48,9.8 -98,16.9 -119.8,22.7 -82.6,22.5 -165.2,45 -247.8,67.5 -163.9,44.6 -329.2,86.3 -492.2,134.4 l -4.2,4 z m 97.9,381.8 -0.2,-6.7 c -417,-461.1 -567.7,-1117.9 -721.3,-1745.6 485.6,-9.9 897.3,-271.9 1246.2,-603.6 l 0.6,-1.8 c 81.3,42.3 156.2,97.8 225.7,162.3 1.3,1.3 2.6,2.8 4,4 207,194.3 366.2,468.2 506.9,709.3 88,150.8 174,314.8 163.7,489.1 -4.1,68.9 -23,134.3 -51.6,196.4 -0.9,1.9 -2.1,3.7 -2.9,5.5 -48.6,103.1 -123.1,197 -201,281.5 -218.6,236.9 -456.9,466.5 -702.2,552.5 -1.9,0.7 -3.9,1.5 -5.8,2.2 -152.4,52 -307.6,47.9 -462.1,-45.1" /><path
         id="path158"
         style="fill:#f68272;fill-opacity:1;fill-rule:nonzero;stroke:none"
         d="m 11925.3,10600.5 c 27,36 54.6,71.9 82.9,108.1 26.1,33.1 55.1,68.7 97.2,83 15,5 30.7,6.9 46.2,6.9 13.6,0 27.1,-1.4 40.2,-3.4 107,-16.4 205.5,-109.4 205.8,-219.9 0,-15.9 -2,-32.2 -6.5,-48.6 -12.5,-46.3 -24.1,-92.9 -35.3,-139.6 -0.6,-2.3 -1,-4.7 -1.5,-7 14.3,-5.9 28.6,-11.7 43,-17.3 1.7,-0.7 3.3,-1.4 4.9,-2 17.1,-6.5 34.4,-12.6 51.5,-18.5 1.6,-0.5 3.1,-1.1 4.6,-1.7 55.8,-19.2 112.4,-35.7 170.6,-47.5 61.3,-12.5 120,-18.4 176.2,-18.4 131.3,0 249.1,32.1 355.7,86.6 l 3.4,4.7 -1.3,3.6 -0.6,1.8 c -348.9,331.7 -760.6,593.7 -1246.2,603.6 153.6,627.7 304.3,1284.5 721.3,1745.6 l 0.2,6.7 v 1.4 l -8.1,1.4 c -27.3,-16.8 -54.7,-36.4 -82.1,-58.9 -12.7,-10.5 -25.5,-21.8 -38.2,-33.7 -31.1,-17.5 -70.8,-49.3 -109.1,-81.9 -0.3,-0.3 -0.7,-0.6 -1,-0.9 -48.7,-41.6 -95,-84 -113.6,-95.9 -7.1,-4.6 -14.3,-9.2 -21.6,-13.7 -93.9,-58.3 -193.8,-106.9 -297.7,-144.6 -102.4,-37.4 -222.7,-73.7 -272.2,-175.4 -15.4,-31.9 -22.4,-64.2 -22.4,-95.9 0,-39.6 11.2,-78.1 30,-114.2 1.1,-2 1.8,-4.1 2.9,-6.1 50,-90.8 149.8,-165.2 256.6,-202 -63.7,-162.2 -121.1,-325.6 -178.6,-483.2 -34,-93.4 -65.5,-195.3 -65.6,-294.1 0,-53.7 9.4,-106.6 33,-156.3 36.3,-76.7 100.1,-132.3 171.6,-178 1.3,1.8 2.5,3.5 3.8,5.3" /><path
         id="path160"
         style="fill:#f68272;fill-opacity:1;fill-rule:nonzero;stroke:none"
         d="m 13035.3,12201.4 c 82.6,-22.5 165.2,-45 247.8,-67.5 21.8,-5.8 71.8,-12.9 119.8,-22.7 24,-4.9 47.3,-10.5 65.9,-16.7 18.5,-6.1 32.3,-13.6 36.3,-19.6 l 4,-2.5 4.7,1.2 2.5,4.1 -1.2,4.6 c -115.2,157.4 -264.3,317.7 -453.7,386 -50.7,18.2 -109.8,27.7 -170.5,27.7 -134.8,-0.1 -278,-46.6 -351.2,-150.6 l -0.8,-5.6 4.2,-4 c 163,-48.1 328.3,-89.8 492.2,-134.4" /><path
         id="path162"
         style="fill:#f68272;fill-opacity:1;fill-rule:nonzero;stroke:none"
         d="m 13280.4,11581.3 c 18.6,-4 32,-10.5 32.6,-13 0.1,0 0.1,0 0.1,-0.1 h 0.1 l 3.7,-2.8 4.7,0.7 2.9,3.8 -0.7,4.7 c -121.7,205.4 -351.8,300.3 -581.4,300.3 -97.2,0 -194.4,-17 -283.6,-50 -10.6,-3.9 -22.2,-9.3 -31.7,-17 -9.3,-7.6 -16.8,-18.2 -16.9,-31.5 l 4.5,-6.1 c 143.2,-39.8 290.1,-94.9 437,-121.3 80.3,-14.4 160.5,-28.8 240.8,-43.3 17.2,-3 69.3,-6.9 119.5,-13.2 25.1,-3.1 49.5,-6.9 68.4,-11.2" /><path
         id="path164"
         style="fill:#f68272;fill-opacity:1;fill-rule:nonzero;stroke:none"
         d="m 12821.4,11279.2 c -131,68.5 -269.1,100.1 -413.6,100.1 -27.4,0 -55.1,-1.1 -82.9,-3.4 -48.9,-4 -102.9,-12.9 -138.1,-50.5 -5,-5.5 -10.1,-12.8 -10.3,-21.7 l 3,-9.9 v 0 c 5.5,-8.1 14.4,-9.2 20.5,-10.4 117.3,-18.8 237,-28.6 352.3,-48.8 86.6,-15.2 171,-40.9 255.5,-66.7 57.6,-17.5 117.3,-40.9 177.3,-51.7 l 5.3,1.6 2,5.3 c -2.7,22.8 -15.9,43.8 -33.8,62.9 -38.7,40.9 -100.5,73.9 -137.2,93.2" /><path
         id="path166"
         style="fill:#510e16;fill-opacity:1;fill-rule:nonzero;stroke:none"
         d="m 11492.9,9788.6 c -23.5,-67.7 -45.9,-137.1 -46,-165.6 0.2,-5.7 0.2,-10.8 5.4,-15 v 0 c 31.3,-21.7 62.5,-43.5 93.8,-65.2 60.4,-42 120.7,-84.1 181.1,-126.1 l 8.1,0.9 c 47.9,52.4 100.6,100.3 157.3,143 16.5,12.4 33.3,24 51.8,28.2 6,1.4 12.2,2.1 18.4,2.1 21.7,0 44.6,-7.8 66.8,-15.9 l 122.7,-44.6 c 11.2,-4 24.2,-8 37.1,-8 10,-0.1 20.4,2.6 28.6,10.4 9.3,9 12.2,21 13.5,32.3 0.5,3.8 0.8,7.5 1,11 18,270.7 59.1,539.9 121.8,803.9 0.5,2.3 0.9,4.7 1.5,7 11.2,46.7 22.8,93.3 35.3,139.6 4.5,16.4 6.5,32.7 6.5,48.6 -0.3,110.5 -98.8,203.5 -205.8,219.9 -13.1,2 -26.6,3.4 -40.2,3.4 -15.5,0 -31.2,-1.9 -46.2,-6.9 -42.1,-14.3 -71.1,-49.9 -97.2,-83 -28.3,-36.2 -55.9,-72.1 -82.9,-108.1 -1.3,-1.8 -2.5,-3.5 -3.8,-5.3 -28,-37.6 -55.2,-75.2 -81.6,-113.1 -3.5,-5.1 -6.7,-10.3 -10.2,-15.4 -113.7,-165.1 -211,-335.9 -283.2,-532.3 -5.1,-14.1 -30,-78.5 -53.6,-145.8" /></g></g></svg>