<svg
   xmlns="http://www.w3.org/2000/svg"
   viewBox="0 0 446.28 918.44"
   height="918.44"
   width="446.28"
   xmlSpace="preserve"
   id="svg2"
   version="1.1">
   <defs
     id="defs6"><clipPath
       id="clipPath20"
       clipPathUnits="userSpaceOnUse"><path
         id="path18"
         d="m 2193.09,2950.34 c 81.91,-92.64 183.25,-225.98 270.82,-402.32 86.34,-173.91 131.22,-333.07 155.69,-453.27 -19.26,-15.98 -46.93,-33.26 -76.66,-28.78 -93.15,14.06 -98.29,225.77 -212.14,442.71 -42.75,81.49 -110.42,181.95 -222.34,283.28 28.21,52.8 56.41,105.57 84.63,158.38 z" /></clipPath><radialGradient
       id="radialGradient28"
       spreadMethod="pad"
       gradientTransform="matrix(706.259,-276.89,-276.89,-706.259,3187.85,2688.81)"
       gradientUnits="userSpaceOnUse"
       r="1"
       cy="0"
       cx="0"
       fy="0"
       fx="0"><stop
         id="stop22"
         offset="0"
         style="stop-opacity:1;stop-color:#b55f32" /><stop
         id="stop24"
         offset="0.00000009"
         style="stop-opacity:1;stop-color:#b55f32" /><stop
         id="stop26"
         offset="1"
         style="stop-opacity:1;stop-color:#4f2f00" /></radialGradient><clipPath
       id="clipPath38"
       clipPathUnits="userSpaceOnUse"><path
         id="path36"
         d="M 1271.58,2923.55 C 1188.34,2832.08 1085.11,2700.22 995.035,2525.16 906.191,2352.49 859.055,2194 832.859,2074.15 c 19.032,-16.25 46.461,-33.93 76.239,-29.87 93.342,12.73 101.512,224.33 218.452,439.64 43.92,80.86 113.03,180.33 226.38,280.06 -27.45,53.19 -54.9,106.37 -82.35,159.57 z" /></clipPath><radialGradient
       id="radialGradient46"
       spreadMethod="pad"
       gradientTransform="matrix(-710.182,-266.745,266.745,-710.182,273.174,2676.32)"
       gradientUnits="userSpaceOnUse"
       r="1"
       cy="0"
       cx="0"
       fy="0"
       fx="0"><stop
         id="stop40"
         offset="0"
         style="stop-opacity:1;stop-color:#b55f32" /><stop
         id="stop42"
         offset="0.00000009"
         style="stop-opacity:1;stop-color:#b55f32" /><stop
         id="stop44"
         offset="1"
         style="stop-opacity:1;stop-color:#4f2f00" /></radialGradient><clipPath
       id="clipPath56"
       clipPathUnits="userSpaceOnUse"><path
         id="path54"
         d="m 2376.11,2535.34 c -88.58,257.34 -215.55,425.1 -248.88,467.92 -152.02,195.24 -319.62,313.15 -429.27,378.42 -145.38,-129.72 -333.95,-334.02 -476.69,-627.31 -71.78,-147.52 -203.1,-427.47 -192.75,-799.77 3.2,-115.21 11.01,-396.07 147.95,-598.99 15.51,-22.96 52.5,-74.32 99.56,-154.3 67.64,-114.96 112.49,-214.99 140.11,-282.478 -8.49,-11.762 11.57,-138.391 23.67,-148.844 5.18,-151.277 10.36,-302.558 15.54,-453.84 59.63,3.063 119.26,6.114 178.89,9.18 -2.62,151.121 -5.25,302.262 -7.87,453.391 10.32,13.121 18.13,129.66 9.38,143.672 13.7,84.109 67.35,147.839 123.12,154.479 73.27,8.72 171.68,-78.518 166.65,-213.671 -8.81,-14 -0.97,-130.539 9.41,-143.668 -2.64,-151.14 -5.28,-302.269 -7.92,-453.402 59.92,-3.059 119.87,-6.109 179.8,-9.16 5.21,151.281 10.43,302.551 15.64,453.832 12.16,10.449 32.32,137.078 23.81,148.847 3.29,91.571 21.15,223.412 95.46,356.592 35.8,64.18 64.26,92.02 94.57,134.4 109.92,153.69 118.69,323.26 129.1,524.45 17.33,335.02 -64.58,588.48 -89.28,660.25 z" /></clipPath><radialGradient
       id="radialGradient64"
       spreadMethod="pad"
       gradientTransform="matrix(1216.4,0,0,-1216.4,1747.86,1819.33)"
       gradientUnits="userSpaceOnUse"
       r="1"
       cy="0"
       cx="0"
       fy="0"
       fx="0"><stop
         id="stop58"
         offset="0"
         style="stop-opacity:1;stop-color:#b55f32" /><stop
         id="stop60"
         offset="0.00000009"
         style="stop-opacity:1;stop-color:#b55f32" /><stop
         id="stop62"
         offset="1"
         style="stop-opacity:1;stop-color:#4f2f00" /></radialGradient><clipPath
       id="clipPath74"
       clipPathUnits="userSpaceOnUse"><path
         id="path72"
         d="m 2487.52,4523.8 c -6.13,20.67 -12.8,40.59 -20.28,60.19 47.55,12.89 98.39,62.56 123.95,108.63 19.02,34.29 43.41,101.46 15.12,128.49 -8.7,8.31 -20.7,11.23 -33.72,11.23 -19.25,0 -40.71,-6.39 -56.97,-11.23 -16.23,-4.84 -92.81,-27.64 -127.86,-81.61 -2.03,3.22 -4.14,6.52 -6.33,9.9 -0.07,0.11 -0.14,0.22 -0.21,0.33 -22.6,35.72 -45.52,68.49 -68.08,98.41 106.35,85.81 211.42,127.33 288.94,127.33 38.05,0 69.45,-9.99 91.14,-29.66 52.27,-47.39 36.95,-140.87 34.02,-158.72 -17.96,-109.44 -108.67,-203.51 -239.72,-263.29" /></clipPath><radialGradient
       id="radialGradient82"
       spreadMethod="pad"
       gradientTransform="matrix(230.249,0,0,-230.249,2315.62,4671.55)"
       gradientUnits="userSpaceOnUse"
       r="1"
       cy="0"
       cx="0"
       fy="0"
       fx="0"><stop
         id="stop76"
         offset="0"
         style="stop-opacity:1;stop-color:#b55f32" /><stop
         id="stop78"
         offset="0.00000009"
         style="stop-opacity:1;stop-color:#b55f32" /><stop
         id="stop80"
         offset="1"
         style="stop-opacity:1;stop-color:#4f2f00" /></radialGradient><clipPath
       id="clipPath92"
       clipPathUnits="userSpaceOnUse"><path
         id="path90"
         d="m 2467.24,4583.99 c -12.98,34.01 -28.41,67.1 -47.75,101.68 -6.77,12.12 -17.31,30.96 -31.73,53.83 35.05,53.97 111.63,76.77 127.86,81.61 16.26,4.84 37.72,11.23 56.97,11.23 13.02,0 25.02,-2.92 33.72,-11.23 28.29,-27.03 3.9,-94.2 -15.12,-128.49 -25.56,-46.07 -76.4,-95.74 -123.95,-108.63" /></clipPath><radialGradient
       id="radialGradient98"
       spreadMethod="pad"
       gradientTransform="matrix(207.351,0,0,-207.351,2378.15,4843.83)"
       gradientUnits="userSpaceOnUse"
       r="1"
       cy="0"
       cx="0"
       fy="0"
       fx="0"><stop
         id="stop94"
         offset="0"
         style="stop-opacity:1;stop-color:#eedbc3" /><stop
         id="stop96"
         offset="1"
         style="stop-opacity:1;stop-color:#d1ba84" /></radialGradient><clipPath
       id="clipPath108"
       clipPathUnits="userSpaceOnUse"><path
         id="path106"
         d="m 970.961,4465.11 c -141.086,59.17 -239.609,156.89 -258.402,271.47 -2.93,17.85 -18.262,111.32 34.007,158.72 21.692,19.66 53.094,29.66 91.145,29.66 74.828,0 175.329,-38.7 277.879,-118.56 -16.08,-18.69 -30.85,-38.23 -44.1,-58.55 -2.87,-4.39 -5.65,-8.92 -8.35,-13.59 -6.27,-8.12 -10.21,-14.5 -11.78,-18.54 -2.2,-5.65 -4.4,-11.39 -6.47,-16.84 -37.37,46.9 -105.515,67.18 -120.714,71.71 -16.27,4.84 -37.731,11.24 -56.973,11.24 -13.023,0 -25.023,-2.93 -33.723,-11.24 -28.285,-27.04 -3.906,-94.2 15.118,-128.49 28.636,-51.61 88.996,-107.75 140.922,-111.6 -5.762,-20.12 -11.903,-41.84 -18.555,-65.38 v 0" /></clipPath><radialGradient
       id="radialGradient116"
       spreadMethod="pad"
       gradientTransform="matrix(-230.249,0,0,-230.249,1124.18,4621.03)"
       gradientUnits="userSpaceOnUse"
       r="1"
       cy="0"
       cx="0"
       fy="0"
       fx="0"><stop
         id="stop110"
         offset="0"
         style="stop-opacity:1;stop-color:#b55f32" /><stop
         id="stop112"
         offset="0.00000009"
         style="stop-opacity:1;stop-color:#b55f32" /><stop
         id="stop114"
         offset="1"
         style="stop-opacity:1;stop-color:#4f2f00" /></radialGradient><clipPath
       id="clipPath126"
       clipPathUnits="userSpaceOnUse"><path
         id="path124"
         d="m 989.52,4530.5 c -51.926,3.85 -112.286,59.99 -140.922,111.6 -19.024,34.29 -43.403,101.45 -15.118,128.49 8.7,8.31 20.7,11.24 33.723,11.24 19.242,0 40.703,-6.4 56.973,-11.24 15.199,-4.53 83.344,-24.81 120.714,-71.71 -1.02,-2.68 -2,-5.29 -2.94,-7.79 -16.81,-39.79 -32.33,-90.43 -52.43,-160.59" /></clipPath><radialGradient
       id="radialGradient132"
       spreadMethod="pad"
       gradientTransform="matrix(-207.355,0,0,-207.355,1061.64,4793.31)"
       gradientUnits="userSpaceOnUse"
       r="1"
       cy="0"
       cx="0"
       fy="0"
       fx="0"><stop
         id="stop128"
         offset="0"
         style="stop-opacity:1;stop-color:#eedbc3" /><stop
         id="stop130"
         offset="1"
         style="stop-opacity:1;stop-color:#d1ba84" /></radialGradient><clipPath
       id="clipPath142"
       clipPathUnits="userSpaceOnUse"><path
         id="path140"
         d="m 957.398,2000.62 c 16.684,-41.8 24.325,-77.14 28.192,-101.66 7.723,-49.08 1.43,-62.01 -6.231,-68.16 -11.511,-9.24 -28.562,-5.11 -32.656,-4.11 -25.234,6.13 -44.445,32.19 -51.019,65.9 1.652,-10.95 9.976,-73.17 -32.153,-121.15 -9.718,-11.06 -37.394,-42.57 -81.054,-42.67 -44.18,-0.09 -72.094,32.04 -75.11,35.63 -33.449,39.79 -22.347,94.37 -16.16,124.76 16.348,80.35 71.356,130.58 96.699,150.83 15.938,3.49 37.442,6.21 62.508,3.78 52.633,-5.08 89.852,-29.9 106.984,-43.15 z" /></clipPath><radialGradient
       id="radialGradient152"
       spreadMethod="pad"
       gradientTransform="matrix(-363.243,-160.144,160.144,-363.243,774.668,1579.63)"
       gradientUnits="userSpaceOnUse"
       r="1"
       cy="0"
       cx="0"
       fy="0"
       fx="0"><stop
         id="stop144"
         offset="0"
         style="stop-opacity:1;stop-color:#db151b" /><stop
         id="stop146"
         offset="0.756308"
         style="stop-opacity:1;stop-color:#bf0005" /><stop
         id="stop148"
         offset="0.997344"
         style="stop-opacity:1;stop-color:#910005" /><stop
         id="stop150"
         offset="1"
         style="stop-opacity:1;stop-color:#910005" /></radialGradient><clipPath
       id="clipPath162"
       clipPathUnits="userSpaceOnUse"><path
         id="path160"
         d="m 1060.17,2104.53 c 4.16,-8.05 19.14,-39.8 7.78,-72.18 -14.31,-40.78 -60.93,-55.59 -78.364,-61.15 -51.406,-16.32 -95.965,-2.25 -134.418,9.9 -52.086,16.46 -107.242,33.87 -123.668,81.79 -9.27,27.06 -6.273,64.08 15.246,87.25 16.336,17.59 38.543,22.05 58.777,24.48 28.676,3.44 205.837,24.67 254.647,-70.09 z" /></clipPath><radialGradient
       id="radialGradient172"
       spreadMethod="pad"
       gradientTransform="matrix(-269.085,-70.9027,70.9027,-269.085,873.799,1888.82)"
       gradientUnits="userSpaceOnUse"
       r="1"
       cy="0"
       cx="0"
       fy="0"
       fx="0"><stop
         id="stop164"
         offset="0"
         style="stop-opacity:1;stop-color:#ffffff" /><stop
         id="stop166"
         offset="0.4548519"
         style="stop-opacity:1;stop-color:#ffffff" /><stop
         id="stop168"
         offset="0.899734"
         style="stop-opacity:1;stop-color:#ffceb8" /><stop
         id="stop170"
         offset="1"
         style="stop-opacity:1;stop-color:#ffcfc3" /></radialGradient><clipPath
       id="clipPath182"
       clipPathUnits="userSpaceOnUse"><path
         id="path180"
         d="m 1888.9,347.668 c 3.82,-107.277 6.01,-171.168 7.56,-216.969 2.18,-64.7576 2.72,-83.1092 17.27,-101.4802 31.33,-39.5274 87.8,-28.957081 227.76,-24.61724 205.44,6.35934 269.88,-10.66015 293.62,32.17974 18.27,32.9687 0.68,80.1097 -15.1,104.7067 -27.29,42.492 -73.27,55.192 -92.31,60.461 -69.78,19.27 -106.33,-12.168 -136.56,10.789 -16.91,12.84 -32.23,43.051 -18.88,121.981 -94.45,4.32 -188.9,8.633 -283.36,12.949 z" /></clipPath><radialGradient
       id="radialGradient192"
       spreadMethod="pad"
       gradientTransform="matrix(536.827,0,0,-536.827,2340.86,453.5)"
       gradientUnits="userSpaceOnUse"
       r="1"
       cy="0"
       cx="0"
       fy="0"
       fx="0"><stop
         id="stop184"
         offset="0"
         style="stop-opacity:1;stop-color:#db151b" /><stop
         id="stop186"
         offset="0.756308"
         style="stop-opacity:1;stop-color:#bf0005" /><stop
         id="stop188"
         offset="0.997344"
         style="stop-opacity:1;stop-color:#910005" /><stop
         id="stop190"
         offset="1"
         style="stop-opacity:1;stop-color:#910005" /></radialGradient><clipPath
       id="clipPath202"
       clipPathUnits="userSpaceOnUse"><path
         id="path200"
         d="m 1888.9,436.719 c -22.07,-23.559 -25,-53.828 -25.9,-63.149 -0.48,-4.91 -4.85,-57.59 28.17,-89.66 17.13,-16.648 32.89,-16.64 159.66,-17.199 81.79,-0.359 100.7,-0.492 118.42,16.281 29.37,27.778 26.14,74.207 25.68,80.867 -0.55,7.832 -3.85,43.723 -30.77,71.25 -31.05,31.762 -73.05,31.391 -147.34,30.77 -66,-0.57 -101.96,-1.438 -127.92,-29.16 z" /></clipPath><radialGradient
       id="radialGradient212"
       spreadMethod="pad"
       gradientTransform="matrix(237.314,0,0,-237.314,1992.24,484.05)"
       gradientUnits="userSpaceOnUse"
       r="1"
       cy="0"
       cx="0"
       fy="0"
       fx="0"><stop
         id="stop204"
         offset="0"
         style="stop-opacity:1;stop-color:#ffffff" /><stop
         id="stop206"
         offset="0.4548519"
         style="stop-opacity:1;stop-color:#ffffff" /><stop
         id="stop208"
         offset="0.899734"
         style="stop-opacity:1;stop-color:#ffceb8" /><stop
         id="stop210"
         offset="1"
         style="stop-opacity:1;stop-color:#ffcfc3" /></radialGradient><clipPath
       id="clipPath222"
       clipPathUnits="userSpaceOnUse"><path
         id="path220"
         d="m 1662.09,347.668 c -3.82,-107.277 -6.02,-171.168 -7.56,-216.969 -2.18,-64.7576 -2.72,-83.1092 -17.27,-101.4802 -31.32,-39.5274 -87.8,-28.957081 -227.76,-24.61724 -205.45,6.35934 -269.88,-10.66015 -293.62,32.17974 -18.27,32.9687 -0.68,80.1097 15.11,104.7067 27.28,42.492 73.27,55.192 92.3,60.461 69.78,19.27 106.33,-12.168 136.54,10.789 16.92,12.84 32.25,43.051 18.9,121.981 94.45,4.32 188.91,8.633 283.36,12.949 z" /></clipPath><radialGradient
       id="radialGradient232"
       spreadMethod="pad"
       gradientTransform="matrix(-536.829,0,0,-536.829,1210.14,453.5)"
       gradientUnits="userSpaceOnUse"
       r="1"
       cy="0"
       cx="0"
       fy="0"
       fx="0"><stop
         id="stop224"
         offset="0"
         style="stop-opacity:1;stop-color:#db151b" /><stop
         id="stop226"
         offset="0.756308"
         style="stop-opacity:1;stop-color:#bf0005" /><stop
         id="stop228"
         offset="0.997344"
         style="stop-opacity:1;stop-color:#910005" /><stop
         id="stop230"
         offset="1"
         style="stop-opacity:1;stop-color:#910005" /></radialGradient><clipPath
       id="clipPath242"
       clipPathUnits="userSpaceOnUse"><path
         id="path240"
         d="m 1662.09,436.719 c 22.07,-23.559 25.01,-53.828 25.9,-63.149 0.49,-4.91 4.85,-57.59 -28.17,-89.66 -17.13,-16.648 -32.9,-16.64 -159.65,-17.199 -81.81,-0.359 -100.71,-0.492 -118.43,16.281 -29.37,27.778 -26.14,74.207 -25.68,80.867 0.54,7.832 3.85,43.723 30.77,71.25 31.06,31.762 73.05,31.391 147.34,30.77 66,-0.57 101.96,-1.438 127.92,-29.16 z" /></clipPath><radialGradient
       id="radialGradient252"
       spreadMethod="pad"
       gradientTransform="matrix(-237.311,0,0,-237.311,1558.75,484.05)"
       gradientUnits="userSpaceOnUse"
       r="1"
       cy="0"
       cx="0"
       fy="0"
       fx="0"><stop
         id="stop244"
         offset="0"
         style="stop-opacity:1;stop-color:#ffffff" /><stop
         id="stop246"
         offset="0.4548519"
         style="stop-opacity:1;stop-color:#ffffff" /><stop
         id="stop248"
         offset="0.899734"
         style="stop-opacity:1;stop-color:#ffceb8" /><stop
         id="stop250"
         offset="1"
         style="stop-opacity:1;stop-color:#ffcfc3" /></radialGradient><clipPath
       id="clipPath262"
       clipPathUnits="userSpaceOnUse"><path
         id="path260"
         d="m 1265.98,2114.13 c 37.39,268.71 250.22,589.89 502.12,575.16 256.63,-15 400.56,-369.74 437.94,-567.74 35.65,-188.93 34.92,-556.45 -212.21,-695.91 -170.91,-96.45 -359.47,-27.28 -380.93,-19.03 -266.97,102.64 -383.88,442.04 -346.92,707.52 z" /></clipPath><radialGradient
       id="radialGradient268"
       spreadMethod="pad"
       gradientTransform="matrix(1233.9,584.66,584.66,-1233.9,1405.6,2696.93)"
       gradientUnits="userSpaceOnUse"
       r="1"
       cy="0"
       cx="0"
       fy="0"
       fx="0"><stop
         id="stop264"
         offset="0"
         style="stop-opacity:1;stop-color:#eedbc3" /><stop
         id="stop266"
         offset="1"
         style="stop-opacity:1;stop-color:#d1ba84" /></radialGradient><clipPath
       id="clipPath286"
       clipPathUnits="userSpaceOnUse"><path
         id="path284"
         d="m 2583.93,3955.9 c -184.08,404.48 -820.67,413.27 -857.93,413.27 -0.19,0 -0.37,0 -0.53,0 -286.02,-0.75 -703.72,-113.4 -866.325,-400.72 23.304,138.52 58.269,307.29 111.82,496.67 v 0 c 6.652,23.54 12.793,45.26 18.555,65.38 20.1,70.16 35.62,120.8 52.43,160.59 -4.89,-12.95 -8.47,-22.72 -8.47,-22.72 -6.63,-18.04 -12.03,-33.33 -15.98,-44.68 144.12,59.77 353.15,127.41 612.18,149.43 59.59,5.07 117.24,7.33 172.71,7.33 263.05,0 477.07,-50.89 617.1,-94.78 v 0 0 c -11.68,20.74 -24.34,42.03 -38.06,63.73 2.19,-3.38 4.3,-6.68 6.33,-9.9 14.42,-22.87 24.96,-41.71 31.73,-53.83 19.34,-34.58 34.77,-67.67 47.75,-101.68 7.48,-19.6 14.15,-39.52 20.28,-60.19 20.65,-69.71 35.18,-148.11 54.21,-252.88 15.04,-82.92 31.17,-189.2 42.2,-315.02 m -1520.79,778.36 c 2.7,4.67 5.48,9.2 8.35,13.59 13.25,20.32 28.02,39.86 44.1,58.55 146.66,170.37 404.52,271.49 653.32,271.49 148.97,0 294.68,-36.25 411.35,-115.6 47,-31.96 87.02,-69.38 120.31,-106.53 -77.62,24.81 -359.95,110.24 -641.17,110.24 -87.91,0 -175.65,-8.33 -257.07,-29.48 -187.09,-48.59 -302.66,-154.96 -339.19,-202.26" /></clipPath><radialGradient
       id="radialGradient294"
       spreadMethod="pad"
       gradientTransform="matrix(1361.74,620.266,620.266,-1361.74,1634.39,4101.91)"
       gradientUnits="userSpaceOnUse"
       r="1"
       cy="0"
       cx="0"
       fy="0"
       fx="0"><stop
         id="stop288"
         offset="0"
         style="stop-opacity:1;stop-color:#b55f32" /><stop
         id="stop290"
         offset="0.00000009"
         style="stop-opacity:1;stop-color:#b55f32" /><stop
         id="stop292"
         offset="1"
         style="stop-opacity:1;stop-color:#4f2f00" /></radialGradient><clipPath
       id="clipPath304"
       clipPathUnits="userSpaceOnUse"><path
         id="path302"
         d="m 1691.7,3067.7 c -1.34,0 -2.65,0.01 -4,0.01 -103.14,0.27 -264.74,2.17 -455.33,74.73 -131.17,49.93 -254.604,96.93 -343.03,217.72 -112.504,153.7 -121.524,362.95 -71.629,514.68 10.875,33.08 24.816,64.25 41.434,93.61 162.605,287.32 580.305,399.97 866.325,400.72 0.16,0 0.34,0 0.53,0 37.26,0 673.85,-8.79 857.93,-413.27 4.19,-9.21 8.16,-18.65 11.87,-28.28 67.41,-174.91 52.38,-416.8 -78.99,-577.6 -74.79,-91.53 -164.32,-128.69 -297.8,-184.11 -42.22,-17.52 -243.11,-98.21 -527.31,-98.21 m 60.88,1270.54 c -233.33,0 -437.14,-152.53 -401.54,-299.85 26.77,-110.74 184.19,-199.41 359.82,-207.94 9.42,-0.46 18.83,-0.68 28.26,-0.68 192.53,0 383.19,94.37 401.08,232.21 18.62,143.56 -159.41,262.59 -353.25,275.15 -11.51,0.74 -22.97,1.11 -34.37,1.11" /></clipPath><radialGradient
       id="radialGradient310"
       spreadMethod="pad"
       gradientTransform="matrix(970.782,442.186,442.186,-970.782,1707.85,3709.14)"
       gradientUnits="userSpaceOnUse"
       r="1"
       cy="0"
       cx="0"
       fy="0"
       fx="0"><stop
         id="stop306"
         offset="0"
         style="stop-opacity:1;stop-color:#eedbc3" /><stop
         id="stop308"
         offset="1"
         style="stop-opacity:1;stop-color:#d1ba84" /></radialGradient><clipPath
       id="clipPath324"
       clipPathUnits="userSpaceOnUse"><path
         id="path322"
         d="m 2381.43,4749.4 c -18.36,28.35 -42.2,61.83 -71.72,95.97 1.15,0.93 2.28,1.85 3.43,2.77 22.56,-29.92 45.48,-62.69 68.08,-98.41 0.07,-0.11 0.14,-0.22 0.21,-0.33" /></clipPath><radialGradient
       id="radialGradient332"
       spreadMethod="pad"
       gradientTransform="matrix(230.249,0,0,-230.249,2315.62,4671.55)"
       gradientUnits="userSpaceOnUse"
       r="1"
       cy="0"
       cx="0"
       fy="0"
       fx="0"><stop
         id="stop326"
         offset="0"
         style="stop-opacity:1;stop-color:#9f552e" /><stop
         id="stop328"
         offset="0.00000009"
         style="stop-opacity:1;stop-color:#9f552e" /><stop
         id="stop330"
         offset="1"
         style="stop-opacity:1;stop-color:#4c2e05" /></radialGradient><clipPath
       id="clipPath342"
       clipPathUnits="userSpaceOnUse"><path
         id="path340"
         d="m 1045.16,4698.54 c -0.09,0.11 -0.18,0.23 -0.27,0.34 2.07,5.45 4.27,11.19 6.47,16.84 1.57,4.04 5.51,10.42 11.78,18.54 -6.33,-10.96 -12.25,-22.76 -17.98,-35.72" /></clipPath><radialGradient
       id="radialGradient350"
       spreadMethod="pad"
       gradientTransform="matrix(-230.249,0,0,-230.249,1124.18,4621.03)"
       gradientUnits="userSpaceOnUse"
       r="1"
       cy="0"
       cx="0"
       fy="0"
       fx="0"><stop
         id="stop344"
         offset="0"
         style="stop-opacity:1;stop-color:#9f552e" /><stop
         id="stop346"
         offset="0.00000009"
         style="stop-opacity:1;stop-color:#9f552e" /><stop
         id="stop348"
         offset="1"
         style="stop-opacity:1;stop-color:#4c2e05" /></radialGradient><clipPath
       id="clipPath360"
       clipPathUnits="userSpaceOnUse"><path
         id="path358"
         d="m 1041.95,4691.09 c 0.94,2.5 1.92,5.11 2.94,7.79 0.09,-0.11 0.18,-0.23 0.27,-0.34 -1.07,-2.44 -2.15,-4.92 -3.21,-7.45" /></clipPath><radialGradient
       id="radialGradient366"
       spreadMethod="pad"
       gradientTransform="matrix(-207.355,0,0,-207.355,1061.64,4793.31)"
       gradientUnits="userSpaceOnUse"
       r="1"
       cy="0"
       cx="0"
       fy="0"
       fx="0"><stop
         id="stop362"
         offset="0"
         style="stop-opacity:1;stop-color:#cdbaa4" /><stop
         id="stop364"
         offset="1"
         style="stop-opacity:1;stop-color:#b69f70" /></radialGradient><clipPath
       id="clipPath376"
       clipPathUnits="userSpaceOnUse"><path
         id="path374"
         d="m 1017.5,4623.69 c 3.95,11.35 9.35,26.64 15.98,44.68 0,0 3.58,9.77 8.47,22.72 1.06,2.53 2.14,5.01 3.21,7.45 5.73,12.96 11.65,24.76 17.98,35.72 36.53,47.3 152.1,153.67 339.19,202.26 81.42,21.15 169.16,29.48 257.07,29.48 281.22,0 563.55,-85.43 641.17,-110.24 3.11,-3.47 6.15,-6.93 9.14,-10.39 29.52,-34.14 53.36,-67.62 71.72,-95.97 13.72,-21.7 26.38,-42.99 38.06,-63.73 -140.03,43.89 -354.05,94.78 -617.1,94.78 -55.47,0 -113.12,-2.26 -172.71,-7.33 -259.03,-22.02 -468.06,-89.66 -612.18,-149.43" /></clipPath><radialGradient
       id="radialGradient384"
       spreadMethod="pad"
       gradientTransform="matrix(1361.74,620.266,620.266,-1361.74,1634.39,4101.91)"
       gradientUnits="userSpaceOnUse"
       r="1"
       cy="0"
       cx="0"
       fy="0"
       fx="0"><stop
         id="stop378"
         offset="0"
         style="stop-opacity:1;stop-color:#9f552e" /><stop
         id="stop380"
         offset="0.00000009"
         style="stop-opacity:1;stop-color:#9f552e" /><stop
         id="stop382"
         offset="1"
         style="stop-opacity:1;stop-color:#4c2e05" /></radialGradient><clipPath
       id="clipPath394"
       clipPathUnits="userSpaceOnUse"><path
         id="path392"
         d="m 1739.12,3829.77 c -9.43,0 -18.84,0.22 -28.26,0.68 -175.63,8.53 -333.05,97.2 -359.82,207.94 -35.6,147.32 168.21,299.85 401.54,299.85 11.4,0 22.86,-0.37 34.37,-1.11 193.84,-12.56 371.87,-131.59 353.25,-275.15 -17.89,-137.84 -208.55,-232.21 -401.08,-232.21 m -82.98,460.02 c -19.02,-0.75 -114.09,-5.88 -177.12,-61.3 -36.91,-32.45 -45.92,-67.28 -48.58,-84.67 1.04,-2.09 11.63,-22.24 41.74,-29.62 6.88,-1.68 13.97,-2.5 20.98,-2.5 16.09,0 31.74,4.32 43.43,12.39 0.86,11.34 4.93,33.63 26.62,54.92 39.92,39.2 106.67,42.72 117.77,43.18 18.26,9.28 25.62,25.71 18.52,40.81 -6.33,13.42 -23.13,23.78 -43.36,26.79" /></clipPath><radialGradient
       id="radialGradient404"
       spreadMethod="pad"
       gradientTransform="matrix(353.11,109.117,166.334,-231.639,1730.99,4185.72)"
       gradientUnits="userSpaceOnUse"
       r="1"
       cy="0"
       cx="0"
       fy="0"
       fx="0"><stop
         id="stop396"
         offset="0"
         style="stop-opacity:1;stop-color:#db151b" /><stop
         id="stop398"
         offset="0.756308"
         style="stop-opacity:1;stop-color:#bf0005" /><stop
         id="stop400"
         offset="0.997344"
         style="stop-opacity:1;stop-color:#910005" /><stop
         id="stop402"
         offset="1"
         style="stop-opacity:1;stop-color:#910005" /></radialGradient><clipPath
       id="clipPath414"
       clipPathUnits="userSpaceOnUse"><path
         id="path412"
         d="m 1493.16,4111.7 c -7.01,0 -14.1,0.82 -20.98,2.5 -30.11,7.38 -40.7,27.53 -41.74,29.62 2.66,17.39 11.67,52.22 48.58,84.67 63.03,55.42 158.1,60.55 177.12,61.3 20.23,-3.01 37.03,-13.37 43.36,-26.79 7.1,-15.1 -0.26,-31.53 -18.52,-40.81 -11.1,-0.46 -77.85,-3.98 -117.77,-43.18 -21.69,-21.29 -25.76,-43.58 -26.62,-54.92 -11.69,-8.07 -27.34,-12.39 -43.43,-12.39" /></clipPath><radialGradient
       id="radialGradient424"
       spreadMethod="pad"
       gradientTransform="matrix(353.11,109.117,166.334,-231.639,1730.99,4185.72)"
       gradientUnits="userSpaceOnUse"
       r="1"
       cy="0"
       cx="0"
       fy="0"
       fx="0"><stop
         id="stop416"
         offset="0"
         style="stop-opacity:1;stop-color:#e0383d" /><stop
         id="stop418"
         offset="0.756308"
         style="stop-opacity:1;stop-color:#c9262a" /><stop
         id="stop420"
         offset="0.997344"
         style="stop-opacity:1;stop-color:#a1262a" /><stop
         id="stop422"
         offset="1"
         style="stop-opacity:1;stop-color:#a1262a" /></radialGradient><clipPath
       id="clipPath436"
       clipPathUnits="userSpaceOnUse"><path
         id="path434"
         d="m 2039.01,4522.16 c 17.37,-36.64 1.74,-80.41 -34.9,-97.77 -36.64,-17.36 -80.4,-1.74 -97.76,34.9 -17.37,36.64 -1.74,80.41 34.9,97.77 36.63,17.37 80.4,1.74 97.76,-34.9 z" /></clipPath><radialGradient
       id="radialGradient446"
       spreadMethod="pad"
       gradientTransform="matrix(66.339,31.4334,31.4334,-66.339,1972.68,4490.73)"
       gradientUnits="userSpaceOnUse"
       r="1"
       cy="0"
       cx="0"
       fy="0"
       fx="0"><stop
         id="stop438"
         offset="0"
         style="stop-opacity:1;stop-color:#443325" /><stop
         id="stop440"
         offset="0.28817826"
         style="stop-opacity:1;stop-color:#443325" /><stop
         id="stop442"
         offset="0.994688"
         style="stop-opacity:1;stop-color:#1c0000" /><stop
         id="stop444"
         offset="1"
         style="stop-opacity:1;stop-color:#1c0000" /></radialGradient><clipPath
       id="clipPath458"
       clipPathUnits="userSpaceOnUse"><path
         id="path456"
         d="m 1561.12,4514.17 c 17.36,-36.64 1.73,-80.41 -34.9,-97.77 -36.64,-17.36 -80.41,-1.73 -97.78,34.91 -17.36,36.63 -1.73,80.41 34.9,97.77 36.64,17.36 80.41,1.73 97.78,-34.91 z" /></clipPath><radialGradient
       id="radialGradient468"
       spreadMethod="pad"
       gradientTransform="matrix(66.3368,31.4323,31.4323,-66.3368,1494.77,4482.74)"
       gradientUnits="userSpaceOnUse"
       r="1"
       cy="0"
       cx="0"
       fy="0"
       fx="0"><stop
         id="stop460"
         offset="0"
         style="stop-opacity:1;stop-color:#443325" /><stop
         id="stop462"
         offset="0.28817826"
         style="stop-opacity:1;stop-color:#443325" /><stop
         id="stop464"
         offset="0.994688"
         style="stop-opacity:1;stop-color:#1c0000" /><stop
         id="stop466"
         offset="1"
         style="stop-opacity:1;stop-color:#1c0000" /></radialGradient><clipPath
       id="clipPath480"
       clipPathUnits="userSpaceOnUse"><path
         id="path478"
         d="m 2494.02,2023.01 c -17.27,-41.55 -25.43,-76.8 -29.64,-101.25 -8.42,-48.96 -2.32,-61.99 5.25,-68.25 11.38,-9.41 28.5,-5.51 32.6,-4.56 25.31,5.75 44.9,31.55 51.95,65.16 -1.81,-10.92 -11.02,-73.02 30.42,-121.6 9.56,-11.2 36.78,-43.1 80.43,-43.83 44.18,-0.72 72.55,31.01 75.6,34.55 34.04,39.31 23.71,94.04 17.95,124.53 -15.19,80.55 -69.47,131.58 -94.53,152.18 -15.88,3.72 -37.34,6.75 -62.44,4.69 -52.7,-4.32 -90.26,-28.61 -107.59,-41.62 z" /></clipPath><radialGradient
       id="radialGradient490"
       spreadMethod="pad"
       gradientTransform="matrix(360.9,-165.345,-165.345,-360.9,2670.7,1599.45)"
       gradientUnits="userSpaceOnUse"
       r="1"
       cy="0"
       cx="0"
       fy="0"
       fx="0"><stop
         id="stop482"
         offset="0"
         style="stop-opacity:1;stop-color:#db151b" /><stop
         id="stop484"
         offset="0.756308"
         style="stop-opacity:1;stop-color:#bf0005" /><stop
         id="stop486"
         offset="0.997344"
         style="stop-opacity:1;stop-color:#910005" /><stop
         id="stop488"
         offset="1"
         style="stop-opacity:1;stop-color:#910005" /></radialGradient><clipPath
       id="clipPath500"
       clipPathUnits="userSpaceOnUse"><path
         id="path498"
         d="m 2392.74,2128.37 c -4.25,-7.99 -19.69,-39.51 -8.8,-72.05 13.72,-40.98 60.11,-56.46 77.47,-62.25 51.18,-17.07 95.92,-3.65 134.56,7.95 52.31,15.71 107.71,32.34 124.81,80.02 9.66,26.92 7.19,63.96 -13.98,87.45 -16.09,17.83 -38.23,22.62 -58.42,25.33 -28.63,3.85 -205.47,27.62 -255.64,-66.45 z" /></clipPath><radialGradient
       id="radialGradient510"
       spreadMethod="pad"
       gradientTransform="matrix(267.997,-74.762,-74.762,-267.997,2588,1944.57)"
       gradientUnits="userSpaceOnUse"
       r="1"
       cy="0"
       cx="0"
       fy="0"
       fx="0"><stop
         id="stop502"
         offset="0"
         style="stop-opacity:1;stop-color:#ffffff" /><stop
         id="stop504"
         offset="0.4548519"
         style="stop-opacity:1;stop-color:#ffffff" /><stop
         id="stop506"
         offset="0.899734"
         style="stop-opacity:1;stop-color:#ffceb8" /><stop
         id="stop508"
         offset="1"
         style="stop-opacity:1;stop-color:#ffcfc3" /></radialGradient><clipPath
       id="clipPath520"
       clipPathUnits="userSpaceOnUse"><path
         id="path518"
         d="m 2367.89,5056.94 c 49.43,439.91 -299.17,793.9 -649.99,786.02 -353.84,-7.94 -687.99,-383.51 -612.19,-823.81 127.52,63.48 383.47,168.98 718.01,158.72 237.88,-7.3 426.2,-70.39 544.17,-120.93 z" /></clipPath><radialGradient
       id="radialGradient530"
       spreadMethod="pad"
       gradientTransform="matrix(1134.79,0,0,-1134.79,2806.96,5242.18)"
       gradientUnits="userSpaceOnUse"
       r="1"
       cy="0"
       cx="0"
       fy="0"
       fx="0"><stop
         id="stop522"
         offset="0"
         style="stop-opacity:1;stop-color:#db151b" /><stop
         id="stop524"
         offset="0.756308"
         style="stop-opacity:1;stop-color:#bf0005" /><stop
         id="stop526"
         offset="0.997344"
         style="stop-opacity:1;stop-color:#910005" /><stop
         id="stop528"
         offset="1"
         style="stop-opacity:1;stop-color:#910005" /></radialGradient><clipPath
       id="clipPath540"
       clipPathUnits="userSpaceOnUse"><path
         id="path538"
         d="m 1028.48,4934.28 c -17.79,-102.58 1.56,-187.81 16.37,-235.35 123.68,70.05 379.12,192.34 722.19,198.29 260.08,4.51 466.06,-59.64 588.86,-108.84 25.15,23.34 85.72,86.29 84.38,171.21 -0.15,9.72 -1.13,20.21 -3.3,31.35 0,0 -7.67,45.58 -32.98,89.21 -16.2,27.96 -157.8,190.08 -562.97,206.18 -348.31,13.84 -713.45,-87.29 -783.25,-250.56 -19.86,-46.48 -29.3,-101.48 -29.3,-101.49 z" /></clipPath><radialGradient
       id="radialGradient550"
       spreadMethod="pad"
       gradientTransform="matrix(917.157,234.78,234.78,-917.157,1600.42,5362.84)"
       gradientUnits="userSpaceOnUse"
       r="1"
       cy="0"
       cx="0"
       fy="0"
       fx="0"><stop
         id="stop542"
         offset="0"
         style="stop-opacity:1;stop-color:#ffffff" /><stop
         id="stop544"
         offset="0.4548519"
         style="stop-opacity:1;stop-color:#ffffff" /><stop
         id="stop546"
         offset="0.899734"
         style="stop-opacity:1;stop-color:#ffceb8" /><stop
         id="stop548"
         offset="1"
         style="stop-opacity:1;stop-color:#ffcfc3" /></radialGradient><clipPath
       id="clipPath560"
       clipPathUnits="userSpaceOnUse"><path
         id="path558"
         d="m 2133.19,5678.43 c -46.78,28.43 -159.08,87.37 -271.69,51.16 -128.5,-41.33 -188.19,-184.32 -234.29,-294.75 -78.96,-189.18 -42.83,-277.19 -136.04,-393.02 -55.62,-69.1 -124.28,-107.11 -173.84,-128.48 4.39,48.18 6.65,119.58 -7.55,204.07 -12.38,73.63 -25.6,87.72 -37.79,158.71 -8.44,49.12 -23.73,143.06 0,249.41 7.35,32.96 31.35,140.52 113.37,226.73 153.54,161.4 443.72,177.44 627.31,52.91 59.71,-40.51 97.61,-90.16 120.52,-126.74 z" /></clipPath><radialGradient
       id="radialGradient570"
       spreadMethod="pad"
       gradientTransform="matrix(619.273,0,0,-619.273,1712.01,5575.08)"
       gradientUnits="userSpaceOnUse"
       r="1"
       cy="0"
       cx="0"
       fy="0"
       fx="0"><stop
         id="stop562"
         offset="0"
         style="stop-opacity:1;stop-color:#db151b" /><stop
         id="stop564"
         offset="0.756308"
         style="stop-opacity:1;stop-color:#bf0005" /><stop
         id="stop566"
         offset="0.997344"
         style="stop-opacity:1;stop-color:#910005" /><stop
         id="stop568"
         offset="1"
         style="stop-opacity:1;stop-color:#910005" /></radialGradient><clipPath
       id="clipPath580"
       clipPathUnits="userSpaceOnUse"><path
         id="path578"
         d="m 1124.5,4859.94 c 23.96,104.96 147.61,174.37 257.16,141.34 105.35,-31.78 168.84,-149.64 140.15,-242.76 -36.2,-117.5 -209.93,-165.46 -313.98,-97.35 -60.73,39.75 -101.05,121.19 -83.33,198.77 z" /></clipPath><radialGradient
       id="radialGradient590"
       spreadMethod="pad"
       gradientTransform="matrix(256.144,0,0,-256.144,1331.87,4887.81)"
       gradientUnits="userSpaceOnUse"
       r="1"
       cy="0"
       cx="0"
       fy="0"
       fx="0"><stop
         id="stop582"
         offset="0"
         style="stop-opacity:1;stop-color:#ffffff" /><stop
         id="stop584"
         offset="0.4548519"
         style="stop-opacity:1;stop-color:#ffffff" /><stop
         id="stop586"
         offset="0.899734"
         style="stop-opacity:1;stop-color:#ffceb8" /><stop
         id="stop588"
         offset="1"
         style="stop-opacity:1;stop-color:#ffcfc3" /></radialGradient><clipPath
       id="clipPath600"
       clipPathUnits="userSpaceOnUse"><path
         id="path598"
         d="m 2036.42,1775.3 c -13.72,50.81 -29.56,100.88 -47.53,150.34 -5.59,15.33 -30.29,8.72 -24.65,-6.8 17.99,-49.45 33.82,-99.54 47.55,-150.34 4.27,-15.87 28.94,-9.13 24.63,6.8 z" /></clipPath><radialGradient
       id="radialGradient610"
       spreadMethod="pad"
       gradientTransform="matrix(67.0714,0,0,-67.0714,2000.17,1846.89)"
       gradientUnits="userSpaceOnUse"
       r="1"
       cy="0"
       cx="0"
       fy="0"
       fx="0"><stop
         id="stop602"
         offset="0"
         style="stop-opacity:1;stop-color:#db151b" /><stop
         id="stop604"
         offset="0.756308"
         style="stop-opacity:1;stop-color:#bf0005" /><stop
         id="stop606"
         offset="0.997344"
         style="stop-opacity:1;stop-color:#910005" /><stop
         id="stop608"
         offset="1"
         style="stop-opacity:1;stop-color:#910005" /></radialGradient><clipPath
       id="clipPath620"
       clipPathUnits="userSpaceOnUse"><path
         id="path618"
         d="m 2101.23,1792.68 c -6.65,7.56 -12.82,26.13 -16.68,33.64 -5.05,9.84 -9.91,19.76 -14.57,29.79 -11.95,25.76 -22.35,52.13 -31.77,78.91 -5.41,15.42 -30.11,8.79 -24.64,-6.78 10.75,-30.62 22.84,-60.7 36.71,-90.02 9.91,-20.94 20.91,-56.09 40.31,-69.8 6.94,-4.9 16.62,0.3 18.77,7.64 l 0.33,1.1 c 1.96,6.67 -2.24,13.25 -8.46,15.52 z" /></clipPath><radialGradient
       id="radialGradient630"
       spreadMethod="pad"
       gradientTransform="matrix(71.5135,0,0,-71.5135,2061.48,1855.15)"
       gradientUnits="userSpaceOnUse"
       r="1"
       cy="0"
       cx="0"
       fy="0"
       fx="0"><stop
         id="stop622"
         offset="0"
         style="stop-opacity:1;stop-color:#db151b" /><stop
         id="stop624"
         offset="0.756308"
         style="stop-opacity:1;stop-color:#bf0005" /><stop
         id="stop626"
         offset="0.997344"
         style="stop-opacity:1;stop-color:#910005" /><stop
         id="stop628"
         offset="1"
         style="stop-opacity:1;stop-color:#910005" /></radialGradient><clipPath
       id="clipPath640"
       clipPathUnits="userSpaceOnUse"><path
         id="path638"
         d="m 2162.58,1797.94 c -26.56,40.99 -53.13,81.98 -79.69,122.96 -8.91,13.74 -31.04,0.95 -22.05,-12.92 26.55,-40.98 53.12,-81.95 79.67,-122.94 8.91,-13.76 31.05,-0.96 22.07,12.9 z" /></clipPath><radialGradient
       id="radialGradient650"
       spreadMethod="pad"
       gradientTransform="matrix(64.249,0,0,-64.249,2111.71,1852.96)"
       gradientUnits="userSpaceOnUse"
       r="1"
       cy="0"
       cx="0"
       fy="0"
       fx="0"><stop
         id="stop642"
         offset="0"
         style="stop-opacity:1;stop-color:#db151b" /><stop
         id="stop644"
         offset="0.756308"
         style="stop-opacity:1;stop-color:#bf0005" /><stop
         id="stop646"
         offset="0.997344"
         style="stop-opacity:1;stop-color:#910005" /><stop
         id="stop648"
         offset="1"
         style="stop-opacity:1;stop-color:#910005" /></radialGradient><clipPath
       id="clipPath660"
       clipPathUnits="userSpaceOnUse"><path
         id="path658"
         d="m 2223.11,1817.94 c -22.66,45.88 -65.8,78.25 -85.71,125.53 -6.3,14.92 -31.04,8.37 -24.66,-6.8 20.96,-49.74 64.59,-83.64 88.3,-131.63 7.28,-14.74 29.33,-1.79 22.07,12.9 z" /></clipPath><radialGradient
       id="radialGradient670"
       spreadMethod="pad"
       gradientTransform="matrix(67.3188,0,0,-67.3188,2168.13,1875.22)"
       gradientUnits="userSpaceOnUse"
       r="1"
       cy="0"
       cx="0"
       fy="0"
       fx="0"><stop
         id="stop662"
         offset="0"
         style="stop-opacity:1;stop-color:#db151b" /><stop
         id="stop664"
         offset="0.756308"
         style="stop-opacity:1;stop-color:#bf0005" /><stop
         id="stop666"
         offset="0.997344"
         style="stop-opacity:1;stop-color:#910005" /><stop
         id="stop668"
         offset="1"
         style="stop-opacity:1;stop-color:#910005" /></radialGradient><clipPath
       id="clipPath680"
       clipPathUnits="userSpaceOnUse"><path
         id="path678"
         d="m 2261.64,1853.9 c -0.8,1.64 -1.59,3.29 -2.38,4.93 -0.95,1.96 -2.17,3.4 -3.52,4.45 -23.84,37.91 -47.66,75.83 -71.51,113.74 -8.73,13.9 -30.85,1.09 -22.06,-12.9 25.8,-41.03 51.6,-82.08 77.39,-123.12 8.86,-14.07 29.18,-1.82 22.08,12.9 z" /></clipPath><radialGradient
       id="radialGradient690"
       spreadMethod="pad"
       gradientTransform="matrix(63.8128,0,0,-63.8128,2211.62,1908.9)"
       gradientUnits="userSpaceOnUse"
       r="1"
       cy="0"
       cx="0"
       fy="0"
       fx="0"><stop
         id="stop682"
         offset="0"
         style="stop-opacity:1;stop-color:#db151b" /><stop
         id="stop684"
         offset="0.756308"
         style="stop-opacity:1;stop-color:#bf0005" /><stop
         id="stop686"
         offset="0.997344"
         style="stop-opacity:1;stop-color:#910005" /><stop
         id="stop688"
         offset="1"
         style="stop-opacity:1;stop-color:#910005" /></radialGradient><clipPath
       id="clipPath700"
       clipPathUnits="userSpaceOnUse"><path
         id="path698"
         d="m 2332.25,1939.33 c -23.23,5.33 -38.74,23.35 -59.33,34 -18.39,9.53 -41.65,11.3 -54.95,28.48 -5.94,7.67 -14.6,4.41 -18.67,-2.15 -9.38,0.53 -18.97,-8.76 -12.19,-18.51 l 78.57,-113.04 c 9.33,-13.41 31.49,-0.66 22.07,12.9 l -56.96,81.94 c 9.63,-3.72 19.69,-6.81 29.23,-11.68 22.81,-11.66 39.66,-30.67 65.43,-36.58 16.01,-3.67 22.85,20.97 6.8,24.64 z" /></clipPath><radialGradient
       id="radialGradient710"
       spreadMethod="pad"
       gradientTransform="matrix(75.1702,0,0,-75.1702,2263.12,1934.34)"
       gradientUnits="userSpaceOnUse"
       r="1"
       cy="0"
       cx="0"
       fy="0"
       fx="0"><stop
         id="stop702"
         offset="0"
         style="stop-opacity:1;stop-color:#db151b" /><stop
         id="stop704"
         offset="0.756308"
         style="stop-opacity:1;stop-color:#bf0005" /><stop
         id="stop706"
         offset="0.997344"
         style="stop-opacity:1;stop-color:#910005" /><stop
         id="stop708"
         offset="1"
         style="stop-opacity:1;stop-color:#910005" /></radialGradient><clipPath
       id="clipPath720"
       clipPathUnits="userSpaceOnUse"><path
         id="path718"
         d="m 2357.91,1981.16 c -16.84,-2.38 -33.82,5.98 -49.03,12.02 -16.92,6.71 -33.42,14.28 -49.76,22.31 -14.7,7.24 -27.66,-14.8 -12.89,-22.07 35.1,-17.24 78.22,-42.59 118.47,-36.92 16.23,2.29 9.32,26.91 -6.79,24.66 z" /></clipPath><radialGradient
       id="radialGradient730"
       spreadMethod="pad"
       gradientTransform="matrix(52.1645,0,0,-52.1645,2306.84,1986.3)"
       gradientUnits="userSpaceOnUse"
       r="1"
       cy="0"
       cx="0"
       fy="0"
       fx="0"><stop
         id="stop722"
         offset="0"
         style="stop-opacity:1;stop-color:#db151b" /><stop
         id="stop724"
         offset="0.756308"
         style="stop-opacity:1;stop-color:#bf0005" /><stop
         id="stop726"
         offset="0.997344"
         style="stop-opacity:1;stop-color:#910005" /><stop
         id="stop728"
         offset="1"
         style="stop-opacity:1;stop-color:#910005" /></radialGradient><clipPath
       id="clipPath740"
       clipPathUnits="userSpaceOnUse"><path
         id="path738"
         d="m 1215.22,2183.54 c -42.51,-32.32 -112.19,-52.11 -110.32,-75.97 0.66,-8.34 11.98,-23.89 18.07,-18.07 34.51,32.92 69.37,65.43 104.62,97.53 1.63,1.48 4.64,5.9 3.89,6.7 -1.27,1.37 -13.31,-7.95 -16.26,-10.19 z" /></clipPath><radialGradient
       id="radialGradient750"
       spreadMethod="pad"
       gradientTransform="matrix(58.3345,0,0,-58.3345,1168.23,2141.05)"
       gradientUnits="userSpaceOnUse"
       r="1"
       cy="0"
       cx="0"
       fy="0"
       fx="0"><stop
         id="stop742"
         offset="0"
         style="stop-opacity:1;stop-color:#db151b" /><stop
         id="stop744"
         offset="0.756308"
         style="stop-opacity:1;stop-color:#bf0005" /><stop
         id="stop746"
         offset="0.997344"
         style="stop-opacity:1;stop-color:#910005" /><stop
         id="stop748"
         offset="1"
         style="stop-opacity:1;stop-color:#910005" /></radialGradient><clipPath
       id="clipPath760"
       clipPathUnits="userSpaceOnUse"><path
         id="path758"
         d="m 1236.06,2178.69 c -34.55,-42.08 -69.11,-84.15 -103.66,-126.23 -10.36,-12.6 7.62,-30.79 18.07,-18.07 34.55,42.08 69.11,84.16 103.67,126.23 10.35,12.62 -7.63,30.79 -18.08,18.07 z" /></clipPath><radialGradient
       id="radialGradient770"
       spreadMethod="pad"
       gradientTransform="matrix(70.5044,0,0,-70.5044,1193.26,2106.55)"
       gradientUnits="userSpaceOnUse"
       r="1"
       cy="0"
       cx="0"
       fy="0"
       fx="0"><stop
         id="stop762"
         offset="0"
         style="stop-opacity:1;stop-color:#db151b" /><stop
         id="stop764"
         offset="0.756308"
         style="stop-opacity:1;stop-color:#bf0005" /><stop
         id="stop766"
         offset="0.997344"
         style="stop-opacity:1;stop-color:#910005" /><stop
         id="stop768"
         offset="1"
         style="stop-opacity:1;stop-color:#910005" /></radialGradient><clipPath
       id="clipPath780"
       clipPathUnits="userSpaceOnUse"><path
         id="path778"
         d="m 1266.77,2145.85 c -31.1,-52.63 -64.6,-103.67 -100.52,-153.15 -9.68,-13.31 12.49,-26.09 22.07,-12.89 35.92,49.47 69.42,100.51 100.52,153.15 8.39,14.18 -13.7,27.06 -22.07,12.89 z" /></clipPath><radialGradient
       id="radialGradient790"
       spreadMethod="pad"
       gradientTransform="matrix(77.2005,0,0,-77.2005,1227.29,2063.13)"
       gradientUnits="userSpaceOnUse"
       r="1"
       cy="0"
       cx="0"
       fy="0"
       fx="0"><stop
         id="stop782"
         offset="0"
         style="stop-opacity:1;stop-color:#db151b" /><stop
         id="stop784"
         offset="0.756308"
         style="stop-opacity:1;stop-color:#bf0005" /><stop
         id="stop786"
         offset="0.997344"
         style="stop-opacity:1;stop-color:#910005" /><stop
         id="stop788"
         offset="1"
         style="stop-opacity:1;stop-color:#910005" /></radialGradient><clipPath
       id="clipPath800"
       clipPathUnits="userSpaceOnUse"><path
         id="path798"
         d="m 1293.13,2093.37 c -24.93,-45.02 -48.82,-90.58 -71.67,-136.7 -7.29,-14.68 14.75,-27.64 22.06,-12.89 22.85,46.11 46.74,91.67 71.68,136.7 7.97,14.4 -14.09,27.3 -22.07,12.89 z" /></clipPath><radialGradient
       id="radialGradient810"
       spreadMethod="pad"
       gradientTransform="matrix(66.8568,0,0,-66.8568,1268.46,2018.47)"
       gradientUnits="userSpaceOnUse"
       r="1"
       cy="0"
       cx="0"
       fy="0"
       fx="0"><stop
         id="stop802"
         offset="0"
         style="stop-opacity:1;stop-color:#db151b" /><stop
         id="stop804"
         offset="0.756308"
         style="stop-opacity:1;stop-color:#bf0005" /><stop
         id="stop806"
         offset="0.997344"
         style="stop-opacity:1;stop-color:#910005" /><stop
         id="stop808"
         offset="1"
         style="stop-opacity:1;stop-color:#910005" /></radialGradient><clipPath
       id="clipPath820"
       clipPathUnits="userSpaceOnUse"><path
         id="path818"
         d="m 1344.96,2078.07 c -25.31,-45.53 -49.13,-91.8 -71.5,-138.85 -7.01,-14.77 15.01,-27.76 22.07,-12.9 22.36,47.06 46.18,93.31 71.5,138.85 8,14.38 -14.07,27.29 -22.07,12.9 z" /></clipPath><radialGradient
       id="radialGradient830"
       spreadMethod="pad"
       gradientTransform="matrix(67.4885,0,0,-67.4885,1320.42,2002.05)"
       gradientUnits="userSpaceOnUse"
       r="1"
       cy="0"
       cx="0"
       fy="0"
       fx="0"><stop
         id="stop822"
         offset="0"
         style="stop-opacity:1;stop-color:#db151b" /><stop
         id="stop824"
         offset="0.756308"
         style="stop-opacity:1;stop-color:#bf0005" /><stop
         id="stop826"
         offset="0.997344"
         style="stop-opacity:1;stop-color:#910005" /><stop
         id="stop828"
         offset="1"
         style="stop-opacity:1;stop-color:#910005" /></radialGradient><clipPath
       id="clipPath840"
       clipPathUnits="userSpaceOnUse"><path
         id="path838"
         d="m 1401.21,2071.29 c -24.74,-52.6 -49.93,-104.97 -75.58,-157.11 -7.23,-14.71 14.81,-27.69 22.07,-12.92 25.64,52.16 50.84,104.53 75.58,157.12 6.95,14.81 -15.07,27.79 -22.07,12.91 z" /></clipPath><radialGradient
       id="radialGradient850"
       spreadMethod="pad"
       gradientTransform="matrix(73.8418,0,0,-73.8418,1374.4,1986.31)"
       gradientUnits="userSpaceOnUse"
       r="1"
       cy="0"
       cx="0"
       fy="0"
       fx="0"><stop
         id="stop842"
         offset="0"
         style="stop-opacity:1;stop-color:#db151b" /><stop
         id="stop844"
         offset="0.756308"
         style="stop-opacity:1;stop-color:#bf0005" /><stop
         id="stop846"
         offset="0.997344"
         style="stop-opacity:1;stop-color:#910005" /><stop
         id="stop848"
         offset="1"
         style="stop-opacity:1;stop-color:#910005" /></radialGradient><clipPath
       id="clipPath860"
       clipPathUnits="userSpaceOnUse"><path
         id="path858"
         d="m 1457.71,2046.22 -1.17,-8.88 c -6.44,3.75 -16.57,2.48 -19.86,-6.73 l -25.29,-70.84 c -3.61,-10.12 -7.22,-20.24 -10.84,-30.35 -3.06,-8.59 -6,-26.85 -11.92,-35.11 -7.97,-4.7 -11.17,-16.78 -0.64,-21.32 l 1.71,-0.75 c 5.32,-2.29 11.12,-2.34 15.49,2.01 14.19,14.14 18.86,45.17 25.43,63.56 6.74,18.88 13.49,37.78 20.23,56.67 -4.98,-37.49 -9.96,-74.97 -14.93,-112.47 -2.16,-16.25 23.42,-16.09 25.55,0 7.27,54.74 14.54,109.47 21.8,164.21 2.16,16.24 -23.42,16.09 -25.56,0 z" /></clipPath><radialGradient
       id="radialGradient870"
       spreadMethod="pad"
       gradientTransform="matrix(75.7812,0,0,-75.7812,1432.35,1964.11)"
       gradientUnits="userSpaceOnUse"
       r="1"
       cy="0"
       cx="0"
       fy="0"
       fx="0"><stop
         id="stop862"
         offset="0"
         style="stop-opacity:1;stop-color:#db151b" /><stop
         id="stop864"
         offset="0.756308"
         style="stop-opacity:1;stop-color:#bf0005" /><stop
         id="stop866"
         offset="0.997344"
         style="stop-opacity:1;stop-color:#910005" /><stop
         id="stop868"
         offset="1"
         style="stop-opacity:1;stop-color:#910005" /></radialGradient><clipPath
       id="clipPath880"
       clipPathUnits="userSpaceOnUse"><path
         id="path878"
         d="m 1513.89,2096.89 c -37.23,-75.33 -34.95,-147.78 -36.75,-229.61 -0.36,-16.46 25.19,-16.46 25.56,0 1.68,76.77 -1.87,145.66 33.25,216.71 7.26,14.69 -14.77,27.65 -22.06,12.9 z" /></clipPath><radialGradient
       id="radialGradient890"
       spreadMethod="pad"
       gradientTransform="matrix(90.3907,0,0,-90.3907,1507.27,1979.16)"
       gradientUnits="userSpaceOnUse"
       r="1"
       cy="0"
       cx="0"
       fy="0"
       fx="0"><stop
         id="stop882"
         offset="0"
         style="stop-opacity:1;stop-color:#db151b" /><stop
         id="stop884"
         offset="0.756308"
         style="stop-opacity:1;stop-color:#bf0005" /><stop
         id="stop886"
         offset="0.997344"
         style="stop-opacity:1;stop-color:#910005" /><stop
         id="stop888"
         offset="1"
         style="stop-opacity:1;stop-color:#910005" /></radialGradient><clipPath
       id="clipPath900"
       clipPathUnits="userSpaceOnUse"><path
         id="path898"
         d="m 1514.88,2965.57 c -12.44,-87.38 -33.54,-187.16 -69.12,-294.44 -75.13,-226.56 -185.33,-397.72 -275.4,-513.44 15.6,-28.72 40.21,-65.05 78.54,-98.45 99.59,-86.74 218.82,-90.04 257.14,-89.48 71.54,90.67 170.61,238.5 237.8,441.84 61.96,187.48 73.66,352.02 72.91,463.3 -100.63,30.22 -201.25,60.44 -301.87,90.67 z" /></clipPath><radialGradient
       id="radialGradient910"
       spreadMethod="pad"
       gradientTransform="matrix(1093.61,-128.732,-128.732,-1093.61,1370.92,3380.31)"
       gradientUnits="userSpaceOnUse"
       r="1"
       cy="0"
       cx="0"
       fy="0.00649969"
       fx="-0.122609"><stop
         id="stop902"
         offset="0"
         style="stop-opacity:1;stop-color:#db151b" /><stop
         id="stop904"
         offset="0.756308"
         style="stop-opacity:1;stop-color:#bf0005" /><stop
         id="stop906"
         offset="0.997344"
         style="stop-opacity:1;stop-color:#910005" /><stop
         id="stop908"
         offset="1"
         style="stop-opacity:1;stop-color:#910005" /></radialGradient><clipPath
       id="clipPath920"
       clipPathUnits="userSpaceOnUse"><path
         id="path918"
         d="m 1634.06,2850.67 c 10.73,-162.38 45.97,-391.59 155.31,-642.57 59.93,-137.57 128.92,-251.39 193.13,-341.92 28.72,-6.86 69.68,-12.46 117.27,-5 120.86,18.98 191.1,107.67 209.11,132 -56.73,103.16 -113.67,219.47 -166.52,348.83 -90.15,220.65 -146.59,425.86 -182.57,602.52 -85,-17.41 -174.76,-41.07 -267.81,-73.02 -19.69,-6.78 -39,-13.73 -57.92,-20.84 z" /></clipPath><radialGradient
       id="radialGradient930"
       spreadMethod="pad"
       gradientTransform="matrix(1132.68,0,0,-1132.68,2597.34,3131)"
       gradientUnits="userSpaceOnUse"
       r="1"
       cy="0"
       cx="0"
       fy="0"
       fx="0"><stop
         id="stop922"
         offset="0"
         style="stop-opacity:1;stop-color:#db151b" /><stop
         id="stop924"
         offset="0.756308"
         style="stop-opacity:1;stop-color:#bf0005" /><stop
         id="stop926"
         offset="0.997344"
         style="stop-opacity:1;stop-color:#910005" /><stop
         id="stop928"
         offset="1"
         style="stop-opacity:1;stop-color:#910005" /></radialGradient><clipPath
       id="clipPath940"
       clipPathUnits="userSpaceOnUse"><path
         id="path938"
         d="m 1261.7,3131.75 c -9.49,-6.8 -59.54,-44.12 -70.42,-113.72 -12.06,-77.12 33.66,-132.01 40.39,-139.81 97.2,-41.18 296.07,-109.71 549.98,-85.38 196.53,18.84 345.8,85.64 432.7,133.02 8.49,15.01 33.84,64.26 23.77,128.69 -8.15,52.01 -35.07,86.39 -47.25,100.21 -111.4,-36.39 -273.02,-75.82 -470.63,-79.77 -190.12,-3.8 -347.79,26.57 -458.54,56.76 z" /></clipPath><radialGradient
       id="radialGradient950"
       spreadMethod="pad"
       gradientTransform="matrix(692.649,0,0,-692.649,1745.22,3466.88)"
       gradientUnits="userSpaceOnUse"
       r="1"
       cy="0"
       cx="0"
       fy="0"
       fx="0"><stop
         id="stop942"
         offset="0"
         style="stop-opacity:1;stop-color:#db151b" /><stop
         id="stop944"
         offset="0.756308"
         style="stop-opacity:1;stop-color:#bf0005" /><stop
         id="stop946"
         offset="0.997344"
         style="stop-opacity:1;stop-color:#910005" /><stop
         id="stop948"
         offset="1"
         style="stop-opacity:1;stop-color:#910005" /></radialGradient></defs><g
     transform="matrix(1.3333333,0,0,-1.3333333,0,918.44)"
     id="g10"><g
       transform="scale(0.1)"
       id="g12"><g
         id="g14"><g
           clip-path="url(#clipPath20)"
           id="g16"><path
             id="path30"
             style="fill:url(#radialGradient28);fill-opacity:1;fill-rule:nonzero;stroke:none"
             d="m 2193.09,2950.34 c 81.91,-92.64 183.25,-225.98 270.82,-402.32 86.34,-173.91 131.22,-333.07 155.69,-453.27 -19.26,-15.98 -46.93,-33.26 -76.66,-28.78 -93.15,14.06 -98.29,225.77 -212.14,442.71 -42.75,81.49 -110.42,181.95 -222.34,283.28 28.21,52.8 56.41,105.57 84.63,158.38" /></g></g><g
         id="g32"><g
           clip-path="url(#clipPath38)"
           id="g34"><path
             id="path48"
             style="fill:url(#radialGradient46);fill-opacity:1;fill-rule:nonzero;stroke:none"
             d="M 1271.58,2923.55 C 1188.34,2832.08 1085.11,2700.22 995.035,2525.16 906.191,2352.49 859.055,2194 832.859,2074.15 c 19.032,-16.25 46.461,-33.93 76.239,-29.87 93.342,12.73 101.512,224.33 218.452,439.64 43.92,80.86 113.03,180.33 226.38,280.06 -27.45,53.19 -54.9,106.37 -82.35,159.57" /></g></g><g
         id="g50"><g
           clip-path="url(#clipPath56)"
           id="g52"><path
             id="path66"
             style="fill:url(#radialGradient64);fill-opacity:1;fill-rule:nonzero;stroke:none"
             d="m 2376.11,2535.34 c -88.58,257.34 -215.55,425.1 -248.88,467.92 -152.02,195.24 -319.62,313.15 -429.27,378.42 -145.38,-129.72 -333.95,-334.02 -476.69,-627.31 -71.78,-147.52 -203.1,-427.47 -192.75,-799.77 3.2,-115.21 11.01,-396.07 147.95,-598.99 15.51,-22.96 52.5,-74.32 99.56,-154.3 67.64,-114.96 112.49,-214.99 140.11,-282.478 -8.49,-11.762 11.57,-138.391 23.67,-148.844 5.18,-151.277 10.36,-302.558 15.54,-453.84 59.63,3.063 119.26,6.114 178.89,9.18 -2.62,151.121 -5.25,302.262 -7.87,453.391 10.32,13.121 18.13,129.66 9.38,143.672 13.7,84.109 67.35,147.839 123.12,154.479 73.27,8.72 171.68,-78.518 166.65,-213.671 -8.81,-14 -0.97,-130.539 9.41,-143.668 -2.64,-151.14 -5.28,-302.269 -7.92,-453.402 59.92,-3.059 119.87,-6.109 179.8,-9.16 5.21,151.281 10.43,302.551 15.64,453.832 12.16,10.449 32.32,137.078 23.81,148.847 3.29,91.571 21.15,223.412 95.46,356.592 35.8,64.18 64.26,92.02 94.57,134.4 109.92,153.69 118.69,323.26 129.1,524.45 17.33,335.02 -64.58,588.48 -89.28,660.25" /></g></g><g
         id="g68"><g
           clip-path="url(#clipPath74)"
           id="g70"><path
             id="path84"
             style="fill:url(#radialGradient82);fill-opacity:1;fill-rule:nonzero;stroke:none"
             d="m 2487.52,4523.8 c -6.13,20.67 -12.8,40.59 -20.28,60.19 47.55,12.89 98.39,62.56 123.95,108.63 19.02,34.29 43.41,101.46 15.12,128.49 -8.7,8.31 -20.7,11.23 -33.72,11.23 -19.25,0 -40.71,-6.39 -56.97,-11.23 -16.23,-4.84 -92.81,-27.64 -127.86,-81.61 -2.03,3.22 -4.14,6.52 -6.33,9.9 -0.07,0.11 -0.14,0.22 -0.21,0.33 -22.6,35.72 -45.52,68.49 -68.08,98.41 106.35,85.81 211.42,127.33 288.94,127.33 38.05,0 69.45,-9.99 91.14,-29.66 52.27,-47.39 36.95,-140.87 34.02,-158.72 -17.96,-109.44 -108.67,-203.51 -239.72,-263.29" /></g></g><g
         id="g86"><g
           clip-path="url(#clipPath92)"
           id="g88"><path
             id="path100"
             style="fill:url(#radialGradient98);fill-opacity:1;fill-rule:nonzero;stroke:none"
             d="m 2467.24,4583.99 c -12.98,34.01 -28.41,67.1 -47.75,101.68 -6.77,12.12 -17.31,30.96 -31.73,53.83 35.05,53.97 111.63,76.77 127.86,81.61 16.26,4.84 37.72,11.23 56.97,11.23 13.02,0 25.02,-2.92 33.72,-11.23 28.29,-27.03 3.9,-94.2 -15.12,-128.49 -25.56,-46.07 -76.4,-95.74 -123.95,-108.63" /></g></g><g
         id="g102"><g
           clip-path="url(#clipPath108)"
           id="g104"><path
             id="path118"
             style="fill:url(#radialGradient116);fill-opacity:1;fill-rule:nonzero;stroke:none"
             d="m 970.961,4465.11 c -141.086,59.17 -239.609,156.89 -258.402,271.47 -2.93,17.85 -18.262,111.32 34.007,158.72 21.692,19.66 53.094,29.66 91.145,29.66 74.828,0 175.329,-38.7 277.879,-118.56 -16.08,-18.69 -30.85,-38.23 -44.1,-58.55 -2.87,-4.39 -5.65,-8.92 -8.35,-13.59 -6.27,-8.12 -10.21,-14.5 -11.78,-18.54 -2.2,-5.65 -4.4,-11.39 -6.47,-16.84 -37.37,46.9 -105.515,67.18 -120.714,71.71 -16.27,4.84 -37.731,11.24 -56.973,11.24 -13.023,0 -25.023,-2.93 -33.723,-11.24 -28.285,-27.04 -3.906,-94.2 15.118,-128.49 28.636,-51.61 88.996,-107.75 140.922,-111.6 -5.762,-20.12 -11.903,-41.84 -18.555,-65.38 v 0" /></g></g><g
         id="g120"><g
           clip-path="url(#clipPath126)"
           id="g122"><path
             id="path134"
             style="fill:url(#radialGradient132);fill-opacity:1;fill-rule:nonzero;stroke:none"
             d="m 989.52,4530.5 c -51.926,3.85 -112.286,59.99 -140.922,111.6 -19.024,34.29 -43.403,101.45 -15.118,128.49 8.7,8.31 20.7,11.24 33.723,11.24 19.242,0 40.703,-6.4 56.973,-11.24 15.199,-4.53 83.344,-24.81 120.714,-71.71 -1.02,-2.68 -2,-5.29 -2.94,-7.79 -16.81,-39.79 -32.33,-90.43 -52.43,-160.59" /></g></g><g
         id="g136"><g
           clip-path="url(#clipPath142)"
           id="g138"><path
             id="path154"
             style="fill:url(#radialGradient152);fill-opacity:1;fill-rule:nonzero;stroke:none"
             d="m 957.398,2000.62 c 16.684,-41.8 24.325,-77.14 28.192,-101.66 7.723,-49.08 1.43,-62.01 -6.231,-68.16 -11.511,-9.24 -28.562,-5.11 -32.656,-4.11 -25.234,6.13 -44.445,32.19 -51.019,65.9 1.652,-10.95 9.976,-73.17 -32.153,-121.15 -9.718,-11.06 -37.394,-42.57 -81.054,-42.67 -44.18,-0.09 -72.094,32.04 -75.11,35.63 -33.449,39.79 -22.347,94.37 -16.16,124.76 16.348,80.35 71.356,130.58 96.699,150.83 15.938,3.49 37.442,6.21 62.508,3.78 52.633,-5.08 89.852,-29.9 106.984,-43.15" /></g></g><g
         id="g156"><g
           clip-path="url(#clipPath162)"
           id="g158"><path
             id="path174"
             style="fill:url(#radialGradient172);fill-opacity:1;fill-rule:nonzero;stroke:none"
             d="m 1060.17,2104.53 c 4.16,-8.05 19.14,-39.8 7.78,-72.18 -14.31,-40.78 -60.93,-55.59 -78.364,-61.15 -51.406,-16.32 -95.965,-2.25 -134.418,9.9 -52.086,16.46 -107.242,33.87 -123.668,81.79 -9.27,27.06 -6.273,64.08 15.246,87.25 16.336,17.59 38.543,22.05 58.777,24.48 28.676,3.44 205.837,24.67 254.647,-70.09" /></g></g><g
         id="g176"><g
           clip-path="url(#clipPath182)"
           id="g178"><path
             id="path194"
             style="fill:url(#radialGradient192);fill-opacity:1;fill-rule:nonzero;stroke:none"
             d="m 1888.9,347.668 c 3.82,-107.277 6.01,-171.168 7.56,-216.969 2.18,-64.7576 2.72,-83.1092 17.27,-101.4802 31.33,-39.5274 87.8,-28.957081 227.76,-24.61724 205.44,6.35934 269.88,-10.66015 293.62,32.17974 18.27,32.9687 0.68,80.1097 -15.1,104.7067 -27.29,42.492 -73.27,55.192 -92.31,60.461 -69.78,19.27 -106.33,-12.168 -136.56,10.789 -16.91,12.84 -32.23,43.051 -18.88,121.981 -94.45,4.32 -188.9,8.633 -283.36,12.949" /></g></g><g
         id="g196"><g
           clip-path="url(#clipPath202)"
           id="g198"><path
             id="path214"
             style="fill:url(#radialGradient212);fill-opacity:1;fill-rule:nonzero;stroke:none"
             d="m 1888.9,436.719 c -22.07,-23.559 -25,-53.828 -25.9,-63.149 -0.48,-4.91 -4.85,-57.59 28.17,-89.66 17.13,-16.648 32.89,-16.64 159.66,-17.199 81.79,-0.359 100.7,-0.492 118.42,16.281 29.37,27.778 26.14,74.207 25.68,80.867 -0.55,7.832 -3.85,43.723 -30.77,71.25 -31.05,31.762 -73.05,31.391 -147.34,30.77 -66,-0.57 -101.96,-1.438 -127.92,-29.16" /></g></g><g
         id="g216"><g
           clip-path="url(#clipPath222)"
           id="g218"><path
             id="path234"
             style="fill:url(#radialGradient232);fill-opacity:1;fill-rule:nonzero;stroke:none"
             d="m 1662.09,347.668 c -3.82,-107.277 -6.02,-171.168 -7.56,-216.969 -2.18,-64.7576 -2.72,-83.1092 -17.27,-101.4802 -31.32,-39.5274 -87.8,-28.957081 -227.76,-24.61724 -205.45,6.35934 -269.88,-10.66015 -293.62,32.17974 -18.27,32.9687 -0.68,80.1097 15.11,104.7067 27.28,42.492 73.27,55.192 92.3,60.461 69.78,19.27 106.33,-12.168 136.54,10.789 16.92,12.84 32.25,43.051 18.9,121.981 94.45,4.32 188.91,8.633 283.36,12.949" /></g></g><g
         id="g236"><g
           clip-path="url(#clipPath242)"
           id="g238"><path
             id="path254"
             style="fill:url(#radialGradient252);fill-opacity:1;fill-rule:nonzero;stroke:none"
             d="m 1662.09,436.719 c 22.07,-23.559 25.01,-53.828 25.9,-63.149 0.49,-4.91 4.85,-57.59 -28.17,-89.66 -17.13,-16.648 -32.9,-16.64 -159.65,-17.199 -81.81,-0.359 -100.71,-0.492 -118.43,16.281 -29.37,27.778 -26.14,74.207 -25.68,80.867 0.54,7.832 3.85,43.723 30.77,71.25 31.06,31.762 73.05,31.391 147.34,30.77 66,-0.57 101.96,-1.438 127.92,-29.16" /></g></g><g
         id="g256"><g
           clip-path="url(#clipPath262)"
           id="g258"><path
             id="path270"
             style="fill:url(#radialGradient268);fill-opacity:1;fill-rule:nonzero;stroke:none"
             d="m 1265.98,2114.13 c 37.39,268.71 250.22,589.89 502.12,575.16 256.63,-15 400.56,-369.74 437.94,-567.74 35.65,-188.93 34.92,-556.45 -212.21,-695.91 -170.91,-96.45 -359.47,-27.28 -380.93,-19.03 -266.97,102.64 -383.88,442.04 -346.92,707.52" /></g></g><path
         id="path272"
         style="fill:#381b0a;fill-opacity:1;fill-rule:nonzero;stroke:none"
         d="m 2429.7,6096.91 c -97.57,126.88 -171.36,146.52 -169.27,216.4 1.58,52.43 45.06,106.34 83.77,107.28 32.21,0.79 46.88,-36.18 123.19,-140.25 108.18,-147.52 151.07,-171.84 187.85,-168.71 7.09,0.6 22.11,1.87 34.13,12.67 30.25,27.17 20.42,95.88 -45.82,259.1 -87.52,215.66 -140.87,270.16 -128.62,378.48 1.61,14.18 12.9,113.91 59.04,125.31 65.17,16.1 166.42,-152.2 218.7,-266.71 120.15,-263.24 86.02,-465.78 143.15,-476.09 77.5,-13.98 157.73,355.98 284.95,350.28 63.05,-2.83 114.21,-96.87 124.28,-165.42 24.83,-169.05 -180.18,-319.61 -208.59,-340.46 -2.93,-2.16 -5.34,-3.89 -7.12,-5.17 -84.29,-60.37 -147.84,-74.78 -262.99,-176.25 -6.88,-6.06 -99.08,-92.62 -81.4,-121.25 14.16,-22.95 85.87,12.47 114.87,-22.09 17.46,-20.79 9.21,-54.71 4.73,-73.1 0,0 -14.21,-58.51 -65.73,-97.07 -90.98,-68.08 -189.13,44.17 -383.76,15.01 -19.47,-2.92 -169.29,-27.33 -285.76,-141.24 -24.19,-23.66 -42.55,-45.39 -50.46,-57.33 -71.36,-107.72 -60.54,-207.4 -143.83,-239.6 -62.4,-24.14 -132.91,8.44 -178.97,36.23 54.53,261.4 139.35,364.33 210.27,408.51 24.18,15.08 97.58,55 110.38,125.04 1.68,9.19 3.15,23.51 -13.54,94.51 -28.69,122.06 -53.01,154.43 -34.49,180.35 17.74,24.8 65.68,31.39 97.53,16.17 48.75,-23.29 38.71,-87.54 92.4,-140.31 35.13,-34.52 77.54,-50.72 77.54,-50.72 1,-0.38 1.49,-0.57 2.12,-0.8 54.6,-19.23 113.41,23.15 127.23,33.11 13.68,9.86 46.96,34.15 61.43,72.33 31.81,84.01 -46.49,185.83 -97.21,251.79" /><path
         id="path274"
         style="fill:#5b2817;fill-opacity:1;fill-rule:nonzero;stroke:none"
         d="m 2344.59,6149.91 c -109.76,136.78 -129.06,172.91 -119.05,209.72 12.42,45.67 67.29,82.48 110.25,76.12 32.67,-4.85 43.26,-32.4 97.33,-104.98 124.85,-167.65 176.93,-166.45 191.14,-164.96 7.08,0.74 22.08,2.31 33.87,13.34 29.71,27.77 18.52,96.27 -50.94,258.14 -101.65,236.89 -169.54,302.21 -136.1,375.87 18.44,40.58 61.66,74.09 102.88,74.03 80.45,-0.12 139.38,-125.8 177.61,-209.91 123.99,-272.8 89.64,-458.23 152.55,-473.15 85.32,-20.25 190.26,310.82 316.64,290.54 47.16,-7.57 78.45,-61.03 88.85,-97.61 44.56,-156.77 -198.43,-342.08 -208.83,-349.85 -83.07,-62.01 -146.32,-77.69 -259.44,-181.41 -58.38,-53.54 -89.06,-92.95 -78.98,-122.84 16.12,-47.73 123.18,-32.75 137.45,-78.93 10.39,-33.62 -33.04,-84.57 -79.79,-112.23 -115.26,-68.18 -191.97,40.07 -383.98,7.4 -19.4,-3.3 -168.71,-30.68 -282.91,-146.87 -23.71,-24.13 -41.64,-46.22 -49.3,-58.32 -69.21,-109.1 -56.43,-208.55 -139.05,-242.4 -61.92,-25.36 -133.06,5.81 -179.65,32.68 49.32,262.43 132.1,367.02 202.11,412.6 23.88,15.55 96.48,56.91 107.9,127.2 1.49,9.21 2.69,23.56 -15.4,94.22 -32.02,124.96 -54.3,150.2 -38.07,179.63 19.71,35.71 80.31,56.56 118.53,38.88 40.49,-18.71 30.04,-68.68 93.28,-153.12 34.97,-46.71 55.2,-54.06 61.21,-56.04 54.98,-18.15 112.93,25.39 126.55,35.62 19.54,14.69 50.91,38.26 59.97,73.54 14.33,55.72 -36.67,103.55 -156.63,253.09" /><path
         id="path276"
         style="fill:#381b0a;fill-opacity:1;fill-rule:nonzero;stroke:none"
         d="m 939.941,6108.32 c 88.939,109.88 162.489,155.62 146.689,204.96 -10.4,32.47 -62.08,74.63 -62.08,74.63 49.83,48.58 -103.355,-98.95 -135.941,-131.3 -108.062,-107.29 -143.339,-152.74 -195.851,-146.84 -9.629,1.08 -23.028,2.57 -34.188,12.51 -30.371,27.03 -20.871,95.78 44.618,259.31 86.519,216.07 139.621,270.82 126.851,379.08 -1.672,14.18 -13.418,113.83 -59.613,125.03 C 705.188,6901.5 604.719,6732.73 552.973,6617.97 434.039,6354.18 469.121,6151.8 412.031,6141.22 334.594,6126.88 252.637,6496.46 125.453,6490.18 62.4258,6487.06 11.6992,6392.78 1.94922,6324.18 -22.0977,6155.02 183.609,6005.41 212.117,5984.69 c 2.949,-2.14 5.36,-3.86 7.156,-5.14 84.571,-59.97 148.172,-74.09 263.797,-175.02 39.821,-34.75 95.731,-101.04 81.965,-120.87 -12.414,-17.9 -69.336,19.97 -101.91,-5.39 -22.406,-17.45 -22.27,-56.26 -17.25,-90.36 0,0 14.492,-58.44 66.191,-96.75 91.293,-67.67 188.914,45.04 383.68,16.78 19.484,-2.82 169.414,-26.55 286.414,-139.9 24.31,-23.55 42.76,-45.2 50.73,-57.1 71.85,-107.38 61.5,-207.11 144.94,-238.93 62.51,-23.84 132.87,9.07 178.79,37.07 -55.74,261.14 -141.04,363.67 -212.15,407.53 -24.26,14.96 -97.84,54.54 -110.96,124.52 -1.73,9.18 -3.28,23.5 13.09,94.57 27.28,118.52 52.58,149.21 33.65,180.51 -15.59,25.75 -53.92,40.5 -79.39,31.41 -32.47,-11.59 -22.51,-54.25 -71.56,-103.94 -29.05,-29.43 -37.49,-19.49 -58,-46.86 -13.28,-17.72 -26.72,-44.03 -57.71,-56.71 l -2.12,-0.81 c -54.513,-19.49 -113.501,22.62 -127.368,32.52 -15.368,10.97 -48.34,34.78 -61.766,72.04 -29.715,82.46 53.148,184.83 117.605,264.46" /><path
         id="path278"
         style="fill:#5b2817;fill-opacity:1;fill-rule:nonzero;stroke:none"
         d="m 1003.24,6149.48 c 109.1,137.31 128.25,173.52 118.07,210.29 -12.64,45.61 -67.67,82.17 -110.62,75.59 -32.639,-4.98 -43.1,-32.59 -96.819,-105.42 -124.074,-168.22 -176.16,-167.27 -190.387,-165.85 -7.078,0.71 -22.078,2.21 -33.929,13.19 -29.828,27.63 -18.965,96.17 49.742,258.37 100.547,237.36 168.141,302.99 134.34,376.5 -18.617,40.49 -62,73.79 -103.211,73.55 C 689.973,6885.21 631.633,6759.25 593.805,6674.97 471.078,6401.59 506.277,6216.32 443.438,6201.1 358.215,6180.46 251.734,6511.04 125.453,6490.18 78.3359,6482.39 47.2891,6428.78 37.0586,6392.15 -6.77344,6235.17 237.078,6051 247.516,6043.29 c 83.363,-61.64 146.672,-77.02 260.277,-180.22 58.633,-53.25 89.508,-92.53 79.551,-122.47 -15.883,-47.8 -123.012,-33.31 -137.074,-79.56 -10.243,-33.67 33.425,-84.43 80.3,-111.85 115.582,-67.65 191.793,40.95 383.946,9.18 19.425,-3.22 168.844,-29.9 283.594,-145.56 23.82,-24.02 41.85,-46.02 49.58,-58.09 69.71,-108.78 57.38,-208.28 140.18,-241.75 62.02,-25.08 133.02,6.43 179.49,33.51 -50.56,262.2 -133.82,366.41 -204.04,411.66 -23.95,15.44 -96.74,56.47 -108.48,126.7 -1.54,9.21 -2.8,23.55 14.96,94.28 31.43,125.12 53.59,150.46 37.22,179.81 -19.86,35.62 -80.56,56.2 -118.71,38.34 -40.39,-18.91 -29.72,-68.82 -92.56,-153.56 -34.74,-46.87 -54.95,-54.32 -60.95,-56.32 -54.89,-18.41 -113.03,24.86 -126.702,35.03 -19.618,14.59 -51.102,38.02 -60.321,73.26 -14.586,55.64 36.188,103.72 155.463,253.8" /><g
         id="g280"><g
           clip-path="url(#clipPath286)"
           id="g282"><path
             id="path296"
             style="fill:url(#radialGradient294);fill-opacity:1;fill-rule:nonzero;stroke:none"
             d="m 2583.93,3955.9 c -184.08,404.48 -820.67,413.27 -857.93,413.27 -0.19,0 -0.37,0 -0.53,0 -286.02,-0.75 -703.72,-113.4 -866.325,-400.72 23.304,138.52 58.269,307.29 111.82,496.67 v 0 c 6.652,23.54 12.793,45.26 18.555,65.38 20.1,70.16 35.62,120.8 52.43,160.59 -4.89,-12.95 -8.47,-22.72 -8.47,-22.72 -6.63,-18.04 -12.03,-33.33 -15.98,-44.68 144.12,59.77 353.15,127.41 612.18,149.43 59.59,5.07 117.24,7.33 172.71,7.33 263.05,0 477.07,-50.89 617.1,-94.78 v 0 0 c -11.68,20.74 -24.34,42.03 -38.06,63.73 2.19,-3.38 4.3,-6.68 6.33,-9.9 14.42,-22.87 24.96,-41.71 31.73,-53.83 19.34,-34.58 34.77,-67.67 47.75,-101.68 7.48,-19.6 14.15,-39.52 20.28,-60.19 20.65,-69.71 35.18,-148.11 54.21,-252.88 15.04,-82.92 31.17,-189.2 42.2,-315.02 m -1520.79,778.36 c 2.7,4.67 5.48,9.2 8.35,13.59 13.25,20.32 28.02,39.86 44.1,58.55 146.66,170.37 404.52,271.49 653.32,271.49 148.97,0 294.68,-36.25 411.35,-115.6 47,-31.96 87.02,-69.38 120.31,-106.53 -77.62,24.81 -359.95,110.24 -641.17,110.24 -87.91,0 -175.65,-8.33 -257.07,-29.48 -187.09,-48.59 -302.66,-154.96 -339.19,-202.26" /></g></g><g
         id="g298"><g
           clip-path="url(#clipPath304)"
           id="g300"><path
             id="path312"
             style="fill:url(#radialGradient310);fill-opacity:1;fill-rule:nonzero;stroke:none"
             d="m 1691.7,3067.7 c -1.34,0 -2.65,0.01 -4,0.01 -103.14,0.27 -264.74,2.17 -455.33,74.73 -131.17,49.93 -254.604,96.93 -343.03,217.72 -112.504,153.7 -121.524,362.95 -71.629,514.68 10.875,33.08 24.816,64.25 41.434,93.61 162.605,287.32 580.305,399.97 866.325,400.72 0.16,0 0.34,0 0.53,0 37.26,0 673.85,-8.79 857.93,-413.27 4.19,-9.21 8.16,-18.65 11.87,-28.28 67.41,-174.91 52.38,-416.8 -78.99,-577.6 -74.79,-91.53 -164.32,-128.69 -297.8,-184.11 -42.22,-17.52 -243.11,-98.21 -527.31,-98.21 m 60.88,1270.54 c -233.33,0 -437.14,-152.53 -401.54,-299.85 26.77,-110.74 184.19,-199.41 359.82,-207.94 9.42,-0.46 18.83,-0.68 28.26,-0.68 192.53,0 383.19,94.37 401.08,232.21 18.62,143.56 -159.41,262.59 -353.25,275.15 -11.51,0.74 -22.97,1.11 -34.37,1.11" /></g></g><path
         id="path314"
         style="fill:#0c0c0c;fill-opacity:1;fill-rule:nonzero;stroke:none"
         d="m 1751.76,3573.98 c -17.95,0 -36.4,1.09 -55.34,3.45 -188.99,23.48 -299.19,157.11 -328.46,197.51 l 14.78,10.71 c 28.18,-38.88 134.25,-167.53 315.91,-190.11 250.62,-31.18 413.44,167.33 420.25,175.8 l 14.22,-11.44 c -6.57,-8.15 -152.48,-185.92 -381.36,-185.92" /><path
         id="path316"
         style="fill:#dbd7d4;fill-opacity:1;fill-rule:nonzero;stroke:none"
         d="m 2309.71,4845.37 c -2.99,3.46 -6.03,6.92 -9.14,10.39 3.39,-1.09 6.4,-2.06 8.99,-2.9 1.19,-1.56 2.38,-3.14 3.58,-4.72 -1.15,-0.92 -2.28,-1.84 -3.43,-2.77" /><g
         id="g318"><g
           clip-path="url(#clipPath324)"
           id="g320"><path
             id="path334"
             style="fill:url(#radialGradient332);fill-opacity:1;fill-rule:nonzero;stroke:none"
             d="m 2381.43,4749.4 c -18.36,28.35 -42.2,61.83 -71.72,95.97 1.15,0.93 2.28,1.85 3.43,2.77 22.56,-29.92 45.48,-62.69 68.08,-98.41 0.07,-0.11 0.14,-0.22 0.21,-0.33" /></g></g><g
         id="g336"><g
           clip-path="url(#clipPath342)"
           id="g338"><path
             id="path352"
             style="fill:url(#radialGradient350);fill-opacity:1;fill-rule:nonzero;stroke:none"
             d="m 1045.16,4698.54 c -0.09,0.11 -0.18,0.23 -0.27,0.34 2.07,5.45 4.27,11.19 6.47,16.84 1.57,4.04 5.51,10.42 11.78,18.54 -6.33,-10.96 -12.25,-22.76 -17.98,-35.72" /></g></g><g
         id="g354"><g
           clip-path="url(#clipPath360)"
           id="g356"><path
             id="path368"
             style="fill:url(#radialGradient366);fill-opacity:1;fill-rule:nonzero;stroke:none"
             d="m 1041.95,4691.09 c 0.94,2.5 1.92,5.11 2.94,7.79 0.09,-0.11 0.18,-0.23 0.27,-0.34 -1.07,-2.44 -2.15,-4.92 -3.21,-7.45" /></g></g><g
         id="g370"><g
           clip-path="url(#clipPath376)"
           id="g372"><path
             id="path386"
             style="fill:url(#radialGradient384);fill-opacity:1;fill-rule:nonzero;stroke:none"
             d="m 1017.5,4623.69 c 3.95,11.35 9.35,26.64 15.98,44.68 0,0 3.58,9.77 8.47,22.72 1.06,2.53 2.14,5.01 3.21,7.45 5.73,12.96 11.65,24.76 17.98,35.72 36.53,47.3 152.1,153.67 339.19,202.26 81.42,21.15 169.16,29.48 257.07,29.48 281.22,0 563.55,-85.43 641.17,-110.24 3.11,-3.47 6.15,-6.93 9.14,-10.39 29.52,-34.14 53.36,-67.62 71.72,-95.97 13.72,-21.7 26.38,-42.99 38.06,-63.73 -140.03,43.89 -354.05,94.78 -617.1,94.78 -55.47,0 -113.12,-2.26 -172.71,-7.33 -259.03,-22.02 -468.06,-89.66 -612.18,-149.43" /></g></g><g
         id="g388"><g
           clip-path="url(#clipPath394)"
           id="g390"><path
             id="path406"
             style="fill:url(#radialGradient404);fill-opacity:1;fill-rule:nonzero;stroke:none"
             d="m 1739.12,3829.77 c -9.43,0 -18.84,0.22 -28.26,0.68 -175.63,8.53 -333.05,97.2 -359.82,207.94 -35.6,147.32 168.21,299.85 401.54,299.85 11.4,0 22.86,-0.37 34.37,-1.11 193.84,-12.56 371.87,-131.59 353.25,-275.15 -17.89,-137.84 -208.55,-232.21 -401.08,-232.21 m -82.98,460.02 c -19.02,-0.75 -114.09,-5.88 -177.12,-61.3 -36.91,-32.45 -45.92,-67.28 -48.58,-84.67 1.04,-2.09 11.63,-22.24 41.74,-29.62 6.88,-1.68 13.97,-2.5 20.98,-2.5 16.09,0 31.74,4.32 43.43,12.39 0.86,11.34 4.93,33.63 26.62,54.92 39.92,39.2 106.67,42.72 117.77,43.18 18.26,9.28 25.62,25.71 18.52,40.81 -6.33,13.42 -23.13,23.78 -43.36,26.79" /></g></g><g
         id="g408"><g
           clip-path="url(#clipPath414)"
           id="g410"><path
             id="path426"
             style="fill:url(#radialGradient424);fill-opacity:1;fill-rule:nonzero;stroke:none"
             d="m 1493.16,4111.7 c -7.01,0 -14.1,0.82 -20.98,2.5 -30.11,7.38 -40.7,27.53 -41.74,29.62 2.66,17.39 11.67,52.22 48.58,84.67 63.03,55.42 158.1,60.55 177.12,61.3 20.23,-3.01 37.03,-13.37 43.36,-26.79 7.1,-15.1 -0.26,-31.53 -18.52,-40.81 -11.1,-0.46 -77.85,-3.98 -117.77,-43.18 -21.69,-21.29 -25.76,-43.58 -26.62,-54.92 -11.69,-8.07 -27.34,-12.39 -43.43,-12.39" /></g></g><path
         id="path428"
         style="fill:#ffffff;fill-opacity:1;fill-rule:nonzero;stroke:none"
         d="m 1538.46,4219.8 c -7.89,6.35 1.16,22.1 17.18,29.68 15,7.11 39.52,8.68 46.77,1.62 6.46,-6.28 -2.52,-17.68 -11.54,-23.8 -15.36,-10.41 -43.88,-14.35 -52.41,-7.5" /><g
         id="g430"><g
           clip-path="url(#clipPath436)"
           id="g432"><path
             id="path448"
             style="fill:url(#radialGradient446);fill-opacity:1;fill-rule:nonzero;stroke:none"
             d="m 2039.01,4522.16 c 17.37,-36.64 1.74,-80.41 -34.9,-97.77 -36.64,-17.36 -80.4,-1.74 -97.76,34.9 -17.37,36.64 -1.74,80.41 34.9,97.77 36.63,17.37 80.4,1.74 97.76,-34.9" /></g></g><path
         id="path450"
         style="fill:#ffffff;fill-opacity:1;fill-rule:nonzero;stroke:none"
         d="m 1934.01,4530.36 c -8.69,-4.12 -13.4,-15.72 -8.75,-24.51 4.67,-8.83 15.2,-13.17 24.53,-8.76 8.7,4.13 13.41,15.73 8.75,24.51 -4.68,8.83 -15.2,13.18 -24.53,8.76" /><g
         id="g452"><g
           clip-path="url(#clipPath458)"
           id="g454"><path
             id="path470"
             style="fill:url(#radialGradient468);fill-opacity:1;fill-rule:nonzero;stroke:none"
             d="m 1561.12,4514.17 c 17.36,-36.64 1.73,-80.41 -34.9,-97.77 -36.64,-17.36 -80.41,-1.73 -97.78,34.91 -17.36,36.63 -1.73,80.41 34.9,97.77 36.64,17.36 80.41,1.73 97.78,-34.91" /></g></g><path
         id="path472"
         style="fill:#ffffff;fill-opacity:1;fill-rule:nonzero;stroke:none"
         d="m 1456.11,4522.38 c -8.69,-4.12 -13.4,-15.73 -8.75,-24.52 4.68,-8.82 15.19,-13.17 24.52,-8.75 8.7,4.12 13.41,15.72 8.75,24.52 -4.67,8.81 -15.19,13.16 -24.52,8.75" /><g
         id="g474"><g
           clip-path="url(#clipPath480)"
           id="g476"><path
             id="path492"
             style="fill:url(#radialGradient490);fill-opacity:1;fill-rule:nonzero;stroke:none"
             d="m 2494.02,2023.01 c -17.27,-41.55 -25.43,-76.8 -29.64,-101.25 -8.42,-48.96 -2.32,-61.99 5.25,-68.25 11.38,-9.41 28.5,-5.51 32.6,-4.56 25.31,5.75 44.9,31.55 51.95,65.16 -1.81,-10.92 -11.02,-73.02 30.42,-121.6 9.56,-11.2 36.78,-43.1 80.43,-43.83 44.18,-0.72 72.55,31.01 75.6,34.55 34.04,39.31 23.71,94.04 17.95,124.53 -15.19,80.55 -69.47,131.58 -94.53,152.18 -15.88,3.72 -37.34,6.75 -62.44,4.69 -52.7,-4.32 -90.26,-28.61 -107.59,-41.62" /></g></g><g
         id="g494"><g
           clip-path="url(#clipPath500)"
           id="g496"><path
             id="path512"
             style="fill:url(#radialGradient510);fill-opacity:1;fill-rule:nonzero;stroke:none"
             d="m 2392.74,2128.37 c -4.25,-7.99 -19.69,-39.51 -8.8,-72.05 13.72,-40.98 60.11,-56.46 77.47,-62.25 51.18,-17.07 95.92,-3.65 134.56,7.95 52.31,15.71 107.71,32.34 124.81,80.02 9.66,26.92 7.19,63.96 -13.98,87.45 -16.09,17.83 -38.23,22.62 -58.42,25.33 -28.63,3.85 -205.47,27.62 -255.64,-66.45" /></g></g><g
         id="g514"><g
           clip-path="url(#clipPath520)"
           id="g516"><path
             id="path532"
             style="fill:url(#radialGradient530);fill-opacity:1;fill-rule:nonzero;stroke:none"
             d="m 2367.89,5056.94 c 49.43,439.91 -299.17,793.9 -649.99,786.02 -353.84,-7.94 -687.99,-383.51 -612.19,-823.81 127.52,63.48 383.47,168.98 718.01,158.72 237.88,-7.3 426.2,-70.39 544.17,-120.93" /></g></g><g
         id="g534"><g
           clip-path="url(#clipPath540)"
           id="g536"><path
             id="path552"
             style="fill:url(#radialGradient550);fill-opacity:1;fill-rule:nonzero;stroke:none"
             d="m 1028.48,4934.28 c -17.79,-102.58 1.56,-187.81 16.37,-235.35 123.68,70.05 379.12,192.34 722.19,198.29 260.08,4.51 466.06,-59.64 588.86,-108.84 25.15,23.34 85.72,86.29 84.38,171.21 -0.15,9.72 -1.13,20.21 -3.3,31.35 0,0 -7.67,45.58 -32.98,89.21 -16.2,27.96 -157.8,190.08 -562.97,206.18 -348.31,13.84 -713.45,-87.29 -783.25,-250.56 -19.86,-46.48 -29.3,-101.48 -29.3,-101.49" /></g></g><g
         id="g554"><g
           clip-path="url(#clipPath560)"
           id="g556"><path
             id="path572"
             style="fill:url(#radialGradient570);fill-opacity:1;fill-rule:nonzero;stroke:none"
             d="m 2133.19,5678.43 c -46.78,28.43 -159.08,87.37 -271.69,51.16 -128.5,-41.33 -188.19,-184.32 -234.29,-294.75 -78.96,-189.18 -42.83,-277.19 -136.04,-393.02 -55.62,-69.1 -124.28,-107.11 -173.84,-128.48 4.39,48.18 6.65,119.58 -7.55,204.07 -12.38,73.63 -25.6,87.72 -37.79,158.71 -8.44,49.12 -23.73,143.06 0,249.41 7.35,32.96 31.35,140.52 113.37,226.73 153.54,161.4 443.72,177.44 627.31,52.91 59.71,-40.51 97.61,-90.16 120.52,-126.74" /></g></g><g
         id="g574"><g
           clip-path="url(#clipPath580)"
           id="g576"><path
             id="path592"
             style="fill:url(#radialGradient590);fill-opacity:1;fill-rule:nonzero;stroke:none"
             d="m 1124.5,4859.94 c 23.96,104.96 147.61,174.37 257.16,141.34 105.35,-31.78 168.84,-149.64 140.15,-242.76 -36.2,-117.5 -209.93,-165.46 -313.98,-97.35 -60.73,39.75 -101.05,121.19 -83.33,198.77" /></g></g><g
         id="g594"><g
           clip-path="url(#clipPath600)"
           id="g596"><path
             id="path612"
             style="fill:url(#radialGradient610);fill-opacity:1;fill-rule:nonzero;stroke:none"
             d="m 2036.42,1775.3 c -13.72,50.81 -29.56,100.88 -47.53,150.34 -5.59,15.33 -30.29,8.72 -24.65,-6.8 17.99,-49.45 33.82,-99.54 47.55,-150.34 4.27,-15.87 28.94,-9.13 24.63,6.8" /></g></g><g
         id="g614"><g
           clip-path="url(#clipPath620)"
           id="g616"><path
             id="path632"
             style="fill:url(#radialGradient630);fill-opacity:1;fill-rule:nonzero;stroke:none"
             d="m 2101.23,1792.68 c -6.65,7.56 -12.82,26.13 -16.68,33.64 -5.05,9.84 -9.91,19.76 -14.57,29.79 -11.95,25.76 -22.35,52.13 -31.77,78.91 -5.41,15.42 -30.11,8.79 -24.64,-6.78 10.75,-30.62 22.84,-60.7 36.71,-90.02 9.91,-20.94 20.91,-56.09 40.31,-69.8 6.94,-4.9 16.62,0.3 18.77,7.64 l 0.33,1.1 c 1.96,6.67 -2.24,13.25 -8.46,15.52" /></g></g><g
         id="g634"><g
           clip-path="url(#clipPath640)"
           id="g636"><path
             id="path652"
             style="fill:url(#radialGradient650);fill-opacity:1;fill-rule:nonzero;stroke:none"
             d="m 2162.58,1797.94 c -26.56,40.99 -53.13,81.98 -79.69,122.96 -8.91,13.74 -31.04,0.95 -22.05,-12.92 26.55,-40.98 53.12,-81.95 79.67,-122.94 8.91,-13.76 31.05,-0.96 22.07,12.9" /></g></g><g
         id="g654"><g
           clip-path="url(#clipPath660)"
           id="g656"><path
             id="path672"
             style="fill:url(#radialGradient670);fill-opacity:1;fill-rule:nonzero;stroke:none"
             d="m 2223.11,1817.94 c -22.66,45.88 -65.8,78.25 -85.71,125.53 -6.3,14.92 -31.04,8.37 -24.66,-6.8 20.96,-49.74 64.59,-83.64 88.3,-131.63 7.28,-14.74 29.33,-1.79 22.07,12.9" /></g></g><g
         id="g674"><g
           clip-path="url(#clipPath680)"
           id="g676"><path
             id="path692"
             style="fill:url(#radialGradient690);fill-opacity:1;fill-rule:nonzero;stroke:none"
             d="m 2261.64,1853.9 c -0.8,1.64 -1.59,3.29 -2.38,4.93 -0.95,1.96 -2.17,3.4 -3.52,4.45 -23.84,37.91 -47.66,75.83 -71.51,113.74 -8.73,13.9 -30.85,1.09 -22.06,-12.9 25.8,-41.03 51.6,-82.08 77.39,-123.12 8.86,-14.07 29.18,-1.82 22.08,12.9" /></g></g><g
         id="g694"><g
           clip-path="url(#clipPath700)"
           id="g696"><path
             id="path712"
             style="fill:url(#radialGradient710);fill-opacity:1;fill-rule:nonzero;stroke:none"
             d="m 2332.25,1939.33 c -23.23,5.33 -38.74,23.35 -59.33,34 -18.39,9.53 -41.65,11.3 -54.95,28.48 -5.94,7.67 -14.6,4.41 -18.67,-2.15 -9.38,0.53 -18.97,-8.76 -12.19,-18.51 l 78.57,-113.04 c 9.33,-13.41 31.49,-0.66 22.07,12.9 l -56.96,81.94 c 9.63,-3.72 19.69,-6.81 29.23,-11.68 22.81,-11.66 39.66,-30.67 65.43,-36.58 16.01,-3.67 22.85,20.97 6.8,24.64" /></g></g><g
         id="g714"><g
           clip-path="url(#clipPath720)"
           id="g716"><path
             id="path732"
             style="fill:url(#radialGradient730);fill-opacity:1;fill-rule:nonzero;stroke:none"
             d="m 2357.91,1981.16 c -16.84,-2.38 -33.82,5.98 -49.03,12.02 -16.92,6.71 -33.42,14.28 -49.76,22.31 -14.7,7.24 -27.66,-14.8 -12.89,-22.07 35.1,-17.24 78.22,-42.59 118.47,-36.92 16.23,2.29 9.32,26.91 -6.79,24.66" /></g></g><g
         id="g734"><g
           clip-path="url(#clipPath740)"
           id="g736"><path
             id="path752"
             style="fill:url(#radialGradient750);fill-opacity:1;fill-rule:nonzero;stroke:none"
             d="m 1215.22,2183.54 c -42.51,-32.32 -112.19,-52.11 -110.32,-75.97 0.66,-8.34 11.98,-23.89 18.07,-18.07 34.51,32.92 69.37,65.43 104.62,97.53 1.63,1.48 4.64,5.9 3.89,6.7 -1.27,1.37 -13.31,-7.95 -16.26,-10.19" /></g></g><g
         id="g754"><g
           clip-path="url(#clipPath760)"
           id="g756"><path
             id="path772"
             style="fill:url(#radialGradient770);fill-opacity:1;fill-rule:nonzero;stroke:none"
             d="m 1236.06,2178.69 c -34.55,-42.08 -69.11,-84.15 -103.66,-126.23 -10.36,-12.6 7.62,-30.79 18.07,-18.07 34.55,42.08 69.11,84.16 103.67,126.23 10.35,12.62 -7.63,30.79 -18.08,18.07" /></g></g><g
         id="g774"><g
           clip-path="url(#clipPath780)"
           id="g776"><path
             id="path792"
             style="fill:url(#radialGradient790);fill-opacity:1;fill-rule:nonzero;stroke:none"
             d="m 1266.77,2145.85 c -31.1,-52.63 -64.6,-103.67 -100.52,-153.15 -9.68,-13.31 12.49,-26.09 22.07,-12.89 35.92,49.47 69.42,100.51 100.52,153.15 8.39,14.18 -13.7,27.06 -22.07,12.89" /></g></g><g
         id="g794"><g
           clip-path="url(#clipPath800)"
           id="g796"><path
             id="path812"
             style="fill:url(#radialGradient810);fill-opacity:1;fill-rule:nonzero;stroke:none"
             d="m 1293.13,2093.37 c -24.93,-45.02 -48.82,-90.58 -71.67,-136.7 -7.29,-14.68 14.75,-27.64 22.06,-12.89 22.85,46.11 46.74,91.67 71.68,136.7 7.97,14.4 -14.09,27.3 -22.07,12.89" /></g></g><g
         id="g814"><g
           clip-path="url(#clipPath820)"
           id="g816"><path
             id="path832"
             style="fill:url(#radialGradient830);fill-opacity:1;fill-rule:nonzero;stroke:none"
             d="m 1344.96,2078.07 c -25.31,-45.53 -49.13,-91.8 -71.5,-138.85 -7.01,-14.77 15.01,-27.76 22.07,-12.9 22.36,47.06 46.18,93.31 71.5,138.85 8,14.38 -14.07,27.29 -22.07,12.9" /></g></g><g
         id="g834"><g
           clip-path="url(#clipPath840)"
           id="g836"><path
             id="path852"
             style="fill:url(#radialGradient850);fill-opacity:1;fill-rule:nonzero;stroke:none"
             d="m 1401.21,2071.29 c -24.74,-52.6 -49.93,-104.97 -75.58,-157.11 -7.23,-14.71 14.81,-27.69 22.07,-12.92 25.64,52.16 50.84,104.53 75.58,157.12 6.95,14.81 -15.07,27.79 -22.07,12.91" /></g></g><g
         id="g854"><g
           clip-path="url(#clipPath860)"
           id="g856"><path
             id="path872"
             style="fill:url(#radialGradient870);fill-opacity:1;fill-rule:nonzero;stroke:none"
             d="m 1457.71,2046.22 -1.17,-8.88 c -6.44,3.75 -16.57,2.48 -19.86,-6.73 l -25.29,-70.84 c -3.61,-10.12 -7.22,-20.24 -10.84,-30.35 -3.06,-8.59 -6,-26.85 -11.92,-35.11 -7.97,-4.7 -11.17,-16.78 -0.64,-21.32 l 1.71,-0.75 c 5.32,-2.29 11.12,-2.34 15.49,2.01 14.19,14.14 18.86,45.17 25.43,63.56 6.74,18.88 13.49,37.78 20.23,56.67 -4.98,-37.49 -9.96,-74.97 -14.93,-112.47 -2.16,-16.25 23.42,-16.09 25.55,0 7.27,54.74 14.54,109.47 21.8,164.21 2.16,16.24 -23.42,16.09 -25.56,0" /></g></g><g
         id="g874"><g
           clip-path="url(#clipPath880)"
           id="g876"><path
             id="path892"
             style="fill:url(#radialGradient890);fill-opacity:1;fill-rule:nonzero;stroke:none"
             d="m 1513.89,2096.89 c -37.23,-75.33 -34.95,-147.78 -36.75,-229.61 -0.36,-16.46 25.19,-16.46 25.56,0 1.68,76.77 -1.87,145.66 33.25,216.71 7.26,14.69 -14.77,27.65 -22.06,12.9" /></g></g><g
         id="g894"><g
           clip-path="url(#clipPath900)"
           id="g896"><path
             id="path912"
             style="fill:url(#radialGradient910);fill-opacity:1;fill-rule:nonzero;stroke:none"
             d="m 1514.88,2965.57 c -12.44,-87.38 -33.54,-187.16 -69.12,-294.44 -75.13,-226.56 -185.33,-397.72 -275.4,-513.44 15.6,-28.72 40.21,-65.05 78.54,-98.45 99.59,-86.74 218.82,-90.04 257.14,-89.48 71.54,90.67 170.61,238.5 237.8,441.84 61.96,187.48 73.66,352.02 72.91,463.3 -100.63,30.22 -201.25,60.44 -301.87,90.67" /></g></g><g
         id="g914"><g
           clip-path="url(#clipPath920)"
           id="g916"><path
             id="path932"
             style="fill:url(#radialGradient930);fill-opacity:1;fill-rule:nonzero;stroke:none"
             d="m 1634.06,2850.67 c 10.73,-162.38 45.97,-391.59 155.31,-642.57 59.93,-137.57 128.92,-251.39 193.13,-341.92 28.72,-6.86 69.68,-12.46 117.27,-5 120.86,18.98 191.1,107.67 209.11,132 -56.73,103.16 -113.67,219.47 -166.52,348.83 -90.15,220.65 -146.59,425.86 -182.57,602.52 -85,-17.41 -174.76,-41.07 -267.81,-73.02 -19.69,-6.78 -39,-13.73 -57.92,-20.84" /></g></g><g
         id="g934"><g
           clip-path="url(#clipPath940)"
           id="g936"><path
             id="path952"
             style="fill:url(#radialGradient950);fill-opacity:1;fill-rule:nonzero;stroke:none"
             d="m 1261.7,3131.75 c -9.49,-6.8 -59.54,-44.12 -70.42,-113.72 -12.06,-77.12 33.66,-132.01 40.39,-139.81 97.2,-41.18 296.07,-109.71 549.98,-85.38 196.53,18.84 345.8,85.64 432.7,133.02 8.49,15.01 33.84,64.26 23.77,128.69 -8.15,52.01 -35.07,86.39 -47.25,100.21 -111.4,-36.39 -273.02,-75.82 -470.63,-79.77 -190.12,-3.8 -347.79,26.57 -458.54,56.76" /></g></g></g></g></svg>