<svg xmlns="http://www.w3.org/2000/svg" viewBox="0 0 442.09 472.51"><defs><style>.cls-1{fill:#437d3b;}.cls-2{fill:#c12026;}</style></defs><g id="katman_2" data-name="katman 2"><g id="katman_1-2" data-name="katman 1"><path class="cls-1" d="M226.68,42.5c-.23-.37-.38-.45-3.08-1.42A39.36,39.36,0,0,1,211,34.17c-3.23-2.78-7.89-8-8.49-9.61-.3-.83-.45-1-.82-1.2-.53-.3-.61-.23-3.23.75a47.37,47.37,0,0,1-6.61,1.95c-4.43.83-11.11-.22-16.07-2.55a36.92,36.92,0,0,1-5.25-3.16,16.92,16.92,0,0,1-4.73-5.63c-.38-.82-.53-1.05-.83-1.2a1.78,1.78,0,0,0-1.73.38A43.89,43.89,0,0,1,148,21.33a66.23,66.23,0,0,1-11.19,1.8,38.14,38.14,0,0,1-7.43-.37c-.9-.15-1-.15-1.43,0-.67.3-1,.75-1.72,2.78-3.83,10.36-10.89,20.72-18.1,26.5a22,22,0,0,1-5.48,3.38l-1.35.67a55.86,55.86,0,0,1-6.38,1.36,69.24,69.24,0,0,1-22-.38c-2.11-.37-2.63-.45-3.23-.22s-.75.37-1.35,1.95a42.16,42.16,0,0,1-5.56,9.31C57.21,75.17,52.48,79,45.13,82.45c-2.18,1-2.63,1.35-2.63,2,0,.37.07.6.52,1.2A16.67,16.67,0,0,1,45.58,93a34.59,34.59,0,0,1,0,6.75A34.06,34.06,0,0,1,41,112.56a46.92,46.92,0,0,1-6.69,6.76c-2.25,1.8-2.4,2.1-1.42,3.3s2.17,4.43,3.3,8.41a35,35,0,0,1,1.43,10.06,43,43,0,0,1-.9,8.63c-.23,1.28-.45,2.48-.45,2.71a1.4,1.4,0,0,0,.9,1.2c.37.07.6.07,3.15-1.28a39,39,0,0,1,13.59-4.5c4.21-.53,11.26-.3,12.84.37.83.38,1,.38,1.5.23s.6-.3,1.65-2.86A42.91,42.91,0,0,1,73,139.44c2.4-3.76,7.74-8,12.84-10.06a31.23,31.23,0,0,1,5.86-1.66,15.79,15.79,0,0,1,7.36.38c.82.3,1.12.38,1.42.23.53-.23.75-.68.9-1.51a48.88,48.88,0,0,1,2.86-11.63,40.75,40.75,0,0,1,3.15,16.51c0,2.41.15,2.93.75,3.23.3.15.53.15,1.28,0a16.65,16.65,0,0,1,7.73.68,32.7,32.7,0,0,1,6.16,2.85,33.72,33.72,0,0,1,9.76,9.46,45.78,45.78,0,0,1,3.38,8.86c.75,2.78,1,3.08,2.4,2.71s4.88-.15,9,.52a32.24,32.24,0,0,1,9.76,2.85,45,45,0,0,1,7.43,4.36,20,20,0,0,0,2.33,1.5,1.39,1.39,0,0,0,1.5-.3c.3-.3.3-.53.15-3.38a38.56,38.56,0,0,1,1.58-14.26c1.28-4.06,4.43-10.37,5.63-11.49.68-.6.75-.75.83-1.28s0-.67-1.88-2.7a36.84,36.84,0,0,1-4.35-5.41c-2.41-3.75-4.06-10.36-3.83-15.84a33.44,33.44,0,0,1,.9-6.08,15.73,15.73,0,0,1,3.38-6.53c.6-.68.75-.91.82-1.21a1.75,1.75,0,0,0-1-1.42,45.68,45.68,0,0,1-12.69-11.26c-1.2-1.66-2.56-3.61-3.76-5.64a43.13,43.13,0,0,1,14.57,3.31c2.18.9,2.78,1,3.3.52.3-.22.38-.45.53-1.2a16.64,16.64,0,0,1,3.6-6.91,40.73,40.73,0,0,1,5-4.58,33.55,33.55,0,0,1,12.46-5.4,41.79,41.79,0,0,1,9.46.3c2.86.37,3.16.3,3.46-1.2s1.72-4.58,3.9-8.19a34.42,34.42,0,0,1,6.38-8,49,49,0,0,1,6.91-5.25c1.05-.68,2.1-1.35,2.25-1.5A1.25,1.25,0,0,0,226.68,42.5ZM79.44,105.88a149.42,149.42,0,0,1-20.5,23c-1.43,1.28-4.28,4.06-6.46,6.16s-4,3.83-4,3.83c-.38.07-.15-.3,1-1.88.68-.9,2.78-3.53,4.58-5.78a182.13,182.13,0,0,0,13.07-17.5c1.2-1.8,3-4.5,4-5.93,2-2.93,9.16-13.51,12.32-18.24,1.12-1.65,3.15-4.66,4.5-6.61s3.08-4.43,3.76-5.56A35.49,35.49,0,0,1,96.86,71c1.5-1.43,2.1-1.8,2.85-1.73s1.13.83.83,2A75.4,75.4,0,0,1,95.88,81C93.25,85.68,84.09,99.49,79.44,105.88Zm78.91,40.77c1,2.77,1.8,5.18,1.8,5.25-.07.38-.3,0-1.27-1.72-.53-1-2-4-3.38-6.61A172.76,172.76,0,0,0,145,124.42c-1.13-1.8-2.86-4.58-3.76-6.08-1.87-3.08-8.48-13.89-11.48-18.77-1.06-1.73-2.93-4.81-4.13-6.83s-2.78-4.58-3.46-5.71a35.32,35.32,0,0,1-3.68-7.36c-.67-2-.75-2.7-.37-3.38s1.2-.67,2.17.08a61.67,61.67,0,0,1,6.91,8.33c3.16,4.43,11.94,18.47,15.84,25.31a155.22,155.22,0,0,1,12.47,28.15C156,140.11,157.3,143.87,158.35,146.65ZM205.88,44.83c-1.13.15-4.43.38-7.36.6a162,162,0,0,0-21.7,2.41c-2.1.37-5.33.9-7.06,1.12-3.52.53-16.06,2.55-21.69,3.46-2,.3-5.56.9-7.89,1.2s-5.33.82-6.61,1a42.22,42.22,0,0,1-8.18.6c-2.1-.15-2.78-.3-3.23-.9s-.15-1.42.9-1.95a70.64,70.64,0,0,1,10.36-3.23c5.34-1.2,21.63-4,29.44-4.88a155.09,155.09,0,0,1,30.78-.75c2,.15,5.93.38,8.86.53s5.48.3,5.56.37S207.91,44.68,205.88,44.83Z"/><path class="cls-1" d="M221.05,30.34c-2.71,0-5.41.08-8,.15a35.79,35.79,0,0,0,3.16,3,40.78,40.78,0,0,0,13.21,7.29c2.85,1,3,1,3.23,1.5a1.39,1.39,0,0,1-.3,1.58c-.15.15-1.28.9-2.4,1.65A49.36,49.36,0,0,0,222.62,51l-2.32,2.33H221c109.4,0,198.15,88.67,198.15,198.14S330.44,449.61,221,449.61,22.83,360.94,22.83,251.46a196.91,196.91,0,0,1,25.82-97.83,40.71,40.71,0,0,0-12.31,4.43c-2.7,1.43-2.85,1.5-3.3,1.35a1.45,1.45,0,0,1-1-1.28c0-.22.23-1.5.45-2.85a47.22,47.22,0,0,0,1-9.08,36.59,36.59,0,0,0-1.28-9.69A220.07,220.07,0,0,0,0,251.46C0,373.55,99,472.51,221.05,472.51s221-99,221-221S343.13,30.34,221.05,30.34Z"/><path class="cls-2" d="M108.05,16.08C102.94-5.17,64.5-7.5,65.4,22.16a21.26,21.26,0,0,0,8,16c-6.31,3.53-10.74,10.44-9.69,20.57-.07-.52-.07-.75,0,0,.53,5.26.15,1.5,0,0,3,28.31,40.92,29.14,43,.83a23.8,23.8,0,0,0-.37-7.06c9.08,5.93,22.3,5.93,30.71-5.25C151.82,27.49,125.09,8,108.05,16.08ZM73.88,8.87c2.86-4,16-7.89,14.64.82C87,19.83,68,17.05,73.88,8.87Zm9.61,39.34c-1.35,10.21-18.84,10.36-13.74.23-.37.67-1,1.8.08-.08.22-.52.22-.37,0-.07C72.23,43.93,84.69,39,83.49,48.21Zm37.32-20.27c-4.66,2.63-11.19-.15-12.46-3.61a18.91,18.91,0,0,0,.22-2.85A7.22,7.22,0,0,1,112,18.7C118.71,15.47,130.57,22.38,120.81,27.94Z"/><path class="cls-2" d="M65.4,22.16c-.08-3,.15,4.65,0,0Z"/></g></g></svg>