<?xml version="1.0" encoding="UTF-8"?>
<svg id="Layer_2" data-name="Layer 2" xmlns="http://www.w3.org/2000/svg" viewBox="0 0 176.08 521.39">
  <defs>
    <style>
      .cls-1, .cls-2, .cls-3, .cls-4, .cls-5, .cls-6, .cls-7 {
        stroke-width: 0px;
      }

      .cls-2 {
        fill: #548568;
      }

      .cls-3 {
        fill: #434240;
      }

      .cls-4 {
        fill: #dddad4;
      }

      .cls-5 {
        fill: #dd2330;
      }

      .cls-6 {
        fill: #fff;
      }

      .cls-7 {
        fill: #edbd98;
      }
    </style>
  </defs>
  <g id="katman_1" data-name="katman 1">
    <g>
      <path class="cls-1" d="m138.21,350.57c-4.68.48-5.5,3.09-5.45,7.15.21,16.99-1.31,34.12.36,50.94,2.61,26.14.38,52.2,1.12,78.27.07,2.31.66,3.06,3.02,3.05,4.21-.02,8.43.23,12.62.6,4.21.38,6.22,2.3,6.71,6.51.67,5.72.63,11.49.03,17.21-.46,4.36-2.81,6.51-7.34,6.88-3.05.25-6.13.19-9.19.19-36.03.01-72.05.02-108.08.01-12.43,0-13.98-1.6-13.95-14.23,0-3.44-.26-6.89.5-10.31.85-3.81,2.91-6.16,7.02-6.31,5.1-.18,10.21-.58,15.31-.5,2.86.05,3.72-.77,3.68-3.65-.29-22.1-1.12-44.22-.35-66.28.47-13.32,1.01-26.63,1-39.96,0-6.9-.14-13.79-.11-20.69.04-6.88.1-6.88-6.95-8.96-.27,1.98-.96,3.86.51,5.68,5.18,6.4,3.42,17.88-2.71,23.44-7.07,6.42-17.67,7.08-25.45,1.48-8.06-5.81-10.42-15.3-5.89-24.04.65-1.25,1.13-2.04-.34-3.12-1.45-1.06-1.41-2.88-1.41-4.57,0-39.09-.01-78.18.02-117.27,0-1.56-.08-2.83-1.09-4.25-4.08-5.73-.89-13.05,6.14-13.45,8.02-.46,16.08-.13,24.13-.2,1.56-.01,3.39.65,4.61-1.4-1.64-1.26-3.58-.96-5.36-1.08-13.5-.85-21.48-8.37-22.77-21.73-1.21-12.56.49-24.26,10.35-33.44,3.19-2.97,3.71-7.2,4.94-11.05,1.2-3.75,2.98-7.03,6.01-9.59.73-.62,1.66-.99,1.15-2.43-2.5-7.05-2.27-14.57-3.52-21.85-3.25-18.87-6.09-37.81-9.08-56.72-.44-2.78-.77-5.61-.33-8.4.57-3.63,2.76-6.21,5.89-8.07,10.11-5.98,21.36-8.26,32.74-10,5.54-.85,11.16-1.15,17.37-1.76-3.52-5.51-4.57-11.16-1.94-17.11,1.39-3.13,3.5-5.62,6.47-7.34,6.49-3.76,14.26-2.76,19.78,2.53,5.66,5.42,6.13,12.38,1.3,22.03,6.65.72,13.24,1.04,19.7,2.34,8.29,1.67,16.37,3.9,23.95,7.74,5.7,2.89,8.55,7.14,8.06,13.82-.95,13.12-2.53,26.17-3.96,39.24-1.4,12.82-2.32,25.69-3.99,38.47-.55,4.23.11,7.06,3.47,9.69,2.45,1.91,3.54,4.98,4.3,7.97,1.29,5.07,3.78,9.35,7.32,13.23,10.56,11.55,10.19,25.29,6.1,38.9-2.64,8.79-10.56,12.31-19.37,13.37-1.88.23-3.79.25-5.91.37.55,2.55,2.39,2.08,3.89,2.09,7.66.07,15.33-.02,22.99.18,8.77.24,12.16,6.16,8.11,14-.58,1.12-.52,2.19-.52,3.33.06,38.96.29,77.93-.02,116.88-.04,4.9,0,9.37,1.24,14.2,2.05,7.9-2.68,16.24-10.11,20.01-7.95,4.04-17.55,2.52-23.69-3.76-5.93-6.06-7.1-14.7-3.01-22.24q1.06-1.95-.07-6.09Z"/>
      <g>
        <path class="cls-5" d="m93.59,424.56c5.72-.15,11.46-.05,17.18-.05v.03c4.58,0,9.17.08,13.75-.02,8.15-.18,7.02,1.45,7.27-7.35.07-2.47-.77-3.3-3.31-3.27-10.44.13-20.88.03-31.32.04-7.35,0-7.22,0-7.17,7.24.02,2.77,1.04,3.44,3.6,3.37Z"/>
        <path class="cls-2" d="m92.84,411c11.36-.09,22.73-.11,34.09-.01,2.41.02,3.08-.87,3.01-3.13-.13-4.47-.05-8.94-.05-13.41,0-13.39,0-26.78,0-40.41-.88,0-1.28-.09-1.63.01-11.75,3.3-23.71,5.03-35.92,4.81-2.31-.04-2.34,1.28-2.34,2.95.02,15.45.04,30.9-.04,46.35-.01,2.18.72,2.85,2.86,2.84Z"/>
        <path class="cls-3" d="m83.42,312.92c3,.35,6.08.13,9.12.03,1.49-.05,2.31-1.16,2.45-2.51.47-4.52.73-7.58-7.68-6.84-.72,0-2.13-.06-3.52.01-2.46.14-3.19,1.75-3.14,3.92.05,2.25-.42,5.03,2.76,5.4Z"/>
        <path class="cls-6" d="m85.13,318.31c.89.04,1.79,0,2.68,0,0,.06,0,.12,0,.18,1.91-.12,3.83-.13,5.73-.37,2.37-.3,4.44-1.3,5.63-3.5,4.32-8.01-.22-16.18-9.27-16.62-1.9-.09-3.83,0-5.73.18-6.53.62-8.75,3.08-8.84,9.61-.1,7.65,2.22,10.15,9.8,10.52Zm-7.29-12.1c.69-4.67,3.77-6,12.8-5.56,4.72.23,6.76,2.06,7.01,6.29.43,7.29-1.44,8.97-10.03,9-7.87.03-10.79-2.88-9.78-9.72Z"/>
        <path class="cls-5" d="m148.32,216.96c-8.44.17-6.52-1.37-6.79,7.17-.07,2.15.65,2.93,2.83,2.86,4.07-.14,8.15-.04,12.23-.04h0c4.08.01,8.16.06,12.23,0,3.93-.06,5.34-2.22,4.12-6-.94-2.92-3.16-3.87-5.89-3.91-6.24-.09-12.49-.2-18.73-.08Z"/>
        <path class="cls-2" d="m138.54,345c-.07-8.66-.04-17.33-.03-25.99,0-1.32-.33-2.13-1.94-2.12-11.06.05-22.13.03-34.02.03,5.4,12.37,10.29,23.54,15.13,34.73.63,1.45,1.42,1.77,2.97,1.41,5.35-1.24,10.58-2.78,15.61-5,1.38-.61,2.3-1.3,2.29-3.06Z"/>
        <path class="cls-2" d="m86.26,121.08v-.22c3.32,0,6.64-.01,9.95,0,13.91.05,27.82.13,41.72.14,1.24,0,2.83.71,3.48-1.33,1.61-5.03.8-6.49-4.38-6.68-34.06-1.27-68.12-1.44-102.17.1-1.61.07-4.4-.72-3.76,2.64.47,2.44-.49,5.56,4.24,5.47,16.97-.3,33.94-.12,50.91-.12Z"/>
        <path class="cls-3" d="m105.04,314.61c4.96-.13,9.93-.04,14.9-.04v-.19c3.31,0,6.62.02,9.93,0,8.86-.07,8.78-.07,8.6-9.08-.04-2.16-.63-2.92-2.79-2.9-10.19.12-20.38.15-30.57.16-1.87,0-2.74.32-2.34,2.6.39,2.22.33,4.6,0,6.84-.31,2.09.19,2.67,2.27,2.61Z"/>
        <path class="cls-5" d="m38.97,133.41c31.64.02,63.28.01,94.91,0,1.4,0,2.85-.02,4.17-.39,3.96-1.09,2.41-4.57,2.7-7.08.33-2.81-2.18-1.91-3.57-1.91-16.84-.07-33.68-.04-50.52-.04,0-.11,0-.21,0-.32-3.44,0-6.89-.02-10.33,0-13.65.09-27.3.26-40.95.24-2.77,0-3.48.84-3.15,3.53.65,5.24,1.22,5.98,6.72,5.98Z"/>
        <path class="cls-5" d="m138.58,221.62c-.02-7.78-1.77-9.53-9.75-9.92-6.63-.32-13.28-.38-19.92-.52-4.95-.11-5.16-.05-4.35,4.73,2.81,16.48,2.53,33.08,2.24,49.68-.08,4.6-.65,9.17-1.59,13.68-.53,2.5-1.62,4.76-4.63,4.78-1.95.02-1.75,1.22-2.03,2.49-.91,4.05-3.99,5.83-7.3,4.39-1.72-.75-2.71-2.27-3.99-3.75-5.8,6.11-8.98,5.61-11.67-1.6-.29-.77-.44-1.47-1.36-1.58-4.54-.56-5.01-4.3-5.6-7.62-.6-3.38-.78-6.86-.83-10.3-.21-17.24-.67-34.5,3.17-51.5.31-1.36,1-3.42-1.56-3.4-8.93.08-17.9-.37-26.74,1.32-3.51.67-4.92,3.15-4.91,6.73.06,25.81.06,51.61,0,77.42,0,2.2.46,3.17,2.95,3.14,10.35-.11,20.7,0,31.04.02,1.28,0,2.45-.07,3.61-.88,7.17-4.99,17.3-5.07,24.32-.17,1.28.89,2.55,1,3.96.99,10.48-.03,20.95-.12,31.43-.01,2.61.03,3.53-.66,3.52-3.39-.08-24.91.02-49.82-.04-74.73Zm-79.14,15.52c2.52.02,4.37,1.57,4.4,4.29.03,2.86-1.76,4.59-4.5,4.6-2.71,0-4.4-1.65-4.64-4.43.17-3.1,2.12-4.48,4.75-4.46Zm-.23,20.76c2.81-.12,4.57,1.72,4.65,4.44.08,2.75-1.63,4.36-4.17,4.61-3.13-.16-4.82-1.6-4.93-4.46-.11-2.95,1.78-4.49,4.45-4.6Zm.3,29.63c-2.86-.23-4.59-1.75-4.69-4.57-.11-2.85,1.86-4.18,4.41-4.23,2.81-.05,4.68,1.59,4.67,4.45,0,2.64-1.72,4.12-4.39,4.35Zm57.27.06c-2.83-.18-4.44-1.84-4.47-4.61-.03-2.74,1.82-4.24,4.41-4.25,2.82-.02,4.63,1.73,4.58,4.54-.05,2.6-1.77,4.1-4.52,4.32Zm-4.48-25.07c-.1-2.89,1.76-4.52,4.48-4.56,2.58-.04,4.34,1.61,4.49,4.22.17,2.8-1.41,4.45-4.3,4.74-2.82-.12-4.57-1.58-4.66-4.4Zm4.52-16.56c-2.76.04-4.65-1.54-4.56-4.51.08-2.74,1.92-4.23,4.48-4.27,2.82-.04,4.4,1.69,4.67,4.65-.31,2.63-2.08,4.09-4.59,4.12Z"/>
        <path class="cls-3" d="m84.13,427.15c-11.37.12-22.74.12-34.1-.05-2.75-.04-3.1,1.1-3.08,3.4.1,9.32.22,18.65.28,27.97.07,9.45.08,18.91-.04,28.36-.03,2.49.73,3.3,3.27,3.27,11.24-.14,22.48-.18,33.72-.05,2.64.03,3.21-.93,3.2-3.32-.07-18.78-.09-37.55,0-56.33.01-2.51-.71-3.29-3.25-3.26Zm-21.52,7.73c2.17-.06,4.34-.02,6.51-.02v-.05c2.04,0,4.08-.02,6.12,0,.79,0,1.63.17,1.73,1.12.14,1.23-.85,1.51-1.75,1.52-4.21.05-8.42.05-12.63,0-.72-.01-1.61-.26-1.58-1.28.03-.95.82-1.27,1.59-1.29Zm-.22,6.68c4.34-.05,8.68-.05,13.01-.03.8,0,1.6.37,1.6,1.3,0,.95-.84,1.25-1.61,1.27-2.17.06-4.34.02-6.51.02,0-.02,0-.03,0-.05-2.17,0-4.34.03-6.51-.02-.64-.01-1.27-.28-1.36-1.07-.12-1.01.59-1.42,1.38-1.43Zm.27,9.85c4.19,0,8.38.05,12.57.11.78.01,1.65.25,1.7,1.17.07,1.27-1.01,1.26-1.89,1.27-2.03.03-4.06.01-6.09.01v-.04c-2.03,0-4.06.02-6.09,0-.9-.01-1.93-.08-1.86-1.33.05-.92.9-1.19,1.68-1.19Zm12.36,22.71c-2.03.06-4.06.02-6.09.02,0-.01,0-.03,0-.04-2.03,0-4.06.04-6.09-.02-.87-.02-1.96-.09-1.87-1.34.06-.9.93-1.16,1.71-1.16,4.19-.02,8.38-.03,12.57,0,.77,0,1.6.27,1.65,1.21.07,1.31-1.03,1.29-1.87,1.32Zm.58-9.85c-4.43-.01-8.87-.07-13.3-.17-.84-.02-1.47-.52-1.34-1.46.1-.73.74-1.02,1.4-1.03,2.28-.03,4.56-.01,6.84-.01,0,0,0,.02,0,.02,2.15,0,4.31-.04,6.46.02.78.02,1.54.4,1.52,1.34-.02.95-.82,1.29-1.58,1.29Z"/>
        <path class="cls-4" d="m143.88,138.74c-2.16-2.14-4.5-3.28-7.74-1.72,4.43,8.54,6.91,17.74,8.52,27.16,2.34,13.67,1.11,26.74-7.22,38.42-1.51,2.12-3.35,4.01-5.47,6.52,7.12.31,13.52.34,19.76-1.91,4.58-1.65,8.26-4.57,9.93-9,4.26-11.29,4.4-22.93-2.26-33.1-4.55-6.94-9.84-13.23-11.89-21.51-.49-1.98-2.16-3.41-3.62-4.86Z"/>
        <path class="cls-3" d="m131.81,430.72c.03-2.55-.59-3.59-3.38-3.55-11.6.13-23.21.1-34.82,0-2.53-.02-3.57.58-3.55,3.38.11,18.75.09,37.5.01,56.24,0,2.38.52,3.39,3.16,3.36,11.6-.13,23.21-.14,34.82,0,2.82.04,3.38-1.02,3.34-3.56-.09-9.31-.05-18.62.05-27.93.1-9.31.25-18.62.37-27.93Zm-28.67,4.13c4.45-.04,8.91-.04,13.36,0,.81,0,1.53.41,1.51,1.34-.02.94-.82,1.27-1.59,1.29-2.29.06-4.58.02-6.87.02,0-.01,0-.03,0-.04-2.16,0-4.33.05-6.49-.03-.76-.03-1.58-.36-1.54-1.33.04-.94.86-1.24,1.62-1.25Zm.29,9.24c-.92-.02-1.92-.2-1.88-1.39.04-.93.91-1.16,1.7-1.16,4.34-.01,8.68,0,13.03.02.83,0,1.66.26,1.69,1.17.04,1.18-.98,1.37-1.89,1.39-2.17.05-4.34.02-6.51.02v-.04c-2.04,0-4.09.02-6.13-.01Zm-.36,7.39c4.44-.03,8.88,0,13.32.02.8,0,1.64.29,1.66,1.2.02.9-.8,1.23-1.61,1.24-2.28.03-4.57.01-6.85.01v.04c-2.16,0-4.31.02-6.47-.01-.78-.01-1.66-.21-1.64-1.17.02-.86.79-1.32,1.59-1.33Zm13.01,22.66c-2.03.05-4.05.02-6.08.02,0-.01,0-.03,0-.04-2.28,0-4.56.03-6.84-.02-.75-.02-1.63-.23-1.65-1.18-.02-.91.75-1.32,1.54-1.32,4.43-.02,8.87.02,13.3.05.81,0,1.61.27,1.63,1.19.04,1.25-1.03,1.29-1.9,1.31Zm.45-10.02c-2.28.08-4.56.03-6.84.03,0,0,0,.02,0,.03-2.03,0-4.06.02-6.08-.01-.9-.02-1.96-.12-2.01-1.25-.05-1.15.97-1.33,1.89-1.33,4.31,0,8.62,0,12.93.04.78,0,1.61.25,1.67,1.17.06.95-.81,1.3-1.55,1.32Z"/>
        <path class="cls-2" d="m163.57,352.63c7.59-.01,7.46-.01,7.54-7.48.03-2.65-.94-3.18-3.33-3.13-6.35.14-12.71,0-19.07.07-7.61.09-7.55.14-7.18,7.61.1,2.1.84,2.95,2.97,2.89,3.94-.1,7.88-.03,11.82-.03v.06c2.42,0,4.83,0,7.25,0Z"/>
        <path class="cls-7" d="m90.14,176.32c.13,0,.25,0,.38,0,1.46.06,2.13-.49,1.73-2.05-1.5-5.88-2.98-11.77-4.74-18.78-.59,1.7-.83,2.28-.99,2.89-.94,3.43-1.88,6.86-2.78,10.3q-2.17,8.29,6.4,7.65Z"/>
        <path class="cls-5" d="m171.08,245.32c0-2.67-.79-3.59-3.48-3.52-7.53.18-15.06.27-22.59.11-2.89-.06-3.7.86-3.68,3.69.12,15.06.06,30.12.05,45.18,0,15.06.05,30.12-.05,45.18-.02,2.62.69,3.58,3.43,3.5,7.53-.22,15.06-.27,22.59-.19,2.69.03,3.82-.59,3.8-3.6-.12-30.12-.13-60.25-.07-90.37Z"/>
        <path class="cls-3" d="m46.27,302.49c-8.47.05-8.35.05-8.41,8.37-.02,2.76.93,3.47,3.49,3.46,8.78-.03,17.57.14,26.35.2,5.24.04,5.21.02,5.01-5.03-.05-1.39-.02-2.82.25-4.18.45-2.29-.52-2.87-2.63-2.83-4.83.1-9.67.03-14.51.03,0,0,0-.02,0-.02-3.18,0-6.36-.01-9.55,0Z"/>
        <path class="cls-2" d="m83.03,358.83c-10.65.24-21.11-1.31-31.32-4.24-3.16-.9-3.74.09-3.7,2.96.12,8.29.04,16.58.04,24.86h.07c0,8.16.12,16.32-.06,24.48-.07,3.06.67,4.21,3.98,4.15,10.45-.21,20.91-.18,31.36,0,2.99.05,3.9-.77,3.86-3.82-.17-14.79-.2-29.58-.06-44.37.03-3.28-1.11-4.1-4.18-4.03Z"/>
        <path class="cls-5" d="m50.64,424.5c9.71-.08,19.42.12,29.13.03,8.83-.08,7.42,1.84,7.54-8.1.03-2.04-.87-2.59-2.78-2.55-5.75.09-11.5.03-17.25.03v.03c-4.47,0-8.95-.15-13.41.03-7.76.31-6.6-1.55-7.01,6.93-.15,3.01,1.09,3.62,3.78,3.6Z"/>
        <path class="cls-2" d="m39.79,347.72c4.9,2.24,10.01,3.8,15.24,4.98,1.46.33,2.62.28,3.37-1.49,4.62-11.04,9.34-22.04,14.57-34.31-11.55,0-22.25.04-32.94-.04-2.09-.02-2.22,1.09-2.21,2.65.03,8.3.05,16.59,0,24.89-.01,1.6.5,2.63,1.98,3.31Z"/>
        <path class="cls-5" d="m101.12,320.48c-.76-1.75-1.57-1.69-3.22-1-6.53,2.72-13.25,2.61-19.71,0-2.6-1.05-3.27-.24-4.13,1.8-4.2,9.97-8.47,19.92-12.75,29.86-.81,1.88-.85,2.91,1.69,3.29,17.41,2.6,34.78,1.84,52.91-.08-5.13-11.72-9.99-22.78-14.79-33.87Z"/>
        <path class="cls-2" d="m168.22,229.98c-3.95.1-7.9.03-11.85.03h0c-3.69-.01-7.4.2-11.08-.08-3.09-.23-4.15.9-3.78,3.84.13,1,.1,2.04.04,3.05-.1,1.7.76,2.19,2.32,2.18,8.28-.05,16.56-.06,24.84-.04,1.61,0,2.36-.59,2.27-2.25-.07-1.27-.11-2.56.03-3.82.24-2.17-.65-2.97-2.79-2.92Z"/>
        <path class="cls-6" d="m99.28,205.33c-3.08-.21-2.79,1.71-2.68,4.16.44,1.08-1.43,3.78,2.31,3.84,2.84.05,2.8-1.69,2.5-3.44-.28-1.63,1.54-4.31-2.13-4.56Z"/>
        <path class="cls-5" d="m87.17,26.79c2.82-.38,6.97,1.15,10.15-2.41,3.68-4.12,4.12-10.74.8-15.56-3.67-5.32-10.47-7.39-16.2-4.95-6.39,2.72-9.97,8.88-7.99,15.46,1.91,6.35,3.2,8.2,13.24,7.46Z"/>
        <path class="cls-2" d="m86.8,92.32c7.65-.06,13.24-5.51,13.16-12.84-.08-7.39-6.25-13.47-13.45-13.27-7.04.19-12.5,6.01-12.5,13.31,0,7.28,5.57,12.86,12.79,12.8Z"/>
        <path class="cls-6" d="m98.09,202.39c.99.36,2.89.89,3.31-1.26.68-3.52-2.21-3.51-4.62-4.71.41,2.32-1.93,4.79,1.31,5.97Z"/>
        <path class="cls-6" d="m91.23,195.4c-3.39.25-1.77,2.72-2.07,4.28-.4,2.05.46,2.92,2.7,2.88,2.82-.05,2.02-1.94,2.11-3.11-.08-2.17.42-4.28-2.73-4.04Z"/>
        <path class="cls-6" d="m84.02,213.32c3.05.13,2.9-1.64,2.71-4.12-.29-1.21,1.24-3.79-2.42-3.83-3.21-.03-2.67,2.05-2.56,3.84.1,1.63-1.11,3.96,2.27,4.1Z"/>
        <path class="cls-6" d="m91.39,205.34c-3.39.08-1.86,2.54-2.32,3.99.25,1.73-.89,3.99,2.45,3.99,2.88,0,2.65-1.75,2.46-3.49-.19-1.8,1.28-4.58-2.6-4.49Z"/>
        <path class="cls-5" d="m29.54,107.33c.36,2.31,1.21,3.18,3.7,3.02,17.6-1.14,35.22-.98,51-1.05,19.47.15,37.1-.17,54.7,1.01,1.83.12,3.5.39,3.75-2.35,1.74-19.32,4.78-38.51,5.92-57.9.27-4.57-1.38-7.82-5.46-10.03-6.93-3.73-14.34-6-21.95-7.74-14.61-3.34-29.47-2.51-44.26-2.46-15.93.05-31.57,2.16-46.4,8.45-9.29,3.94-10.84,6.52-9.31,16.5,2.68,17.53,5.59,35.03,8.32,52.56Zm57.63-43.79c9.03.21,15.94,7.66,15.65,16.88-.28,8.66-7.2,14.98-16.22,14.81-9.11-.17-15.57-7.09-15.37-16.48.18-8.65,7.27-15.42,15.94-15.21Z"/>
        <path class="cls-7" d="m26.79,381.4c9.25-2.88,14.07-11.09,11.62-19.78-1.29-4.58-3.15-6.03-7.73-6.04-2.8,0-5.61,0-8.41,0v-.09c-2.93,0-5.86,0-8.79,0-4.76.01-6.57,1.44-7.9,5.96-.9,3.07-.66,6.05.3,9.02,2.7,8.39,12.55,13.53,20.91,10.93Z"/>
        <path class="cls-2" d="m8.74,239.09c3.81-.11,7.63-.03,11.45-.03v-.05c4.07,0,8.14-.05,12.22.02,1.78.03,2.59-.59,2.44-2.43-.11-1.39-.11-2.8-.02-4.2.13-1.85-.7-2.42-2.46-2.4-8.02.07-16.03.07-24.05.04-1.74,0-2.62.61-2.49,2.46.09,1.27.14,2.55.01,3.81-.23,2.26.84,2.84,2.9,2.78Z"/>
        <path class="cls-5" d="m19.52,226.97v.03c2.94,0,5.87,0,8.81,0,6.57-.03,6.46-.03,6.52-6.77.02-2.46-.62-3.38-3.18-3.34-7.02.13-14.04.01-21.06.06-1.39,0-2.83.14-4.16.52-3.1.88-3.51,3.4-3.31,6.1.2,2.78,1.96,3.51,4.51,3.43,3.95-.12,7.91-.03,11.87-.03Z"/>
        <path class="cls-7" d="m164.29,355.56c-5.87,0-11.77.33-17.62-.1-4.07-.3-5.77,1.71-7.07,4.91-.7,1.71-.72,3.48-.86,5.06-.07,10.58,9.34,18.11,20.12,16.3,9.1-1.53,15.42-10.67,13.51-19.53-1.09-5.03-3.02-6.63-8.08-6.64Z"/>
        <path class="cls-5" d="m9.42,339.47c7.4-.22,14.81-.24,22.22-.21,2.34.01,3.33-.56,3.32-3.2-.1-30.4-.11-60.8-.04-91.2,0-2.45-.87-3.03-3.1-3-7.53.11-15.07.18-22.61.01-2.75-.06-3.41.86-3.39,3.49.12,14.94.06,29.89.06,44.83h-.08c0,15.2.08,30.4-.07,45.6-.03,2.91.86,3.75,3.68,3.67Z"/>
        <path class="cls-4" d="m43.48,208.59c-13.89-13.72-15.53-30.34-12.03-48.3,1.56-8.01,3.75-15.8,7.1-23.42-3.38-1.12-5.87-.24-8.04,2.17-2.27,2.53-3.93,5.41-4.58,8.7-1.08,5.46-3.72,9.96-7.6,13.85-3.82,3.83-5.84,8.53-6.69,13.87-.64,4.07-.76,8.12-.59,12.2.69,17.44,13.38,23.93,32.44,20.92Z"/>
        <path class="cls-5" d="m142.37,492.92c-34.71-.03-69.42-.03-104.14-.02-3.83,0-7.65.19-11.48.3-3.78.11-5.56,2.23-5.62,5.85-.07,4.21-.05,8.42.02,12.63.08,5.45,1.05,6.56,6.5,6.58,19.9.07,39.81.03,59.71.03,0,.07,0,.15,0,.22,6,0,11.99.02,17.99,0,14.04-.05,28.07-.07,42.11-.21,5.18-.05,6.19-1.15,6.46-6.35.13-2.42.11-4.84.1-7.27-.05-11.69-.06-11.75-11.65-11.76Z"/>
        <path class="cls-2" d="m27.24,352.65c8.02-.07,7.95-.07,7.64-7.99-.08-1.99-.64-2.62-2.66-2.59-6.37.1-12.74-.05-19.11,0-7.34.06-7.25.1-7.26,7.36,0,2.32.71,3.25,3.04,3.19,3.82-.1,7.65-.03,11.47-.03v.06c2.29,0,4.59.02,6.88,0Z"/>
        <path class="cls-6" d="m84.13,202.58c3.07.05,2.74-1.77,2.67-3.64.07-1.82.35-3.48-2.46-3.56-3.13-.1-2.66,1.85-2.67,3.69-.01,1.74-.41,3.46,2.46,3.51Z"/>
        <path class="cls-6" d="m73.98,201.09c.34,2.48,2.54,1.63,3.62,1.33,3.14-.88.88-3.53,1.25-5.48-2.15.94-5.37.54-4.87,4.14Z"/>
        <path class="cls-4" d="m93.06,275.77c1.48-.81,1.93,1.14,2.61,2.08,1.2,1.64,2.21,3.87,4.58,3.45,2.5-.44,2.44-3.03,2.78-4.94,1.52-8.46,1.4-17.01,1.28-27.15-.48-8.85-.08-19.33-1.98-29.69-.47-2.56-1.38-3.33-3.93-3.27-7.39.17-14.8.15-22.19,0-2.29-.05-2.94.71-3.36,2.92-.84,4.4-1.41,8.81-1.69,13.27-.91,14.01-1.5,28.03,0,42.04.25,2.36.25,5.5,2.71,6.37,2.54.89,2.99-2.5,4.49-3.85.62-.56,1.01-1.79,2.07-1.21,1.26.68.56,1.82.13,2.68-.97,1.93-2.43,3.7-2.37,5.96.04,1.48.18,3.2,1.97,3.79,1.72.56,2.91-.4,3.92-1.68.73-.92,1.13-1.96,1.44-3.09.26-.96.57-2.15,1.83-2.14,1.18,0,1.02,1.25,1.38,2.01.6,1.26,1.18,2.55,1.97,3.68.94,1.34,2.27,2.16,3.93,1.22,1.67-.94,1.6-2.51,1.01-4.01-.65-1.66-1.56-3.21-2.23-4.86-.48-1.16-2.23-2.56-.36-3.58Z"/>
        <path class="cls-7" d="m45.55,206.77c1.34,1.34,2.68,2,4.69,1.92,5.74-.23,11.5-.28,17.24-.16,2.59.06,4.36-.26,3.82-3.41-.4-2.32,1.67-6.01-3.47-5.64-10.76.79-17.98-9.01-18.66-18.43-.08-1.14-.42-2.48.86-3.06,1.38-.63,2,.73,2.73,1.55,6.09,6.79,9.3,7.56,17.8,4.06,3.74-1.54,7.57-2.42,11.58-1.57,5.06,1.07,5.88,3.12,3.29,7.55-.49.83-1.53,1.46-1.11,2.76h7.77c-.87-1.23-1.3-1.85-1.73-2.46-3.23-4.56-2.39-6.67,3.19-7.85,4.16-.88,8.07-.02,11.94,1.59,8.25,3.45,11.35,2.63,16.84-4.23.74-.93,1.45-1.97,2.78-1.55,1.49.47,1.05,1.87,1.01,2.95-.4,10.85-8.27,20.05-18.82,18.6-2.52-.35-3.17.82-2.95,3.03.08.89.1,1.8,0,2.68-.3,2.45.61,3.37,3.18,3.33,6-.1,12.01.06,18.01.17,1.32.02,2.45-.14,3.51-1.09,6.86-6.18,11.67-13.6,13.01-22.83,2.35-16.22-1.45-31.42-8.18-46.07-.83-1.8-1.99-2.26-3.88-2.26-28.36.05-56.72.05-85.08-.02-2.23,0-3.39.68-4.31,2.76-4.83,11.01-7.45,22.55-8.11,34.49-.71,12.96,3.89,24,13.04,33.18Zm70.11-35.63c-5.42.05-9.57-3.93-9.65-9.26-.09-5.47,4.2-9.91,9.56-9.9,4.86,0,9.44,4.63,9.59,9.68.15,5.07-4.22,9.43-9.5,9.48Zm-11.81-29.56c3.39-1.89,7.06-2.92,10.99-2.83,5.59.11,10.42,2.18,14.56,5.87,1.22,1.09,2.56,2.4,1.37,4.28-1.14,1.81-2.73,1.47-4.36.67-6.51-3.19-13.31-2.97-20.19-1.62-1.99.39-4.32,1.23-5.33-1.32-1.05-2.62,1.05-3.99,2.97-5.05Zm-43.36,29.6c-5.77.16-10.26-3.96-10.3-9.43-.04-5.24,4.31-9.57,9.76-9.72,4.88-.13,9.39,4.41,9.48,9.56.09,5-4.06,9.46-8.93,9.59Zm19.92-.82c1.57-5.52,3.22-11.02,4.79-16.54.38-1.33.89-2.53,2.44-2.45,1.34.07,1.87,1.26,2.16,2.39,1.83,7.04,3.63,14.08,5.43,21.13.65,2.55-.3,3.99-2.98,4.08-1.79.06-3.57.01-5.36.01q-8.96.17-6.48-8.62Zm-35.12-25.01c4.28-4.51,9.72-6.27,15.02-6.62,5.07-.05,9.03,1.1,12.47,3.79,1.39,1.08,2.38,2.43,1.53,4.27-.82,1.78-2.44,1.58-3.97,1.26-7.52-1.59-14.9-1.5-22.05,1.66-1.4.62-2.75.77-3.75-.65-1.03-1.46-.27-2.64.75-3.72Z"/>
        <path class="cls-6" d="m76.55,205.31c-3.54,0-2.36,2.39-2.62,4.15.24,1.64-.86,3.85,2.44,3.92,3.32.06,2.88-1.99,2.81-3.97-.07-1.83.86-4.11-2.63-4.1Z"/>
      </g>
    </g>
  </g>
</svg>