<?xml version="1.0" encoding="UTF-8"?>
<svg id="Layer_2" data-name="Layer 2" xmlns="http://www.w3.org/2000/svg" viewBox="0 0 327.41991 479.61566">
  <defs>
    <style>
      .cls-1 {
        fill: #fefaf3;
      }

      .cls-2 {
        fill: #ec2228;
      }

      .cls-3 {
        fill: #cc8952;
      }
    </style>
  </defs>
  <g id="Layer_1-2" data-name="Layer 1">
    <g>
      <path class="cls-3" d="M327.26936,278.62386c-.69682-10.35255-5.27581-18.31605-13.83658-24.78639-8.60087-6.31002-18.82142-10.03915-29.46496-10.75073-7.26668-.59727-15.13067-1.49316-22.4969-1.89133h0l-1.79178-.19908-8.16259-.89589c-2.58814-.39817-5.27582-.89589-7.9635-1.09499s-3.98175-.09955-5.77354-1.19452h0c34.91189-26.00952,49.73006-71.14116,37.0303-112.7831l-.69682.29863c-1.34941.43587-2.7634.63786-4.18085.59726-2.20185.08982-4.40668-.07721-6.5699-.49772-1.20818-.24562-2.37932-.64715-3.48403-1.19452l-1.19454-.79635c-.1991-.19908-.39817-.49772-.59727-.59726-.11106-.18129-.17917-.38559-.1991-.59726-.09457-.14749-.13011-.3252-.09955-.49772v-.6968c.10477-.3898.27292-.75972.49772-1.09498v-.19908c.70292-.05074,1.40141-.15052,2.09043-.29863.9228-.14807,1.55085-1.01618,1.40275-1.93897-.00276-.01735-.00583-.03465-.00914-.0519-.07315-.47186-.32207-.89858-.69682-1.19452-.39656-.21035-.8526-.28051-1.29406-.19908l-1.39361.19908-2.09043-.19908c-.79148-.17575-1.55981-.44301-2.28951-.79635l-1.99088-1.39361c-.58062-.56033-1.08288-1.19653-1.49316-1.89133-.47711-.75438-.87728-1.55474-1.19452-2.38905l-.29863-1.49316c-.12053-.75429-.66199-1.37311-1.39361-1.5927h-.49772c-.93895-.08928-1.8117.49255-2.09043,1.39361-.09955.29863-.09955.59726-.19908.8959v.29863l-.29863.99544c-.21444.69839-.51541,1.36721-.89589,1.99088-.41354.83845-.95042,1.61019-1.59271,2.28951-.59188.67247-1.25999,1.27378-1.99088,1.79179-.92218.54333-1.88773,1.00946-2.88676,1.39361-1.30498.34528-2.63707.5784-3.98175.6968-1.56877.01994-3.13573-.11342-4.67855-.39818-3.34332-.69415-6.43799-2.27588-8.95894-4.57901-.9631-.87608-1.80056-1.88102-2.48859-2.98631-.68827-1.01145-1.22486-2.11815-1.59271-3.28495h-.09955c-.17452-.39533-.44898-.73839-.79635-.99544-.53053-.34236-1.17889-.45042-1.79179-.29863-.53975.10424-1.02978.38427-1.39361.79635-.30696.23221-.5473.54122-.6968.8959-.18886.61325-.42174,1.21207-.6968,1.79179-.40693.70213-.87316,1.36819-1.39361,1.99088-.50188.60214-1.10901,1.10809-1.79179,1.49316-.66711.3909-1.36646.72393-2.09043.99544-.966.30996-1.972.47762-2.98631.49772-1.46676.0957-2.93973-.00473-4.37992-.29863-1.69069-.40336-3.32789-1.00479-4.87764-1.79179-1.34464-.73344-2.61193-1.60054-3.78267-2.58814-.49681-.41656-1.16533-.56512-1.79179-.39818-.51257.1025-.97158.38497-1.29407.79635-1.29407,1.79179-2.48859,3.38449-3.68312,4.7781-1.83535,2.00272-3.90786,3.77437-6.17171,5.27582h-.19908c-1.38818.92756-2.89486,1.66416-4.47947,2.18996-1.22928.39814-2.49722.66507-3.78267.79635-1.20663.02079-2.41095-.11302-3.58358-.39818-1.07143-.23075-2.10862-.59879-3.08586-1.09498v-.29863h-.79635c-1.09961-.62443-2.13346-1.35812-3.08586-2.18996l-.39817-.39818c-.20653-.25666-.44015-.49028-.6968-.6968-.60064-.48606-1.32422-.79617-2.09043-.8959h-3.58358l-2.68768.19908h-1.09499c-.59844.07349-1.20517.03977-1.79179-.09954l-1.19452-.39818-.89589-.49772c-.47952-.3721-1.0971-.51742-1.69224-.39818-.82502.13339-1.51181.70571-1.79179,1.49316h0l-.99544,1.49316-1.29407,1.09498c-.55491.37674-1.15746.67801-1.79179.8959l-1.99088.29863c-.69793.06928-1.40223.03574-2.09043-.09954-.71833-.20508-1.41771-.47152-2.09043-.79635h-.99544c-.5879-.01283-1.1582.20103-1.5927.59726-.36946.33021-.58568.79868-.59726,1.29407.0139,1.03646-.08624,2.07129-.29863,3.08586-.15756.75168-.39103,1.48543-.6968,2.18996-.34943.56577-.74924,1.09883-1.19452,1.59271-.51651.54916-1.08303,1.04904-1.69224,1.49316l-2.58814,1.19452c-1.61234.51663-3.2859.81788-4.97719.89589-2.47593.11363-4.95554-.12092-7.36624-.6968-1.89628-.40119-3.73534-1.03651-5.47491-1.89133l-.29863-.19908c-.45852-.24084-.98755-.31138-1.49316-.19908-.70616.08507-1.31329.54043-1.5927,1.19452-.79635,1.89133-1.5927,3.68312-2.48859,5.47491-1.17805,2.24977-2.61456,4.35442-4.28039,6.27126-.93787,1.03323-2.00907,1.93706-3.1854,2.68768-1.12215.7935-2.36618,1.3987-3.68312,1.79179-1.48524.4798-3.02246.78056-4.57901.89589-1.03268.03647-2.06643-.03021-3.08586-.19908l-2.48859-.89589-1.09498-.6968c-.29863,3.1854-.49772,6.3708-.49772,9.65574-.0475,29.62056,12.64378,57.83146,34.84032,77.44506-12.70627,2.38877-25.53324,4.08353-38.4239,5.07674l-2.98631.19908c-7.35846.41558-14.56309,2.27592-21.20282,5.47491-7.56533,3.78267-13.83658,9.35711-16.92244,16.72336-4.28038,10.253-3.58358,20.20737-.29863,30.36085,1.37057,3.67204,3.79453,6.85782,6.96806,9.15804,4.18084,3.18541,9.15803,4.67857,14.23476,5.87308s9.25757.79634,13.83658.59727,6.17171-.69682,9.25757-.89589l7.16715-.89589c7.06889-.82817,14.18705-1.16079,21.30237-.99544,8.56076.49772,11.84571,5.27581,10.75073,13.73703-.59726,4.47947-2.28951,8.75984-4.08129,13.63751s-5.17627,12.0448-7.2667,19.01287c-3.28495,11.14892-7.06761,22.59645-9.85484,34.24305-2.18996,9.45666-5.17627,20.00831-9.65574,28.76815-2.88677,5.67401-6.17171,11.54708-8.75986,16.92244-2.58814,5.37536-5.57445,11.34798-7.06761,17.42016-1.49316,6.07218,0,10.6512,4.7781,15.42929,4.7781,4.77809,9.75529,6.5699,15.52883,8.46122,10.65118,3.68313,23.29325,4.57902,34.3426,4.0813,7.03679-.51148,13.90362-2.40578,20.20738-5.57446,6.07218-2.88676,10.05393-8.85939,11.94525-13.23931,3.98175-9.35711,1.19452-14.23475,5.67399-22.69597,4.47947-8.46122,17.32061-11.64663,24.58731-11.8457,7.2667-.19907,18.81377,8.66032,20.10784,10.15348,9.05849,11.04937,5.07674,18.6147,11.8457,29.36541,2.68768,4.0813,6.5699,8.66032,11.1489,11.44753,12.0448,7.06761,25.88138,7.66488,39.31979,5.07674,13.43841-2.58814,24.98549-7.56533,33.34716-17.12154,6.07218-6.76896,7.56533-12.94069,4.37992-21.30236-2.58814-6.66945-7.36623-11.44753-12.14435-17.02199-3.38448-3.8822-8.06305-7.7644-11.74615-12.0448-4.89781-5.74901-8.86155-12.23215-11.74606-19.21206-1.79178-4.57902-3.58358-10.253-4.97719-14.43385-4.37992-13.73703-10.85027-27.07592-15.72792-40.11613-2.38904-6.27125-3.68312-10.94982-3.08586-16.82289.59725-5.87308,4.0813-8.95894,10.15346-9.95438,6.07215-.99544,9.95438-.1991,15.32974.09955,10.35255.59727,21.40191,1.79178,31.85401,1.99088,7.76814.2008,15.21834-3.08605,20.30692-8.95894,3.08586-3.58358,4.57902-7.9635,6.27125-12.24387s1.69229-8.06308,1.39364-12.443ZM66.76331,251.44842c.8959,1.19452,2.48859,1.49316,3.68312,2.38904s3.98175,2.09043,4.97719,4.37992c1.79179,3.98175.49772,7.16716-2.28951,10.55165-2.78723,3.38448-4.97719,4.0813-7.46578,5.77353-.96504.55963-1.83802,1.26471-2.58814,2.09043-1.29407,1.39361-1.79179,2.58814-.69681,4.18085,1.04988,1.31973,2.42085,2.34794,3.98175,2.98631,1.89133.99544,3.78267,1.69226,5.27582,3.28493,1.52696,1.46791,2.26588,3.57383,1.99088,5.67401-.34825,1.90111-1.28903,3.64331-2.68768,4.97719-1.85206,1.74803-3.96855,3.19261-6.27126,4.28037-.75648.44638-1.55709.81332-2.38905,1.09499-1.89133.59727-3.98175.39817-4.37993-1.99088s1.29407-3.58358,2.98631-4.47947c1.60679-.66252,3.1695-1.42727,4.67855-2.28949.6968-.49772.79635-.89589.39818-1.39361s-2.48859-1.59271-3.88221-2.38904-5.17628-2.68769-7.06761-5.77353-1.19453-7.36623,1.09498-10.35255,4.97719-4.67857,7.76442-6.66945c1.55675-.95045,2.93751-2.16282,4.08129-3.58358.48035-.50067.48035-1.29111,0-1.79178-.99544-1.19454-2.48859-1.59271-3.68312-2.48859s-4.08129-2.09043-5.17628-4.57902c-1.69224-4.0813-.69681-7.46578,2.58814-10.85027s6.66943-4.67855,10.25301-5.97263c1.69224-.6968,3.58357-.39817,4.47947,1.09499s.19908,3.28495-1.19452,4.57902c-1.03109.74032-2.17358,1.31157-3.38449,1.69224-1.72578.66231-3.31255,1.64137-4.67855,2.88676-.99544.99539-1.09498,1.59266-.39818,2.68765ZM151.87325,420.47377c-1.69224,1.99088-1.79179,3.98175-4.67855,5.07674s-6.76898-.1991-9.25757-3.18541c-1.88088-2.36371-3.36056-5.02042-4.37992-7.86395-.53814-1.81644-1.30762-3.55612-2.28951-5.17629-1.09499-1.49316-1.99088-1.99088-3.68312-1.49316s-2.28951,1.49316-3.58357,2.28949-3.98175,3.98175-7.56533,3.98175-8.16259-2.68769-10.15346-7.16716c-.79635-1.79178-1.29407-4.18085-1.99088-6.07218-.09954-.1991-.09954-.39817-.19908-.59727-1.19452-1.99088-2.38905-2.78721-4.57901-1.39361-2.18996,1.39361-2.28951,2.38904-3.28495,3.58358s-3.48403,2.78721-5.37537,1.09499c-1.94679-1.51463-2.30279-4.3181-.79635-6.27125,2.18996-3.38448,4.37993-6.47035,8.66031-7.56533,4.28038-1.09499,7.9635.89589,10.65118,5.27581,1.144,2.25389,2.04496,4.6231,2.68768,7.06761.35723,1.3436.92863,2.62086,1.69224,3.78265.379.54356,1.04038.8159,1.69224.69682,1.5927-.39817,2.38905-1.59271,3.68312-2.48859s3.78267-3.18541,6.76898-3.48403c5.47491-.59727,8.56077,1.89133,11.34798,6.5699.18465.35619.35078.72167.49772,1.09499.9819,1.84239,1.78202,3.77603,2.38904,5.77353.46912,1.46254,1.03443,2.89244,1.69224,4.28037.6968,1.19454.89589,1.29406,1.89133.59727s1.29407-1.69226,2.18996-2.48859c.93628-.99152,2.4525-1.16,3.58358-.39817,1.30758.68342,2.2261,1.93261,2.48859,3.38448.11829.3632.08233.75906-.09952,1.09499v.00003ZM174.9674,362.93748c-7.36623-.39817-14.83202-5.07674-14.93157-13.23931-.09955-8.16257,7.86395-12.44297,15.2302-12.34342,7.36625.09955,14.43385,5.77353,14.43385,13.73703s-7.46578,12.24384-14.73248,11.84567v.00003ZM176.06239,317.74461c-7.9635-.39817-14.3343-5.87308-14.3343-13.83658s7.36623-13.33886,15.03112-12.94069c7.66488.39817,14.03568,6.3708,14.03568,14.13523s-6.86854,13.04018-14.73251,12.64201l.00002.00003ZM242.35853,414.30208c.46889-1.1261.83537-2.29217,1.09499-3.48403.6968-2.68769.79635-5.17629,2.48859-7.66488,3.08586-4.37992,6.07218-5.47491,11.24843-3.48403,5.17626,1.99088,6.07218,4.0813,8.56077,6.96806,1.43951,1.589,1.3183,4.04409-.2707,5.4836-.07321.06635-.14895.12987-.22702.19041-1.69226,1.49316-3.68313,1.09499-5.27581-.49772-1.19976-1.4489-2.53286-2.78199-3.98175-3.98175-.51215-.36411-1.08524-.63378-1.69224-.79634-.79218-.16107-1.60621.14904-2.09043.79634-.76315,1.46202-1.26828,3.04476-1.49316,4.67857-.6968,2.48859-1.29407,4.77809-2.98631,6.96806-3.08586,4.0813-5.87308,4.97719-10.55165,3.28493-2.58814-.89589-3.98175-2.48859-5.97263-3.8822s-1.79179-1.59271-2.88676-1.89133-2.98631-.09955-3.98175,1.59271c-.90761,1.70839-1.51375,3.56049-1.79179,5.47491-.57324,2.35566-1.51383,4.60639-2.78723,6.66945-3.1854,4.97719-6.47035,6.96806-11.54708,3.48403-1.89133-1.19454-2.38904-2.28949-3.38448-3.98175s0-3.28493,1.19452-4.47947c1.17259-1.23676,3.12575-1.28877,4.36251-.1162.00582.00553.01162.01109.01741.01665.99544.99544,1.49316,2.09043,2.68768,2.78721s.79635.29862,1.19452-.39817c.72653-1.5304,1.2936-3.13155,1.69224-4.77809.6968-3.18541,1.29407-5.87308,3.28495-8.75984,3.58358-4.97719,6.3708-6.17173,12.34342-4.28037,1.99088.59727,2.88676,1.69226,4.37992,2.78721s2.18996,1.99088,3.58358,2.38904,2.09044.19901,2.78724-1.09505v.00003ZM299.69575,290.37008c-1.39361,2.98631-3.58358,3.8822-5.87308,5.57446s-2.78721,1.49316-3.78265,2.58814-.59727,1.49316.69682,2.18998c1.31389.61674,2.67961,1.11637,4.0813,1.49316,1.53204.51306,2.71971,1.73785,3.18541,3.28493.36229,1.31399-.21113,2.70656-1.39361,3.38448-.95561.39817-2.0307.39817-2.98631,0-.97159-.19791-1.91007-.53311-2.78721-.99544-1.87504-.68962-3.64938-1.627-5.27581-2.78721-3.58358-2.98631-4.87764-5.67401-2.88676-9.85483,1.99088-4.18082,3.38448-3.48403,5.57446-5.07674s3.28493-1.79178,4.28037-3.38448.59727-3.28493-1.09499-4.77809-3.28493-1.99088-4.77809-2.88676-4.28037-2.68769-5.67401-4.47947c-2.78721-3.68313-3.58358-7.06761-1.19454-11.04937,1.09499-1.89133,2.88676-2.48859,4.47947-3.68313,1.02068-.56185,1.93127-1.30381,2.68769-2.18998.79634-1.19454.49772-1.99088-.59727-2.98631s-4.0813-2.28951-5.87308-3.1854-3.78265-2.38904-2.98631-4.7781,2.68769-2.38904,4.97719-1.59271,6.86851,2.88676,9.55621,5.67399,4.47947,6.76898,1.79178,11.24845c-1.29406,2.18998-2.98631,2.88676-4.77809,4.18085-.93107.52567-1.77136,1.19791-2.48859,1.99088-.79634,1.19454-.59727,1.79178.39817,2.88676,1.16984,1.06324,2.47523,1.96697,3.8822,2.68769,2.18998,1.19454,4.47947,2.28949,6.27125,4.18085,3.88214,4.08121,4.97713,7.36617,2.58808,12.34336v.00003Z"/>
      <path class="cls-2" d="M189.69988,351.09175c-.09955,7.7644-7.46578,12.24387-14.73248,11.8457-7.2667-.39817-14.83202-5.07674-14.93157-13.23931-.09955-8.16257,7.86395-12.44297,15.2302-12.34342s14.43385,5.77353,14.43385,13.73703ZM190.69532,305.10251c0,8.56077-6.86851,13.04024-14.63293,12.64207-7.76442-.39817-14.3343-5.87308-14.3343-13.83658s7.36623-13.33886,15.03112-12.94069c7.66488.39817,14.03565,6.3708,13.93611,14.1352ZM212.69448,18.51598C190.09805,6.37164,164.81394.00084,141.12251.00084c-9.42221-.03568-18.81422,1.0673-27.9718,3.28494-35.83576,8.8594-63.30984,47.18375-71.97015,80.43138-2.58814,9.95438-3.58357,20.60556-4.57901,30.95811-.49772,4.97719-.8959,9.95438-1.5927,14.93157-.6968,4.97719-.99544,7.2667-1.79179,10.85027l1.69224-.39817h1.79179l1.39361.39817.99544.59727.59726.6968.49772.89589c.13681.45577.23667.9218.29863,1.39361h0v.19908c-.39818,2.09043-.79635,3.58358-1.09498,4.97719s-.09954.29863-.09954.49772h0c-.13718.49246.12098,1.00879.59726,1.19452h.29863c.6197.37098,1.41609.24524,1.89133-.29863.29863-.29863,1.39361-.19908,1.99088-.19908h.39818c.45076.12124.84076.40488,1.09498.79635.09954.09955.09954.29863.19909.39817.19662.63737.67299,1.15038,1.29407,1.39361h.19909c0,.09955.09954.09955,0,.09955l.8959.49772.39818.19908.79635.39817c1.39361-1.09499,2.98631-2.18996,4.57901-3.58358,3.83946-2.9302,7.28549-6.34277,10.25301-10.15346,1.89846-2.53896,3.22303-5.45982,3.88221-8.56077l-.39818.49772-.19908.19908h-.8959c-.79997-.19436-1.57007-.49571-2.28951-.89589l-1.49316-1.09499c-.41294-.38839-.7803-.82254-1.09498-1.29407l-.8959-1.79179c-.18936-.75223-.32245-1.51751-.39818-2.28951.0125-.7669.07903-1.53196.19909-2.28951.18892-.75559.4558-1.48951.79635-2.18996.40694-.70213.87318-1.36819,1.39361-1.99088.48332-.51626,1.01685-.9831,1.5927-1.39361.72212-.44526,1.48963-.81232,2.28951-1.09498l1.79179-.39818c.29152-.00698.57213-.11221.79635-.29863.00068-1.20071.10057-2.39931.29863-3.58357-.10286-.1111-.17193-.24922-.19908-.39818v-.19908c-.27273-.47781-.50578-.97721-.6968-1.49316-.22159-.81285-.35508-1.64718-.39818-2.48859-.01635-.59899.01694-1.1983.09954-1.79179.10438-.37469.2375-.74077.39818-1.09498l.49772-.6968.59726-.49772,1.09498-.59726h.19908c.29863-1.39361.6968-2.78723,1.09498-4.28039,1.20451-3.71469,2.66807-7.34033,4.37991-10.85023-8.46122-12.44297,4.87765-30.55994,12.74161-40.0166.4673-.54976,1.29179-.61662,1.84156-.14932.54976.4673.61662,1.2918.14932,1.84156-7.06761,9.15803-17.5197,23.79096-13.53795,36.03484,5.67399-9.95438,14.03567-19.01286,22.09872-26.08047,1.09498-.8959,2.78723.79635,1.79179,1.89133-6.66945,6.56989-13.33888,13.83659-18.41561,21.80009-4.19636,6.2304-7.10681,13.23579-8.56076,20.60556.52514-.00748,1.02604-.22215,1.39361-.59726.36478-.38555.60723-.87046.6968-1.39361-.02946-.86742.03731-1.73543.19908-2.58814.16896-.60688.3683-1.2049.59726-1.79179l.8959-1.29407,1.49316-1.19452c.57853-.39777,1.21707-.70024,1.89133-.8959.82908-.30851,1.70377-.47671,2.58814-.49772.93371-.08674,1.87532-.01948,2.78723.19908.89572.19305,1.76475.49387,2.58814.8959l.99544.59726.39818.19908.59726.39818c1.08619.39127,2.2839-.17209,2.67516-1.25827.00428-.01189.00846-.02382.01253-.03579.49772-1.19452.99544-2.38905,1.49316-3.38449.73198-1.40018,1.63477-2.7042,2.68768-3.88221.75631-.80921,1.58979-1.54268,2.48859-2.18996.93449-.5853,1.93747-1.05335,2.98631-1.39361,1.19382-.38504,2.43115-.61913,3.68312-.6968,1.77169-.03191,3.54136.13503,5.27582.49772l.6968.19908.59726.29863,1.69224.8959,2.38905,1.29407c.55965.34307,1.16212.61083,1.79179.79635l1.09498.19908c.58538-.01558,1.16133-.15109,1.69224-.39818.68202-.25343,1.29554-.66244,1.79179-1.19452l1.79179-1.79179,1.19453-1.5927c.49772-.6968,1.19452-1.39361,1.79179-2.09042.45694-.57117.99328-1.07398,1.59271-1.49316l1.19452-.59726,2.98631-.49772c1.23373.00058,2.46542.10045,3.68312.29863,1.33741.37677,2.63702.87662,3.8822,1.49316,1.29658.63148,2.50199,1.43509,3.58358,2.38905.50809.48093,1.25976.59962,1.89133.29863h.39817c.6297-.13847,1.17181-.53603,1.49316-1.09498,1.33729-2.4262,2.9398-4.69644,4.7781-6.76898,1.78341-1.98928,3.82568-3.73025,6.07218-5.17629,1.9205-1.19347,3.95449-2.1938,6.07218-2.98631,1.84333-.56332,3.74899-.89765,5.67399-.99544,1.53283-.1028,3.07253-.00238,4.57902.29863l3.48403,1.29407c1.1224.63766,2.18811,1.37033,3.1854,2.18996,1.03002,1.0411,1.96296,2.17395,2.78723,3.38449v.29863h.29863l1.09499,1.99088c.27281.60033.83859,1.01524,1.49316,1.09498.59514.11924,1.21272-.02607,1.69224-.39818l1.59271-1.49316c1.12991-1.16988,2.36257-2.23595,3.68312-3.1854.67643-.4635,1.41331-.83193,2.18996-1.09498.80767-.26093,1.64269-.42795,2.48859-.49772l1.49316.19908c.96703.21399,1.90342.54841,2.78723.99544l2.58814,1.49316.89589.59726c1.13495.68245,2.33549,1.24937,3.58358,1.69224.54921.15939,1.12104.22666,1.69224.19908.44117.04133.88573-.02707,1.29407-.19908l.79635-.39818,1.19452-1.09498.89589-.99544.39817-.49772.89589-.79635c.38962-.27929.82877-.48197,1.29407-.59726.77717-.22947,1.57946-.36319,2.38904-.39818,1.06589-.08271,2.1381-.0157,3.1854.19908,1.16247.29334,2.29542.6932,3.38448,1.19452,1.0717.58096,2.07361,1.28231,2.98631,2.09042.87692.85687,1.67638,1.78957,2.38904,2.78723.4436.68797.81077,1.42231,1.09499,2.18996.23844.44882.62555.80074,1.09499.99544.49023.17351,1.03028.13751,1.49316-.09954.56823-.10429,1.08999-.38257,1.49316-.79635.96368-1.43425,2.02816-2.79812,3.1854-4.08129,1.66527-1.80484,3.53616-3.40846,5.57446-4.7781,1.74264-1.05466,3.57467-1.95402,5.47489-2.68768,1.61671-.49895,3.28797-.79979,4.97719-.8959-6.1717-11.64661-20.00829-31.75445-47.38283-46.38739Z"/>
      <path class="cls-1" d="M151.87325,420.47374c-1.69224,1.99088-1.79179,3.98175-4.67855,5.07674-2.88676,1.09499-6.76898-.1991-9.25757-3.18541-1.88088-2.36371-3.36056-5.02042-4.37992-7.86395-.53814-1.81644-1.30762-3.55612-2.28951-5.17629-1.09499-1.49316-1.99088-1.99088-3.68312-1.49316s-2.28951,1.49316-3.58357,2.28949-3.98175,3.98175-7.56533,3.98175-8.16259-2.68769-10.15346-7.16716c-.79635-1.79178-1.29407-4.18085-1.99088-6.07218-.09954-.1991-.09954-.39817-.19908-.59727-1.19452-1.99088-2.38905-2.78721-4.57901-1.39361s-2.28951,2.38904-3.28495,3.58358-3.48403,2.78721-5.37537,1.09499c-1.94679-1.51463-2.30279-4.3181-.79635-6.27125,2.18996-3.38448,4.37993-6.47035,8.66031-7.56533,4.28038-1.09499,7.9635.89589,10.65118,5.27581,1.144,2.25389,2.04496,4.6231,2.68768,7.06761.35723,1.3436.92863,2.62086,1.69224,3.78265.379.54356,1.04038.8159,1.69224.69682,1.5927-.39817,2.38905-1.59271,3.68312-2.48859s3.78267-3.18541,6.76898-3.48403c5.47491-.59727,8.56077,1.89133,11.34798,6.5699.18465.35619.35078.72167.49772,1.09499.9819,1.84239,1.78202,3.77603,2.38904,5.77353.46912,1.46254,1.03443,2.89244,1.69224,4.28037.6968,1.19454.89589,1.29406,1.89133.59727s1.29407-1.69226,2.18996-2.48859c.93628-.99152,2.4525-1.16,3.58358-.39817,1.30758.68342,2.2261,1.93261,2.48859,3.38448.11831.36323.08233.75906-.09952,1.09502ZM265.2536,412.31117c-1.69226,1.49316-3.68313,1.09499-5.27581-.49772-1.17361-1.4725-2.50925-2.80814-3.98175-3.98175-.51215-.36411-1.08524-.63378-1.69224-.79634-.79218-.16107-1.60621.14904-2.09043.79634-.76315,1.46202-1.26828,3.04476-1.49316,4.67857-.6968,2.48859-1.29407,4.77809-2.98631,6.96806-3.08586,4.0813-5.87308,4.97719-10.55165,3.28493-2.58814-.89589-3.98175-2.48859-5.97263-3.8822s-1.79179-1.59271-2.88676-1.89133-2.98631-.09955-3.98175,1.59271c-.90761,1.70839-1.51375,3.56049-1.79179,5.47491-.57324,2.35566-1.51383,4.60639-2.78723,6.66945-3.1854,4.97719-6.47035,6.96806-11.54708,3.48403-1.89133-1.19454-2.38904-2.28949-3.38448-3.98175s0-3.28493,1.29407-4.47947c1.12212-1.20872,3.01163-1.27896,4.22037-.15684.02026.01883.04027.03791.06001.05729.99544.99544,1.49316,2.09043,2.68768,2.78721s.79635.29862,1.19452-.39817c.76945-1.51233,1.33833-3.11858,1.69224-4.77809.79635-3.18541,1.29407-5.87308,3.28495-8.75984,3.58358-4.97719,6.3708-6.17173,12.34342-4.28037,1.99088.59727,2.88676,1.69226,4.37992,2.78721s2.18996,1.99088,3.58358,2.38904c1.03022.52108,2.28781.10833,2.80887-.92189.02857-.0565.05456-.11425.07789-.1731.39085-1.14365.72308-2.30651.99544-3.48403.6968-2.68769.79635-5.17629,2.48859-7.66488,3.08586-4.37992,6.07218-5.47491,11.24845-3.48403,5.17626,1.99088,6.07218,4.0813,8.56077,6.96806,1.43951,1.589,1.3183,4.04409-.27073,5.4836-.07321.06632-.14891.12984-.22699.19038ZM290.03999,298.53262c-.99544,1.19454-.59727,1.49316.69682,2.18998,1.31389.61674,2.67961,1.11637,4.0813,1.49316,1.53204.51306,2.71971,1.73785,3.18541,3.28493.36229,1.31399-.21113,2.70656-1.39361,3.38448-.95561.39817-2.0307.39817-2.98631,0-.97159-.19791-1.91007-.53311-2.78721-.99544-1.87504-.68962-3.64938-1.627-5.27581-2.78721-3.58358-2.98631-4.87764-5.67401-2.88676-9.85483s3.38448-3.48403,5.57446-5.07674,3.28493-1.79178,4.28037-3.38448.59727-3.28493-1.09499-4.77809c-1.69226-1.49316-3.28493-1.99088-4.77809-2.88676s-4.28037-2.68769-5.67401-4.47947c-2.78721-3.68313-3.58358-7.06761-1.19454-11.04937,1.09499-1.89133,2.88676-2.48859,4.47947-3.68313,1.02068-.56185,1.93127-1.30381,2.68769-2.18998.79634-1.19454.49772-1.99088-.59727-2.98631s-4.0813-2.28951-5.87308-3.1854-3.78265-2.38904-2.98631-4.7781,2.68769-2.38904,4.97719-1.59271,6.86851,2.88676,9.55621,5.67399,4.47947,6.76898,1.79178,11.24845c-1.29406,2.18998-2.98631,2.88676-4.77809,4.18085-.93107.52567-1.77136,1.19791-2.48859,1.99088-.79634,1.19454-.59727,1.79178.39817,2.88676,1.16984,1.06324,2.47523,1.96697,3.8822,2.68769,2.18998,1.19454,4.47947,2.28949,6.27125,4.18085,3.8822,4.0813,4.97719,7.36623,2.58814,12.34342-1.39361,2.98631-3.58358,3.8822-5.87308,5.57446s-2.78727,1.49313-3.78271,2.58811ZM63.08019,276.63299c-1.29407,1.39361-1.69224,2.58814-.69681,4.18085,1.04987,1.31973,2.42085,2.34794,3.98175,2.98631,1.89133.99544,3.78267,1.69226,5.27582,3.28493,1.52696,1.46791,2.26588,3.57383,1.99088,5.67401-.34825,1.90111-1.28903,3.64331-2.68768,4.97719-1.83403,1.7703-3.95437,3.21752-6.27126,4.28037-.75648.44638-1.55709.81332-2.38905,1.09499-1.89133.59727-3.98175.39817-4.28038-1.99088s1.19453-3.58358,2.88677-4.47947c1.60679-.66252,3.16951-1.42727,4.67856-2.28949.6968-.49772.8959-.89589.39818-1.39361s-2.48859-1.59271-3.88221-2.38904-5.17628-2.68769-7.06761-5.77353c-1.89133-3.08583-1.19453-7.36623,1.09498-10.35255s4.97719-4.67857,7.76442-6.66945c1.57929-.91946,2.9653-2.13645,4.08129-3.58358.48035-.50067.48035-1.29111,0-1.79178-.99544-1.19454-2.48859-1.59271-3.68312-2.48859s-4.08129-2.09043-5.17628-4.57902c-1.69224-4.0813-.69681-7.46578,2.58814-10.85027s6.66943-4.67855,10.25301-5.97263c1.69224-.6968,3.58357-.39817,4.47947,1.09499s.19908,3.38448-1.19452,4.57902c-1.03109.74032-2.17358,1.31157-3.38449,1.69224-1.69448.72408-3.27138,1.69706-4.67855,2.88676-.99544.99544-1.09498,1.59271-.39818,2.68768s2.48859,1.49316,3.68312,2.38904c1.19452.89589,3.98175,2.09043,4.97719,4.37992,1.79179,3.98175.49772,7.16716-2.28951,10.55165-2.78723,3.38448-4.97719,4.0813-7.46578,5.77353-.96504.5596-1.83801,1.26468-2.58814,2.09039ZM52.72764,162.954c-.08659.4765-.21996.94329-.39818,1.39361-.17391.36905-.40957.7057-.69681.99544l-.59726.6968-1.09498.49772-1.19453.29863c-.76433.06281-1.53351.02936-2.28951-.09955h-.99544c-.43576.09584-.8236.34265-1.09498.6968-.34484.64234-.26612,1.42954.19909,1.99088l.19909.19908.39818.6968c.09954.29863.09954.6968.19909.99544.01565.30205-.01797.60464-.09954.89589-.00606.38427-.10876.76084-.29863,1.09499l-.39818.6968-.49772.49772-.59726.29863h-1.59271l-.39818-.19908c-.71371-.17796-1.46368.09833-1.89133.6968-.27848.6204-.20247,1.34254.19909,1.89136.28275.21666.51961.48734.69681.79635.5076.75262.94099,1.55273,1.29407,2.38904.17042.62192.30338,1.25349.39818,1.89133.01957.53288-.01378,1.0664-.09954,1.59271-.09954.59727-.29863,1.09499-.39818,1.59271l-1.09498,1.59271c-.54151.72039-1.21763,1.32889-1.99088,1.79179-.95995.73786-2.03662,1.30984-3.1854,1.69224-1.24366.4857-2.55148.78751-3.88221.89589-1.22703.12107-2.46442.08763-3.68312-.09955-.83161-.1448-1.63688-.41322-2.38905-.79635-.69794-.27965-1.33891-.68447-1.89133-1.19452-.50935-.38549-.94731-.85714-1.29407-1.39361l-.29863-.29863c-.32441-.5344-.59135-1.10164-.79635-1.69224-.39438-1.01974-.62941-2.09413-.69681-3.1854-.06404-1.26157-.03076-2.5262.09954-3.78267l1.09498-1.09499c.35443-.29945.57036-.7313.59726-1.19452.00388-.47881-.17398-.94127-.49772-1.29407-.31324-.39176-.79273-.61305-1.29407-.59727h0c-.47542.01385-.93189.18942-1.29407.49772-.82275.87502-1.72224,1.67456-2.68768,2.38904-.80426.64724-1.71325,1.15222-2.68768,1.49316-.70839.24966-1.44325.41667-2.18996.49772-.69799.06647-1.4019.03295-2.09042-.09955l-1.69224-.49772c-.848-.44902-1.64842-.98263-2.38905-1.59271-.85539-.71015-1.59433-1.54986-2.18996-2.48859-.95774-1.27787-1.72864-2.6856-2.28951-4.18081-.48755-1.34634-.78897-2.75295-.89589-4.18084-.11797-1.19395-.08452-2.39802.09954-3.58358.12638-.85561.36051-1.69177.69681-2.48859.29863-.59727.69681-1.09499.99544-1.59271.46005-.53976.99664-1.00929,1.5927-1.39361.56286-.39027,1.16307-.72372,1.79179-.99544,1.03318-.34786,2.10135-.58152,3.1854-.6968h3.48403c.52372.0108,1.0148-.25363,1.29407-.6968.36676-.53436.28167-1.2576-.19909-1.69224-.39549-.43974-.76129-.90531-1.09498-1.39361-.52315-.79532-.98887-1.62697-1.39361-2.48859-.22373-.71564-.39016-1.44792-.49772-2.18996-.01979-.56595.01354-1.1325.09954-1.69224.09229-.65932.29416-1.29858.59726-1.89133.3062-.60002.67311-1.16706,1.09498-1.69224.52914-.69585,1.16793-1.301,1.89133-1.79179.82902-.60957,1.73215-1.11132,2.68768-1.49316l2.78722-.59727h2.48859l1.89133.59727,1.5927.99544,1.19453,1.39361.19909.29863c-.42043.6018-.72431,1.27709-.89589,1.99088-.47025,1.55009-.53876,3.19427-.19909,4.7781.10111.38155.30819.72667.59726.99544.363.20299.78531.27337,1.19453.19908.41559-.08065.77741-.33392.99544-.6968.24273-.30989.3172-.71948.19909-1.09499v-.39817c-.07225-.69785-.03868-1.4026.09954-2.09043.07352-.51165.20717-1.01283.39817-1.49316l.79635-1.29407,1.19453-.99544c.52802-.38963,1.09515-.72323,1.69224-.99544l2.28951-.49772h1.79179l1.39361.39817.99544.59727.59726.6968.49772.89589c.13681.45577.23667.9218.29863,1.39361h0c-.39818,2.09043-.69681,3.68312-1.09498,5.07674s-.09954.29863-.09954.49772h0c-.13718.49246.12098,1.00879.59726,1.19452h.29863c.6197.37098,1.41609.24524,1.89133-.29863.29863-.39817,1.39361-.19908,1.99088-.19908h.39818c.47129.0752.87823.37116,1.09498.79635.10286.11109.17193.24922.19909.39817.29863.49772.59726,1.19452,1.29407,1.39361h.19909c0,.09955.09954.09955,0,.09955l.8959.49772.49772.19908c.4305.17182.83307.40664,1.19453.6968l1.39361,1.49316c.42386.66436.79018,1.3637,1.09498,2.09043.21311.71845.37936,1.44997.49772,2.18996.05716.96325.02383,1.92974-.09955,2.88676ZM285.36145,94.16925c.01379.63204-.0195,1.26423-.09955,1.89133-.16113.70074-.42976,1.37231-.79634,1.99088-.30621.60003-.67312,1.16707-1.09499,1.69224l-1.29406,1.09498-1.49316.6968-1.29406.29863h-1.09499l-.89589-.39818h-.1991c-.42396-.16583-.90044-.12918-1.29406.09954-1.0058.44422-1.46105,1.61969-1.01682,2.62549.21544.48783.61762.86884,1.11637,1.05762l.39817.19908c.68649.38324,1.32194.85147,1.89133,1.39361l1.29406,1.49316c.41044.65657.74442,1.35794.99544,2.09042.22273.88443.38899,1.78214.49772,2.68768-.00064,1.16771-.10055,2.33325-.29862,3.48403v.19908c-.28164,1.2434-.71632,2.4471-1.29406,3.58357-.48955,1.01725-1.12688,1.95649-1.89133,2.78723-.5538.61576-1.19028,1.15176-1.89133,1.5927-.42132.31018-.89267.54585-1.39361.6968-1.35208.43533-2.76066.67009-4.18085.6968-2.20574.05708-4.4106-.14336-6.5699-.59726-1.20818-.24562-2.37932-.64715-3.48403-1.19452l-1.19454-.79635-.59727-.59726c-.09955-.19908-.09955-.39818-.1991-.49772-.07996-.18841-.11407-.3931-.09955-.59726v-.59726c.13005-.41218.29661-.81194.49772-1.19452v-.19908l2.18998-.29863c.90269-.19884,1.47882-1.08521,1.29406-1.99088-.03776-.45748-.29838-.86702-.69682-1.09498-.3673-.28322-.83981-.39226-1.29406-.29863l-1.39361.19908c-.70271.03245-1.40649-.03457-2.09043-.19908-.77653-.11384-1.52168-.38482-2.18996-.79635-.74798-.3828-1.4494-.85041-2.09043-1.39361-.58062-.56033-1.08288-1.19653-1.49316-1.89133-.47711-.75438-.87728-1.55474-1.19452-2.38905l-.29863-1.49316c-.09003-.75805-.58609-1.40674-1.29407-1.69222h-.59727c-.92048-.02109-1.75585.53583-2.09043,1.39361-.09955.29863-.09955.59726-.19908.8959v.29863l-.29863,1.09498c-.19908.59726-.49772,1.19452-.79635,1.89133-.48223.85128-1.04918,1.65169-1.69224,2.38905-.59501.64016-1.26322,1.20815-1.99088,1.69224-.92218.54333-1.88773,1.00946-2.88676,1.39361-1.29397.39337-2.6311.62737-3.98175.6968-1.56877.01994-3.13573-.11342-4.67855-.39818-1.80004-.40366-3.54002-1.03942-5.17627-1.89133-1.33882-.78082-2.60479-1.68033-3.78267-2.68768-.9348-.90278-1.76919-1.90404-2.48859-2.98631-.68827-1.01145-1.22486-2.11815-1.59271-3.28495h-.09955c-.15473-.3812-.43593-.69754-.79635-.8959-.49681-.41656-1.16533-.56512-1.79179-.39818-.53048.12837-1.0137.4045-1.39361.79635-.28622.23034-.49474.54309-.59727.8959-.48027,1.38984-1.22381,2.67414-2.18996,3.78267-.50188.60214-1.10901,1.10809-1.79179,1.49316l-1.99088.99544c-1.00786.29439-2.04094.49434-3.08586.59726-1.46951.01129-2.93654-.12208-4.37992-.39818-1.6855-.42039-3.32081-1.02112-4.87764-1.79179-1.36593-.69816-2.6371-1.56791-3.78267-2.58814-.48499-.36052-1.09739-.50461-1.69224-.39818-.57758.06847-1.09154.39887-1.39361.8959-1.29407,1.79179-2.48859,3.28495-3.68312,4.67855-1.83535,2.00272-3.90786,3.77437-6.17171,5.27582,0,.05498-.04457.09954-.09955.09954h-.09955c-1.41221.85852-2.91436,1.55953-4.47947,2.09042-1.22928.39814-2.49722.66507-3.78267.79635-1.20089.00358-2.39984-.09634-3.58358-.29863l-3.08586-1.09498v-.39818h-.6968c-1.14528-.60044-2.21466-1.33564-3.1854-2.18996l-.39817-.39818-.6968-.6968c-.60064-.48606-1.32422-.79617-2.09043-.8959h-3.58358l-2.68768.19908h-2.88676l-1.19452-.49772-.79635-.49772c-.5156-.37681-1.16513-.52115-1.79179-.39818-.82502.13339-1.51181.70571-1.79179,1.49316h0l-.99544,1.39361-1.29407,1.09498c-.55491.37674-1.15746.67801-1.79179.8959l-1.99088.39818-2.09043-.19908c-.69223-.18744-1.36034-.45469-1.99088-.79635h-.59727l-.49772-.19908c-.5879-.01283-1.1582.20103-1.5927.59726-.39551.35326-.61421.86358-.59726,1.39361.00431,1.03604-.09574,2.06987-.29863,3.08586-.12615.7278-.36104,1.43249-.6968,2.09042l-1.19452,1.69225-1.69224,1.39361-2.58814,1.19452c-1.61234.51663-3.2859.81788-4.97719.89589-2.47051.09865-4.94389-.10189-7.36624-.59727-1.88743-.4773-3.72174-1.14434-5.47491-1.99088h-.29863c-.44248-.28373-.97559-.39035-1.49316-.29863-.6986.10357-1.29766.55287-1.5927,1.19452-.79635,1.89133-1.5927,3.68312-2.48859,5.47491-1.11811,2.2852-2.55973,4.39733-4.28039,6.27126-.93787,1.03323-2.00907,1.93706-3.1854,2.68768-1.12215.7935-2.36618,1.3987-3.68312,1.79179-1.48524.4798-3.02246.78056-4.57901.89589-.99974.08925-2.00727.02209-2.98631-.19908-.90435-.16108-1.77773-.46341-2.58814-.89589-.74797-.3828-1.44939-.85041-2.09042-1.39361l-1.39361-1.59271c-.27273-.47782-.50578-.97721-.6968-1.49316l-.29863-1.29407c.01023-.43815.07715-.87312.19908-1.29407.12012-.54414.28663-1.07699.49772-1.59271l1.19452-1.69224,1.49316-1.39361c.48961-.38564.7816-.96963.79635-1.59271.10651-.58047-.07964-1.17617-.49772-1.59271-.38612-.5546-1.01651-.88834-1.69224-.89589-.53623.01318-1.05626.18654-1.49316.49772-.83584.65002-1.603,1.38382-2.28951,2.18996l-.19908.29863h-.8959c-.80542-.17674-1.57803-.47907-2.28951-.89589-.55339-.28229-1.05759-.65204-1.49316-1.09499-.41703-.38448-.78482-.81915-1.09498-1.29407-.37674-.55491-.67801-1.15746-.8959-1.79179-.22837-.74342-.36214-1.51264-.39818-2.28951-.03684-.76865.03012-1.53875.19909-2.28951.14395-.80016.41267-1.57274.79635-2.28951.37321-.66832.80634-1.30136,1.29407-1.89133l1.69224-1.39361c.71167-.46414,1.48149-.83231,2.28951-1.09498l1.79179-.39818c.5361-.10821,1.00408-.43219,1.29407-.8959.45461-.64134.5306-1.47715.19908-2.18996-.26873-.37576-.50199-.77565-.6968-1.19452v-.19908l-.59726-1.49316c-.25166-.81005-.41846-1.64406-.49772-2.48859.017-.60172.08359-1.20102.19908-1.79179.10438-.37469.2375-.74077.39818-1.09498.10715-.26908.27793-.50818.49772-.6968l.59726-.59726.99544-.49772,1.79179-.29863h.59726c.33279.38125.79259.62883,1.29407.6968.5879.01283,1.1582-.20103,1.5927-.59726.44503-.32362.70493-.84342.6968-1.39361-.00477-.87158.0955-1.74055.29863-2.58814.07788-.63106.28094-1.24022.59726-1.79179.25089-.46252.55129-.89643.8959-1.29407.44728-.45743.9487-.85857,1.49316-1.19452l1.89133-.99544,2.48859-.49772c.97018-.00418,1.93799.09593,2.88677.29863.89116.20904,1.75845.50926,2.58814.8959l.8959.59726.39818.19908.6968.39818c1.19682.17457,2.30855-.65413,2.48312-1.85095.00196-.01343.00379-.02687.0055-.04033.38622-1.15885.85185-2.28969,1.39361-3.38449.75565-1.4167,1.65638-2.75111,2.68768-3.98175.77941-.75439,1.611-1.45292,2.48859-2.09042.97764-.59684,2.01115-1.09692,3.08586-1.49316,1.17472-.3037,2.37386-.50356,3.58357-.59726,1.80614-.08142,3.61489.08605,5.37537.49772l.6968.19908.59726.19908c.52801.38963,1.09515.72324,1.69224.99544l2.28951,1.29407,1.89133.79635,1.09498.19908c.55365-.01453,1.09735-.15046,1.5927-.39818.70116-.27332,1.34324-.67885,1.89133-1.19452l1.69224-1.89133,1.19453-1.49316,1.79179-2.09042c.51651-.54916,1.08303-1.04904,1.69224-1.49316.35455-.27645.76063-.47949,1.19452-.59726.94124-.2706,1.90925-.4375,2.88676-.49772,1.26824-.04873,2.53779.05149,3.78267.29863,1.34631.34951,2.64867.85043,3.8822,1.49316,1.28248.65579,2.48498,1.45744,3.58358,2.38905.54511.3994,1.24967.51064,1.89133.29863h.39817c.60816-.12517,1.1437-.4822,1.49316-.99544,1.3032-2.42313,2.87241-4.69347,4.67855-6.76898,1.8412-1.96775,3.91346-3.70578,6.17171-5.17627,1.88747-1.25199,3.9283-2.25568,6.07218-2.98631,1.8375-.60317,3.74401-.9711,5.67399-1.09498,1.53564-.016,3.06919.11735,4.57902.39818,1.19762.32655,2.36362.75964,3.48403,1.29407,1.10594.61442,2.14081,1.34884,3.08586,2.18996,1.06142.97544,1.99765,2.07886,2.78723,3.28495v.29863l.19908.19908c.49772.6968.79635,1.39361,1.19452,1.99088.25419.57353.77623.9837,1.39361,1.09498.59514.11924,1.21272-.02607,1.69224-.39818l1.59271-1.49316c1.16331-1.20253,2.42896-2.30165,3.78267-3.28495.69948-.39521,1.43226-.72831,2.18996-.99544.80518-.27036,1.64137-.4376,2.48859-.49772h1.59272c.955.29521,1.88666.66122,2.78723,1.09498l2.48859,1.49316.99544.59726c1.13495.68245,2.33549,1.24937,3.58358,1.69224l1.69224.19908c.44077.03018.88275-.03781,1.29407-.19908l.6968-.39818,1.19452-1.19452.89589-.99544.49772-.39818.79635-.8959,1.29407-.49772c.77369-.26043,1.57572-.42751,2.38904-.49772,1.10173.00055,2.20117.1005,3.28495.29863,1.16247.29334,2.29542.6932,3.38448,1.19452,1.0717.58096,2.07361,1.28231,2.98631,2.09042.89659.81095,1.66812,1.75022,2.28951,2.78723.46063.69415.8603,1.42687,1.19452,2.18996.23844.44882.62555.80074,1.09499.99544.49172.16226,1.02732.12656,1.49316-.09954.54857-.07952,1.04659-.3641,1.39361-.79635,1.19452-1.5927,2.18996-2.88677,3.28495-4.08129,1.62709-1.80614,3.46523-3.41033,5.47491-4.7781,1.73321-1.13478,3.6072-2.03831,5.57444-2.68768,1.7806-.54132,3.61773-.87534,5.47491-.99544,1.76817-.07712,3.53923.05654,5.27581.39818.93632.21037,1.84023.54515,2.68769.99544l2.09043,1.39361c.49395.5392.95914,1.10406,1.39361,1.69224.37207.67691.70444,1.37489.99544,2.09042.2618.87545.42867,1.77653.49772,2.68768-.01328.93211-.07974,1.8627-.1991,2.78723-.29862.8959-.59727,1.79179-.99544,2.68768-.56285.94159-1.19505,1.83997-1.89133,2.68768h-.09955l-.29862.29863c-.51051.58083-.59077,1.42365-.1991,2.09042.24974.6621.88507,1.09889,1.59271,1.09498,1.67631.08561,3.34183.31878,4.97719.6968,1.58347.3016,3.12213.80334,4.57902,1.49316.77611.42649,1.50944.9265,2.18998,1.49316.3955.43975.76128.90531,1.09499,1.39361.27186.44366.50501.90992.69682,1.39361.24974.56511.38505,1.17409.39817,1.79179ZM146.89639,138.68971c-4.45883.88912-8.7662,5.79913-9.32471,10.30336-1.27505,10.28293,9.04733,17.80284,18.33782,13.02505,12.59266-6.47598,6.17036-26.3561-9.01311-23.32842ZM194.77492,159.89116c12.28819,11.66368,28.98465-6.81903,17.50046-18.03462-11.70899-11.43513-29.73006,6.42656-17.50046,18.03462ZM200.72129,196.38169c-14.36099,14.88078-44.60455,13.00702-54.17352-6.50589-1.84985-3.7722-2.05115-12.02019-8.55359-8.58572-4.64788,2.45493-.42756,11.18622,1.47941,14.5974,14.43464,25.82061,59.09818,25.40037,73.20307-.47724,1.11651-2.04841,3.49815-7.44259,3.50929-9.62192.01749-3.42135-3.56602-5.40888-6.66596-4.16001-2.14397.86374-2.65349,4.92427-3.46263,6.80846-1.36168,3.17084-2.96462,5.48763-5.33607,7.94491Z"/>
    </g>
  </g>
</svg>